#VRML V2.0 utf8
# 3D model generated by easyeda2kicad.py (https://github.com/uPesy/easyeda2kicad.py)

Shape{
    appearance Appearance {
        material  Material 	{
            diffuseColor 0.25098039215686274 0.25098039215686274 0.25098039215686274
            specularColor 0.12549019607843137 0.12549019607843137 0.12549019607843137
            ambientIntensity 0.2
            transparency 0
            shininess 0.5
        }
    }
    geometry IndexedFaceSet {
        ccw TRUE
        solid FALSE
        coord DEF co Coordinate {
            point [
                -0.2953 0.0591 0.0, -0.3328 0.0591 0.0, -0.3328 0.2344 0.0, 0.2953 -0.0591 0.0, 0.3328 -0.0591 0.0, 0.3328 -0.2344 0.0, 0.0474 -0.0336 0.0, 0.0505 -0.034 0.0, -0.0343 -0.2344 0.0, 0.0527 -0.0341 0.0, 0.0573 -0.0336 0.0, -0.0343 0.2344 0.0, -0.0266 -0.0245 0.0, -0.0343 -0.0336 0.0, -0.0266 -0.0331 0.0, 0.0156 -0.0331 0.0, 0.3328 0.2344 0.0, 0.3328 0.0591 0.0, 0.2953 0.0591 0.0, 0.031 -0.029 0.0, 0.031 -0.0204 0.0, 0.0156 0.0456 0.0, 0.0394 -0.0325 0.0, 0.0051 0.037 0.0, 0.0051 0.0111 0.0, -0.0247 0.037 0.0, -0.0228 0.0111 0.0, 0.0051 0.0024 0.0, 0.0051 -0.0245 0.0, -0.0228 0.0024 0.0, 0.1366 -0.0331 0.0, 0.0963 -0.0331 0.0, 0.0624 -0.0331 0.0, 0.07 -0.0304 0.0, -0.0247 0.0456 0.0, 0.0572 0.0371 0.0, 0.0631 0.0349 0.0, 0.0324 -0.0212 0.0, 0.0685 0.0313 0.0, 0.0733 0.026 0.0, 0.079 0.0054 0.0, 0.0782 -0.0031 0.0, 0.0761 -0.0099 0.0, 0.0586 -0.0246 0.0, 0.0512 -0.0254 0.0, 0.0643 -0.0225 0.0, 0.0691 -0.0192 0.0, 0.0728 -0.0153 0.0, 0.0408 -0.0243 0.0, 0.0854 0.0249 0.0, 0.0808 0.0323 0.0, 0.1261 0.0456 0.0, 0.0765 0.02 0.0, 0.0786 0.0115 0.0, 0.0737 0.0391 0.0, 0.1366 0.0456 0.0, 0.2953 -0.0336 0.0, 0.0763 -0.0264 0.0, 0.0823 -0.0202 0.0, 0.0963 -0.0245 0.0, 0.0865 -0.0127 0.0, 0.1261 -0.0245 0.0, 0.0888 -0.0044 0.0, 0.0896 0.0048 0.0, 0.0885 0.016 0.0, 0.0662 0.0434 0.0, 0.0574 0.0459 0.0, 0.0495 0.0466 0.0, 0.0401 0.0459 0.0, 0.031 0.0435 0.0, 0.031 0.0329 0.0, 0.0399 0.0367 0.0, 0.0494 0.0379 0.0, -0.1111 -0.0331 0.0, -0.1014 -0.0115 0.0, -0.0969 -0.0186 0.0, -0.0904 -0.0248 0.0, -0.0822 -0.0296 0.0, -0.0731 -0.0323 0.0, -0.1409 0.0456 0.0, -0.1514 0.0456 0.0, -0.1822 -0.0331 0.0, -0.2953 -0.0336 0.0, -0.0634 -0.0331 0.0, -0.042 -0.0331 0.0, -0.042 0.0456 0.0, -0.0642 0.0456 0.0, -0.0935 0.0353 0.0, -0.099 0.0292 0.0, -0.1027 0.0224 0.0, -0.1226 -0.0331 0.0, -0.1706 -0.0331 0.0, -0.1301 -0.011 0.0, -0.1627 -0.011 0.0, -0.0756 0.0444 0.0, -0.0848 0.0412 0.0, -0.0933 0.0354 0.0, -0.1048 0.0146 0.0, -0.1053 0.0072 0.0, -0.1042 -0.0033 0.0, -0.2953 -0.0591 0.0, -0.3328 -0.0591 0.0, -0.3328 -0.2344 0.0, 0.3525 0.0591 0.0214, 0.3525 0.2344 0.0214, 0.3509 0.0591 0.0394, 0.3283 0.2103 0.297, 0.3509 -0.0591 0.0394, 0.3283 -0.2103 0.297, 0.3525 -0.0591 0.0214, 0.3525 -0.2344 0.0214, 0.3524 -0.2344 0.0175, 0.3523 -0.0591 0.0168, 0.3522 -0.2344 0.0168, 0.3513 -0.2344 0.0129, 0.3511 -0.0591 0.0123, 0.351 -0.2344 0.0123, 0.3491 -0.2344 0.0086, 0.3488 -0.0591 0.0082, 0.3488 -0.2344 0.0082, 0.346 -0.2344 0.005, 0.3457 -0.0591 0.0048, 0.3457 -0.2344 0.0048, 0.3421 -0.2344 0.0023, 0.3418 -0.0591 0.0022, 0.3418 -0.2344 0.0022, 0.3376 -0.2344 0.0006, 0.3375 -0.0591 0.0005, 0.3375 -0.2344 0.0006, 0.3523 0.0591 0.0168, 0.3511 0.0591 0.0123, 0.351 0.2344 0.0123, 0.3513 0.2344 0.0129, 0.3522 0.2344 0.0168, 0.3524 0.2344 0.0175, 0.3488 0.0591 0.0082, 0.3457 0.0591 0.0048, 0.3457 0.2344 0.0048, 0.346 0.2344 0.005, 0.3488 0.2344 0.0082, 0.3491 0.2344 0.0086, 0.3375 0.2344 0.0006, 0.3376 0.2344 0.0006, 0.3418 0.0591 0.0022, 0.3418 0.2344 0.0022, 0.3421 0.2344 0.0023, 0.3375 0.0591 0.0005, -0.3525 0.2344 0.0214, -0.3524 0.2344 0.0175, -0.3525 0.0591 0.0214, -0.3523 0.0591 0.0168, -0.3522 0.2344 0.0168, -0.3513 0.2344 0.0129, -0.3511 0.0591 0.0123, -0.351 0.2344 0.0123, -0.3491 0.2344 0.0086, -0.3488 0.0591 0.0082, -0.3488 0.2344 0.0082, -0.346 0.2344 0.005, -0.3457 0.0591 0.0048, -0.3457 0.2344 0.0048, -0.3421 0.2344 0.0023, -0.3418 0.0591 0.0022, -0.3418 0.2344 0.0022, -0.3376 0.2344 0.0006, -0.3375 0.0591 0.0005, -0.3375 0.2344 0.0006, 0.3087 -0.2103 0.315, 0.3087 0.2103 0.315, -0.2271 -0.2103 0.315, -0.2271 0.2103 0.315, 0.3328 0.254 0.0214, -0.3328 0.254 0.0214, 0.3087 0.2299 0.297, -0.3087 0.2299 0.297, -0.3525 -0.0591 0.0214, -0.3525 -0.2344 0.0214, -0.3509 -0.0591 0.0394, -0.3283 -0.2103 0.297, -0.3509 0.0591 0.0394, -0.3283 0.2103 0.297, 0.3087 -0.2299 0.297, -0.3087 -0.2299 0.297, 0.3328 -0.254 0.0214, -0.3328 -0.254 0.0214, -0.3087 0.2103 0.315, -0.3087 -0.2103 0.315, -0.2728 0.2103 0.315, -0.2728 -0.2103 0.315, 0.3087 -0.2151 0.3144, -0.2728 -0.2142 0.3146, -0.3087 -0.2151 0.3144, -0.2271 -0.2142 0.3146, -0.3087 -0.229 0.3016, 0.3087 -0.229 0.3016, -0.3087 -0.2289 0.3017, 0.3087 -0.2289 0.3017, -0.3087 -0.2268 0.306, 0.3087 -0.2268 0.306, -0.3087 -0.2267 0.3061, 0.3087 -0.2267 0.3061, -0.3087 -0.2237 0.3097, 0.3087 -0.2237 0.3097, -0.3087 -0.2236 0.3098, 0.3087 -0.2236 0.3098, -0.3087 -0.2197 0.3126, 0.3087 -0.2197 0.3126, -0.3087 -0.2197 0.3126, 0.3087 -0.2197 0.3126, -0.3087 -0.2152 0.3144, 0.3087 -0.2152 0.3144, 0.3252 -0.2103 0.3061, 0.3221 -0.2103 0.3097, 0.3216 -0.2138 0.3097, 0.3178 -0.2127 0.3126, 0.3134 -0.2116 0.3144, 0.3129 -0.2127 0.3144, 0.3112 -0.2145 0.3144, 0.3122 -0.2137 0.3144, 0.31 -0.215 0.3144, 0.3136 -0.2103 0.3144, 0.3267 -0.2151 0.3016, 0.3276 -0.2154 0.2974, 0.3276 -0.2154 0.2974, 0.3257 -0.2201 0.2976, 0.3249 -0.2196 0.3016, 0.3257 -0.2201 0.2976, 0.3219 -0.2235 0.3016, 0.3226 -0.2241 0.2977, 0.3181 -0.2265 0.3016, 0.3185 -0.2272 0.2976, 0.3185 -0.2272 0.2976, 0.3136 -0.2283 0.3016, 0.3138 -0.2292 0.2974, 0.3138 -0.2292 0.2974, 0.322 -0.2103 0.3098, 0.3181 -0.2103 0.3126, 0.3181 -0.2103 0.3126, 0.3136 -0.2103 0.3144, 0.3169 -0.215 0.3126, 0.3154 -0.217 0.3126, 0.3134 -0.2184 0.3126, 0.3112 -0.2194 0.3126, 0.3203 -0.217 0.3097, 0.3182 -0.2198 0.3097, 0.3154 -0.2219 0.3097, 0.3122 -0.2232 0.3097, 0.3273 -0.2103 0.3017, 0.3252 -0.2103 0.306, 0.3247 -0.2146 0.306, 0.323 -0.2186 0.306, 0.3204 -0.222 0.306, 0.317 -0.2246 0.306, 0.313 -0.2263 0.306, 0.3274 -0.2103 0.3016, -0.3122 -0.2232 0.3097, -0.3112 -0.2194 0.3126, -0.31 -0.215 0.3144, -0.3112 -0.2145 0.3144, -0.3129 -0.2127 0.3144, -0.3122 -0.2137 0.3144, -0.3134 -0.2116 0.3144, -0.3136 -0.2283 0.3016, -0.3138 -0.2292 0.2974, -0.3138 -0.2292 0.2974, -0.3185 -0.2272 0.2976, -0.3181 -0.2265 0.3016, -0.3185 -0.2272 0.2976, -0.3219 -0.2235 0.3016, -0.3226 -0.2241 0.2977, -0.3249 -0.2196 0.3016, -0.3257 -0.2201 0.2976, -0.3257 -0.2201 0.2976, -0.3267 -0.2151 0.3016, -0.3276 -0.2154 0.2974, -0.3276 -0.2154 0.2974, -0.3274 -0.2103 0.3016, -0.3136 -0.2103 0.3144, -0.3134 -0.2184 0.3126, -0.3154 -0.217 0.3126, -0.3169 -0.215 0.3126, -0.3178 -0.2127 0.3126, -0.3136 -0.2103 0.3144, -0.3181 -0.2103 0.3126, -0.3181 -0.2103 0.3126, -0.322 -0.2103 0.3098, -0.3154 -0.2219 0.3097, -0.3182 -0.2198 0.3097, -0.3203 -0.217 0.3097, -0.3216 -0.2138 0.3097, -0.313 -0.2263 0.306, -0.317 -0.2246 0.306, -0.3204 -0.222 0.306, -0.323 -0.2186 0.306, -0.3247 -0.2146 0.306, -0.3221 -0.2103 0.3097, -0.3252 -0.2103 0.3061, -0.3252 -0.2103 0.306, -0.3273 -0.2103 0.3017, 0.3379 -0.2533 0.0218, 0.3379 -0.2533 0.0218, 0.3426 -0.2514 0.022, 0.3426 -0.2513 0.022, 0.3467 -0.2482 0.0221, 0.3498 -0.2442 0.022, 0.3498 -0.2442 0.022, 0.3518 -0.2395 0.0218, 0.3518 -0.2395 0.0218, 0.3274 0.2103 0.3016, 0.3273 0.2103 0.3017, 0.3252 0.2103 0.306, 0.3252 0.2103 0.3061, 0.3221 0.2103 0.3097, 0.322 0.2103 0.3098, 0.3181 0.2103 0.3126, 0.3181 0.2103 0.3126, 0.3136 0.2103 0.3144, 0.3136 0.2103 0.3144, -0.3087 0.2151 0.3144, -0.2728 0.2142 0.3146, -0.2271 0.2142 0.3146, 0.3087 0.2151 0.3144, 0.3087 0.229 0.3016, -0.3087 0.229 0.3016, 0.3087 0.2289 0.3017, -0.3087 0.2289 0.3017, 0.3087 0.2268 0.306, -0.3087 0.2268 0.306, 0.3087 0.2267 0.3061, -0.3087 0.2267 0.3061, 0.3087 0.2237 0.3097, -0.3087 0.2237 0.3097, 0.3087 0.2236 0.3098, -0.3087 0.2236 0.3098, 0.3087 0.2197 0.3126, -0.3087 0.2197 0.3126, 0.3087 0.2197 0.3126, -0.3087 0.2197 0.3126, 0.3087 0.2152 0.3144, -0.3087 0.2152 0.3144, -0.3274 0.2103 0.3016, -0.3273 0.2103 0.3017, -0.3252 0.2103 0.306, -0.3252 0.2103 0.3061, -0.3221 0.2103 0.3097, -0.322 0.2103 0.3098, -0.3181 0.2103 0.3126, -0.3181 0.2103 0.3126, -0.3136 0.2103 0.3144, -0.3136 0.2103 0.3144, -0.3518 -0.2395 0.0218, -0.3518 -0.2395 0.0218, -0.3498 -0.2442 0.022, -0.3498 -0.2442 0.022, -0.3467 -0.2482 0.0221, -0.3426 -0.2513 0.022, -0.3426 -0.2514 0.022, -0.3379 -0.2533 0.0218, -0.3379 -0.2533 0.0218, 0.3328 -0.239 0.0006, -0.3328 -0.239 0.0006, -0.3328 -0.2392 0.0006, 0.3328 -0.2392 0.0006, -0.3328 -0.2434 0.0022, 0.3328 -0.2434 0.0022, -0.3328 -0.2436 0.0023, 0.3328 -0.2436 0.0023, -0.3328 -0.2472 0.0048, 0.3328 -0.2472 0.0048, -0.3328 -0.2476 0.005, 0.3328 -0.2476 0.005, -0.3328 -0.2504 0.0082, 0.3328 -0.2504 0.0082, -0.3328 -0.2507 0.0086, 0.3328 -0.2507 0.0086, -0.3328 -0.2526 0.0123, 0.3328 -0.2526 0.0123, -0.3328 -0.2529 0.0129, 0.3328 -0.2529 0.0129, -0.3328 -0.2538 0.0168, 0.3328 -0.2538 0.0168, -0.3328 -0.254 0.0175, 0.3328 -0.254 0.0175, 0.3341 -0.239 0.0006, 0.3417 -0.2368 0.0023, 0.3455 -0.2378 0.005, 0.3486 -0.2386 0.0086, 0.3507 -0.2392 0.0129, 0.3517 -0.2395 0.0175, 0.3498 -0.2442 0.0175, 0.3379 -0.2533 0.0175, 0.3376 -0.2523 0.0129, 0.3488 -0.2437 0.0129, 0.3467 -0.2483 0.0175, 0.3371 -0.2501 0.0086, 0.3469 -0.2426 0.0086, 0.3459 -0.2475 0.0129, 0.3362 -0.2471 0.005, 0.3442 -0.241 0.005, 0.3444 -0.2459 0.0086, 0.3352 -0.2433 0.0023, 0.3421 -0.2437 0.005, 0.3408 -0.239 0.0023, 0.3374 -0.2357 0.0006, 0.3426 -0.2514 0.0175, 0.3421 -0.2504 0.0129, 0.341 -0.2485 0.0086, 0.3394 -0.2458 0.005, 0.3375 -0.2424 0.0023, 0.3352 -0.2385 0.0006, 0.3394 -0.2409 0.0023, 0.337 -0.2368 0.0006, 0.3362 -0.2378 0.0006, 0.3122 0.2232 0.3097, 0.3112 0.2194 0.3126, 0.31 0.215 0.3144, 0.3112 0.2145 0.3144, 0.3129 0.2127 0.3144, 0.3122 0.2137 0.3144, 0.3134 0.2116 0.3144, 0.3136 0.2283 0.3016, 0.3138 0.2292 0.2974, 0.3138 0.2292 0.2974, 0.3185 0.2272 0.2976, 0.3181 0.2265 0.3016, 0.3185 0.2272 0.2976, 0.3219 0.2235 0.3016, 0.3226 0.2241 0.2977, 0.3249 0.2196 0.3016, 0.3257 0.2201 0.2976, 0.3257 0.2201 0.2976, 0.3267 0.2151 0.3016, 0.3276 0.2154 0.2974, 0.3276 0.2154 0.2974, 0.3134 0.2184 0.3126, 0.3154 0.217 0.3126, 0.3169 0.215 0.3126, 0.3178 0.2127 0.3126, 0.3154 0.2219 0.3097, 0.3182 0.2198 0.3097, 0.3203 0.217 0.3097, 0.3216 0.2138 0.3097, 0.313 0.2263 0.306, 0.317 0.2246 0.306, 0.3204 0.222 0.306, 0.323 0.2186 0.306, 0.3247 0.2146 0.306, -0.3216 0.2138 0.3097, -0.3178 0.2127 0.3126, -0.3134 0.2116 0.3144, -0.3129 0.2127 0.3144, -0.3112 0.2145 0.3144, -0.3122 0.2137 0.3144, -0.31 0.215 0.3144, -0.3267 0.2151 0.3016, -0.3276 0.2154 0.2974, -0.3276 0.2154 0.2974, -0.3257 0.2201 0.2976, -0.3249 0.2196 0.3016, -0.3257 0.2201 0.2976, -0.3219 0.2235 0.3016, -0.3226 0.2241 0.2977, -0.3181 0.2265 0.3016, -0.3185 0.2272 0.2976, -0.3185 0.2272 0.2976, -0.3136 0.2283 0.3016, -0.3138 0.2292 0.2974, -0.3138 0.2292 0.2974, -0.3169 0.215 0.3126, -0.3154 0.217 0.3126, -0.3134 0.2184 0.3126, -0.3112 0.2194 0.3126, -0.3203 0.217 0.3097, -0.3182 0.2198 0.3097, -0.3154 0.2219 0.3097, -0.3122 0.2232 0.3097, -0.3247 0.2146 0.306, -0.323 0.2186 0.306, -0.3204 0.222 0.306, -0.317 0.2246 0.306, -0.313 0.2263 0.306, -0.3375 -0.2344 0.0006, -0.3374 -0.2357 0.0006, -0.3352 -0.2433 0.0023, -0.3362 -0.2471 0.005, -0.3371 -0.2501 0.0086, -0.3376 -0.2523 0.0129, -0.3379 -0.2533 0.0175, -0.3426 -0.2514 0.0175, -0.3524 -0.2344 0.0175, -0.3517 -0.2395 0.0175, -0.3522 -0.2344 0.0168, -0.3507 -0.2392 0.0129, -0.3421 -0.2504 0.0129, -0.3467 -0.2483 0.0175, -0.3513 -0.2344 0.0129, -0.351 -0.2344 0.0123, -0.3486 -0.2386 0.0086, -0.341 -0.2485 0.0086, -0.3459 -0.2475 0.0129, -0.3491 -0.2344 0.0086, -0.3488 -0.2344 0.0082, -0.3455 -0.2378 0.005, -0.3394 -0.2458 0.005, -0.3444 -0.2459 0.0086, -0.346 -0.2344 0.005, -0.3457 -0.2344 0.0048, -0.3417 -0.2368 0.0023, -0.3421 -0.2437 0.005, -0.3375 -0.2424 0.0023, -0.3341 -0.239 0.0006, -0.3498 -0.2442 0.0175, -0.3488 -0.2437 0.0129, -0.3469 -0.2426 0.0086, -0.3442 -0.241 0.005, -0.3408 -0.239 0.0023, -0.337 -0.2368 0.0006, -0.3394 -0.2409 0.0023, -0.3352 -0.2385 0.0006, -0.3362 -0.2378 0.0006, -0.3421 -0.2344 0.0023, -0.3418 -0.2344 0.0022, -0.3376 -0.2344 0.0006, 0.3518 0.2395 0.0218, 0.3518 0.2395 0.0218, 0.3498 0.2442 0.022, 0.3498 0.2442 0.022, 0.3467 0.2482 0.0221, 0.3426 0.2513 0.022, 0.3426 0.2514 0.022, 0.3379 0.2533 0.0218, 0.3379 0.2533 0.0218, -0.3379 0.2533 0.0218, -0.3379 0.2533 0.0218, -0.3426 0.2514 0.022, -0.3426 0.2513 0.022, -0.3467 0.2482 0.0221, -0.3498 0.2442 0.022, -0.3498 0.2442 0.022, -0.3518 0.2395 0.0218, -0.3518 0.2395 0.0218, -0.3523 -0.0591 0.0168, -0.3511 -0.0591 0.0123, -0.3488 -0.0591 0.0082, -0.3457 -0.0591 0.0048, -0.3418 -0.0591 0.0022, -0.3375 -0.0591 0.0005, 0.3374 0.2357 0.0006, 0.3328 0.2434 0.0022, 0.3328 0.2436 0.0023, 0.3352 0.2433 0.0023, 0.3328 0.2472 0.0048, 0.3328 0.2476 0.005, 0.3362 0.2471 0.005, 0.3328 0.2504 0.0082, 0.3328 0.2507 0.0086, 0.3371 0.2501 0.0086, 0.3376 0.2523 0.0129, 0.3379 0.2533 0.0175, 0.3426 0.2514 0.0175, 0.3517 0.2395 0.0175, 0.3328 0.254 0.0175, 0.3328 0.2538 0.0168, 0.3328 0.2529 0.0129, 0.3328 0.2526 0.0123, 0.3507 0.2392 0.0129, 0.3421 0.2504 0.0129, 0.3467 0.2483 0.0175, 0.3486 0.2386 0.0086, 0.341 0.2485 0.0086, 0.3459 0.2475 0.0129, 0.3455 0.2378 0.005, 0.3394 0.2458 0.005, 0.3444 0.2459 0.0086, 0.3417 0.2368 0.0023, 0.3421 0.2437 0.005, 0.3375 0.2424 0.0023, 0.3341 0.239 0.0006, 0.3498 0.2442 0.0175, 0.3488 0.2437 0.0129, 0.3469 0.2426 0.0086, 0.3442 0.241 0.005, 0.3408 0.239 0.0023, 0.337 0.2368 0.0006, 0.3328 0.239 0.0006, 0.3328 0.2392 0.0006, 0.3394 0.2409 0.0023, 0.3352 0.2385 0.0006, 0.3362 0.2378 0.0006, -0.3328 0.239 0.0006, -0.3341 0.239 0.0006, -0.3417 0.2368 0.0023, -0.3455 0.2378 0.005, -0.3486 0.2386 0.0086, -0.3507 0.2392 0.0129, -0.3517 0.2395 0.0175, -0.3498 0.2442 0.0175, -0.3328 0.254 0.0175, -0.3379 0.2533 0.0175, -0.3328 0.2538 0.0168, -0.3376 0.2523 0.0129, -0.3488 0.2437 0.0129, -0.3467 0.2483 0.0175, -0.3328 0.2529 0.0129, -0.3328 0.2526 0.0123, -0.3371 0.2501 0.0086, -0.3469 0.2426 0.0086, -0.3459 0.2475 0.0129, -0.3328 0.2507 0.0086, -0.3328 0.2504 0.0082, -0.3362 0.2471 0.005, -0.3442 0.241 0.005, -0.3444 0.2459 0.0086, -0.3328 0.2476 0.005, -0.3328 0.2472 0.0048, -0.3352 0.2433 0.0023, -0.3421 0.2437 0.005, -0.3408 0.239 0.0023, -0.3374 0.2357 0.0006, -0.3426 0.2514 0.0175, -0.3421 0.2504 0.0129, -0.341 0.2485 0.0086, -0.3394 0.2458 0.005, -0.3375 0.2424 0.0023, -0.3352 0.2385 0.0006, -0.3394 0.2409 0.0023, -0.337 0.2368 0.0006, -0.3362 0.2378 0.0006, -0.3328 0.2436 0.0023, -0.3328 0.2434 0.0022, -0.3328 0.2392 0.0006, -0.3328 0.2392 0.0006
            ]
        }
        coordIndex [
            0,1,2,-1,3,4,5,-1,6,7,8,-1,8,7,9,-1,8,9,10,-1,11,12,13,-1,13,12,14,-1,13,14,15,-1,16,17,11,-1,11,17,18,-1,19,15,20,-1,20,15,21,-1,8,13,6,-1,6,13,15,-1,6,15,22,-1,22,15,19,-1,23,24,25,-1,25,24,26,-1,27,28,29,-1,29,28,12,-1,30,10,31,-1,31,10,32,-1,31,32,33,-1,21,34,11,-1,11,34,25,-1,11,25,12,-1,12,25,26,-1,12,26,29,-1,35,36,37,-1,37,36,38,-1,37,38,39,-1,40,41,37,-1,37,41,42,-1,43,44,45,-1,45,44,46,-1,42,47,37,-1,37,47,46,-1,37,46,48,-1,48,46,44,-1,49,50,51,-1,39,52,37,-1,37,52,53,-1,37,53,40,-1,50,54,51,-1,51,54,11,-1,51,11,55,-1,55,11,18,-1,55,18,30,-1,30,18,56,-1,30,56,10,-1,10,56,3,-1,10,3,8,-1,8,3,5,-1,33,57,31,-1,31,57,58,-1,31,58,59,-1,59,58,60,-1,59,60,61,-1,60,62,61,-1,61,62,63,-1,61,63,51,-1,51,63,64,-1,51,64,49,-1,54,65,11,-1,11,65,66,-1,11,66,67,-1,67,68,11,-1,11,68,69,-1,11,69,21,-1,21,69,70,-1,21,70,20,-1,20,70,71,-1,20,71,37,-1,37,71,72,-1,37,72,35,-1,73,74,75,-1,75,76,73,-1,73,76,77,-1,73,77,78,-1,11,79,80,-1,81,82,80,-1,80,82,0,-1,80,0,11,-1,11,0,2,-1,83,84,13,-1,13,84,85,-1,13,85,11,-1,11,85,86,-1,87,88,79,-1,79,88,89,-1,78,83,73,-1,73,83,13,-1,73,13,90,-1,90,13,91,-1,90,91,92,-1,92,91,93,-1,86,94,11,-1,11,94,95,-1,11,95,79,-1,79,95,96,-1,79,96,87,-1,89,97,79,-1,79,97,98,-1,79,98,73,-1,73,98,99,-1,73,99,74,-1,81,91,82,-1,82,91,13,-1,82,13,100,-1,100,13,8,-1,100,8,101,-1,101,8,102,-1,103,104,105,-1,105,104,106,-1,105,106,107,-1,107,106,108,-1,107,108,109,-1,109,108,110,-1,110,111,109,-1,109,111,112,-1,111,113,112,-1,112,113,114,-1,112,114,115,-1,114,116,115,-1,115,116,117,-1,115,117,118,-1,117,119,118,-1,118,119,120,-1,118,120,121,-1,120,122,121,-1,121,122,123,-1,121,123,124,-1,123,125,124,-1,124,125,126,-1,124,126,127,-1,126,128,127,-1,127,128,5,-1,127,5,4,-1,129,130,131,-1,131,132,129,-1,129,132,133,-1,129,133,103,-1,103,133,134,-1,103,134,104,-1,135,136,137,-1,137,138,135,-1,135,138,139,-1,135,139,130,-1,130,139,140,-1,130,140,131,-1,141,142,143,-1,143,142,144,-1,143,144,136,-1,136,144,145,-1,136,145,137,-1,143,146,141,-1,141,146,17,-1,141,17,16,-1,147,148,149,-1,149,148,150,-1,148,151,150,-1,150,151,152,-1,150,152,153,-1,152,154,153,-1,153,154,155,-1,153,155,156,-1,155,157,156,-1,156,157,158,-1,156,158,159,-1,158,160,159,-1,159,160,161,-1,159,161,162,-1,161,163,162,-1,162,163,164,-1,162,164,165,-1,164,166,165,-1,165,166,2,-1,165,2,1,-1,167,168,169,-1,169,168,170,-1,171,172,173,-1,173,172,174,-1,175,176,177,-1,177,176,178,-1,177,178,179,-1,179,178,180,-1,179,180,149,-1,149,180,147,-1,181,182,183,-1,183,182,184,-1,185,186,187,-1,187,186,188,-1,189,167,169,-1,188,186,190,-1,190,186,191,-1,190,191,192,-1,182,181,193,-1,193,181,194,-1,193,194,195,-1,195,194,196,-1,195,196,197,-1,197,196,198,-1,197,198,199,-1,199,198,200,-1,199,200,201,-1,201,200,202,-1,201,202,203,-1,203,202,204,-1,203,204,205,-1,205,204,206,-1,205,206,207,-1,207,206,208,-1,207,208,209,-1,209,208,210,-1,209,210,191,-1,191,210,189,-1,191,189,192,-1,192,189,169,-1,211,212,213,-1,214,215,216,-1,167,217,218,-1,219,217,167,-1,216,215,167,-1,220,167,215,-1,221,222,223,-1,222,221,224,-1,224,221,225,-1,224,225,226,-1,226,225,227,-1,226,227,228,-1,228,227,229,-1,228,229,230,-1,230,229,231,-1,231,229,232,-1,231,232,233,-1,233,232,234,-1,234,232,194,-1,234,194,181,-1,189,219,167,-1,235,236,214,-1,214,236,237,-1,214,237,215,-1,215,237,238,-1,215,238,220,-1,239,218,240,-1,240,218,217,-1,240,217,241,-1,241,217,219,-1,241,219,242,-1,189,210,219,-1,219,210,208,-1,219,208,242,-1,242,208,206,-1,242,206,204,-1,213,239,243,-1,243,239,240,-1,243,240,244,-1,244,240,241,-1,244,241,245,-1,245,241,242,-1,245,242,246,-1,246,242,204,-1,247,248,249,-1,249,248,211,-1,211,213,249,-1,249,213,243,-1,249,243,250,-1,250,243,244,-1,250,244,251,-1,251,244,245,-1,251,245,252,-1,252,245,246,-1,252,246,253,-1,212,235,213,-1,213,235,214,-1,213,214,239,-1,239,214,216,-1,239,216,218,-1,218,216,167,-1,247,221,254,-1,254,221,223,-1,254,223,108,-1,204,202,246,-1,246,202,200,-1,246,200,253,-1,253,200,198,-1,253,198,196,-1,247,249,221,-1,221,249,250,-1,221,250,225,-1,225,250,251,-1,225,251,227,-1,227,251,252,-1,227,252,229,-1,229,252,253,-1,229,253,232,-1,232,253,196,-1,232,196,194,-1,199,201,255,-1,256,257,258,-1,186,259,260,-1,261,259,186,-1,258,257,186,-1,191,186,257,-1,262,263,264,-1,263,262,265,-1,265,262,266,-1,265,266,267,-1,267,266,268,-1,267,268,269,-1,269,268,270,-1,269,270,271,-1,271,270,272,-1,272,270,273,-1,272,273,274,-1,274,273,275,-1,275,273,276,-1,275,276,178,-1,277,261,186,-1,203,205,256,-1,256,205,207,-1,256,207,257,-1,257,207,209,-1,257,209,191,-1,278,260,279,-1,279,260,259,-1,279,259,280,-1,280,259,261,-1,280,261,281,-1,277,282,261,-1,261,282,283,-1,261,283,281,-1,281,283,284,-1,281,284,285,-1,255,278,286,-1,286,278,279,-1,286,279,287,-1,287,279,280,-1,287,280,288,-1,288,280,281,-1,288,281,289,-1,289,281,285,-1,195,197,290,-1,290,197,199,-1,199,255,290,-1,290,255,286,-1,290,286,291,-1,291,286,287,-1,291,287,292,-1,292,287,288,-1,292,288,293,-1,293,288,289,-1,293,289,294,-1,201,203,255,-1,255,203,256,-1,255,256,278,-1,278,256,258,-1,278,258,260,-1,260,258,186,-1,195,262,193,-1,193,262,264,-1,193,264,182,-1,285,295,289,-1,289,295,296,-1,289,296,294,-1,294,296,297,-1,294,297,298,-1,195,290,262,-1,262,290,291,-1,262,291,266,-1,266,291,292,-1,266,292,268,-1,268,292,293,-1,268,293,270,-1,270,293,294,-1,270,294,273,-1,273,294,298,-1,273,298,276,-1,183,299,181,-1,181,299,234,-1,234,299,233,-1,233,299,300,-1,233,300,231,-1,231,300,301,-1,231,301,230,-1,230,301,302,-1,230,302,228,-1,228,302,303,-1,228,303,226,-1,226,303,304,-1,226,304,224,-1,224,304,305,-1,224,305,222,-1,222,305,306,-1,222,306,223,-1,306,307,223,-1,223,307,110,-1,223,110,108,-1,108,106,254,-1,254,106,308,-1,254,308,247,-1,247,308,309,-1,247,309,248,-1,248,309,310,-1,248,310,211,-1,211,310,311,-1,211,311,212,-1,212,311,312,-1,212,312,235,-1,235,312,313,-1,235,313,236,-1,236,313,314,-1,236,314,237,-1,237,314,315,-1,237,315,238,-1,238,315,316,-1,238,316,220,-1,316,317,220,-1,220,317,168,-1,220,168,167,-1,185,187,318,-1,318,187,319,-1,170,168,320,-1,320,168,321,-1,173,174,322,-1,322,174,323,-1,322,323,324,-1,324,323,325,-1,324,325,326,-1,326,325,327,-1,326,327,328,-1,328,327,329,-1,328,329,330,-1,330,329,331,-1,330,331,332,-1,332,331,333,-1,332,333,334,-1,334,333,335,-1,334,335,336,-1,336,335,337,-1,336,337,338,-1,338,337,339,-1,338,339,321,-1,321,339,318,-1,321,318,320,-1,320,318,319,-1,180,178,340,-1,340,178,276,-1,340,276,341,-1,341,276,298,-1,341,298,342,-1,342,298,297,-1,342,297,343,-1,343,297,296,-1,343,296,344,-1,344,296,295,-1,344,295,345,-1,345,295,285,-1,345,285,346,-1,346,285,284,-1,346,284,347,-1,347,284,283,-1,347,283,348,-1,348,283,282,-1,348,282,349,-1,282,277,349,-1,349,277,186,-1,349,186,185,-1,176,350,178,-1,178,350,275,-1,275,350,274,-1,274,350,351,-1,274,351,272,-1,272,351,352,-1,272,352,271,-1,271,352,353,-1,271,353,269,-1,269,353,354,-1,269,354,267,-1,267,354,355,-1,267,355,265,-1,265,355,356,-1,265,356,263,-1,263,356,357,-1,263,357,264,-1,357,358,264,-1,264,358,184,-1,264,184,182,-1,8,5,359,-1,102,8,360,-1,360,8,359,-1,360,359,361,-1,361,359,362,-1,361,362,363,-1,363,362,364,-1,363,364,365,-1,365,364,366,-1,365,366,367,-1,367,366,368,-1,367,368,369,-1,369,368,370,-1,369,370,371,-1,371,370,372,-1,371,372,373,-1,373,372,374,-1,373,374,375,-1,375,374,376,-1,375,376,377,-1,377,376,378,-1,377,378,379,-1,379,378,380,-1,379,380,381,-1,381,380,382,-1,381,382,184,-1,184,382,183,-1,359,5,383,-1,125,123,384,-1,122,120,385,-1,119,117,386,-1,387,388,389,-1,299,183,382,-1,301,300,390,-1,390,300,299,-1,307,306,388,-1,388,306,305,-1,388,305,389,-1,389,305,304,-1,389,304,303,-1,110,307,111,-1,111,307,388,-1,111,388,113,-1,113,388,387,-1,113,387,114,-1,114,387,116,-1,299,382,390,-1,390,382,380,-1,390,380,391,-1,117,116,386,-1,386,116,387,-1,386,387,392,-1,392,387,389,-1,392,389,393,-1,393,389,303,-1,380,378,391,-1,391,378,376,-1,391,376,394,-1,120,119,385,-1,385,119,386,-1,385,386,395,-1,395,386,392,-1,395,392,396,-1,396,392,393,-1,376,374,394,-1,394,374,372,-1,394,372,397,-1,123,122,384,-1,384,122,385,-1,384,385,398,-1,398,385,395,-1,398,395,399,-1,399,395,396,-1,372,370,397,-1,397,370,368,-1,397,368,400,-1,399,401,398,-1,398,401,402,-1,398,402,384,-1,384,402,403,-1,384,403,125,-1,302,301,404,-1,404,301,390,-1,404,390,405,-1,405,390,391,-1,405,391,406,-1,406,391,394,-1,406,394,407,-1,407,394,397,-1,407,397,408,-1,408,397,400,-1,408,400,409,-1,409,400,383,-1,409,383,5,-1,5,128,403,-1,403,128,126,-1,403,126,125,-1,401,410,402,-1,402,410,411,-1,402,411,403,-1,403,411,5,-1,410,412,411,-1,411,412,5,-1,368,366,400,-1,400,366,364,-1,400,364,383,-1,383,364,362,-1,383,362,359,-1,303,302,393,-1,393,302,404,-1,393,404,396,-1,396,404,405,-1,396,405,399,-1,399,405,406,-1,399,406,401,-1,401,406,407,-1,401,407,410,-1,410,407,408,-1,410,408,412,-1,412,408,409,-1,412,409,5,-1,328,330,413,-1,414,415,416,-1,168,417,418,-1,419,417,168,-1,416,415,168,-1,321,168,415,-1,420,421,422,-1,421,420,423,-1,423,420,424,-1,423,424,425,-1,425,424,426,-1,425,426,427,-1,427,426,428,-1,427,428,429,-1,429,428,430,-1,430,428,431,-1,430,431,432,-1,432,431,433,-1,433,431,308,-1,433,308,106,-1,317,419,168,-1,332,334,414,-1,414,334,336,-1,414,336,415,-1,415,336,338,-1,415,338,321,-1,434,418,435,-1,435,418,417,-1,435,417,436,-1,436,417,419,-1,436,419,437,-1,317,316,419,-1,419,316,315,-1,419,315,437,-1,437,315,314,-1,437,314,313,-1,413,434,438,-1,438,434,435,-1,438,435,439,-1,439,435,436,-1,439,436,440,-1,440,436,437,-1,440,437,441,-1,441,437,313,-1,324,326,442,-1,442,326,328,-1,328,413,442,-1,442,413,438,-1,442,438,443,-1,443,438,439,-1,443,439,444,-1,444,439,440,-1,444,440,445,-1,445,440,441,-1,445,441,446,-1,330,332,413,-1,413,332,414,-1,413,414,434,-1,434,414,416,-1,434,416,418,-1,418,416,168,-1,324,420,322,-1,322,420,422,-1,322,422,173,-1,313,312,441,-1,441,312,311,-1,441,311,446,-1,446,311,310,-1,446,310,309,-1,324,442,420,-1,420,442,443,-1,420,443,424,-1,424,443,444,-1,424,444,426,-1,426,444,445,-1,426,445,428,-1,428,445,446,-1,428,446,431,-1,431,446,309,-1,431,309,308,-1,343,344,447,-1,448,449,450,-1,185,451,452,-1,453,451,185,-1,450,449,185,-1,349,185,449,-1,454,455,456,-1,455,454,457,-1,457,454,458,-1,457,458,459,-1,459,458,460,-1,459,460,461,-1,461,460,462,-1,461,462,463,-1,463,462,464,-1,464,462,465,-1,464,465,466,-1,466,465,467,-1,467,465,323,-1,467,323,174,-1,318,453,185,-1,345,346,448,-1,448,346,347,-1,448,347,449,-1,449,347,348,-1,449,348,349,-1,468,452,469,-1,469,452,451,-1,469,451,470,-1,470,451,453,-1,470,453,471,-1,318,339,453,-1,453,339,337,-1,453,337,471,-1,471,337,335,-1,471,335,333,-1,447,468,472,-1,472,468,469,-1,472,469,473,-1,473,469,470,-1,473,470,474,-1,474,470,471,-1,474,471,475,-1,475,471,333,-1,341,342,476,-1,476,342,343,-1,343,447,476,-1,476,447,472,-1,476,472,477,-1,477,472,473,-1,477,473,478,-1,478,473,474,-1,478,474,479,-1,479,474,475,-1,479,475,480,-1,344,345,447,-1,447,345,448,-1,447,448,468,-1,468,448,450,-1,468,450,452,-1,452,450,185,-1,341,454,340,-1,340,454,456,-1,340,456,180,-1,333,331,475,-1,475,331,329,-1,475,329,480,-1,480,329,327,-1,480,327,325,-1,341,476,454,-1,454,476,477,-1,454,477,458,-1,458,477,478,-1,458,478,460,-1,460,478,479,-1,460,479,462,-1,462,479,480,-1,462,480,465,-1,465,480,325,-1,465,325,323,-1,481,102,482,-1,363,365,483,-1,367,369,484,-1,371,373,485,-1,486,487,488,-1,350,176,489,-1,352,351,490,-1,490,351,350,-1,358,357,487,-1,487,357,356,-1,487,356,488,-1,488,356,355,-1,488,355,354,-1,184,358,381,-1,381,358,487,-1,381,487,379,-1,379,487,486,-1,379,486,377,-1,377,486,375,-1,350,489,490,-1,490,489,491,-1,490,491,492,-1,373,375,485,-1,485,375,486,-1,485,486,493,-1,493,486,488,-1,493,488,494,-1,494,488,354,-1,491,495,492,-1,492,495,496,-1,492,496,497,-1,369,371,484,-1,484,371,485,-1,484,485,498,-1,498,485,493,-1,498,493,499,-1,499,493,494,-1,496,500,497,-1,497,500,501,-1,497,501,502,-1,365,367,483,-1,483,367,484,-1,483,484,503,-1,503,484,498,-1,503,498,504,-1,504,498,499,-1,501,505,502,-1,502,505,506,-1,502,506,507,-1,504,508,503,-1,503,508,509,-1,503,509,483,-1,483,509,510,-1,483,510,363,-1,353,352,511,-1,511,352,490,-1,511,490,512,-1,512,490,492,-1,512,492,513,-1,513,492,497,-1,513,497,514,-1,514,497,502,-1,514,502,515,-1,515,502,507,-1,515,507,516,-1,516,507,482,-1,516,482,102,-1,102,360,510,-1,510,360,361,-1,510,361,363,-1,508,517,509,-1,509,517,518,-1,509,518,510,-1,510,518,102,-1,517,519,518,-1,518,519,102,-1,506,520,507,-1,507,520,521,-1,507,521,482,-1,482,521,522,-1,482,522,481,-1,354,353,494,-1,494,353,511,-1,494,511,499,-1,499,511,512,-1,499,512,504,-1,504,512,513,-1,504,513,508,-1,508,513,514,-1,508,514,517,-1,517,514,515,-1,517,515,519,-1,519,515,516,-1,519,516,102,-1,104,523,106,-1,106,523,433,-1,433,523,432,-1,432,523,524,-1,432,524,430,-1,430,524,525,-1,430,525,429,-1,429,525,526,-1,429,526,427,-1,427,526,527,-1,427,527,425,-1,425,527,528,-1,425,528,423,-1,423,528,529,-1,423,529,421,-1,421,529,530,-1,421,530,422,-1,530,531,422,-1,422,531,171,-1,422,171,173,-1,172,532,174,-1,174,532,467,-1,467,532,466,-1,466,532,533,-1,466,533,464,-1,464,533,534,-1,464,534,463,-1,463,534,535,-1,463,535,461,-1,461,535,536,-1,461,536,459,-1,459,536,537,-1,459,537,457,-1,457,537,538,-1,457,538,455,-1,455,538,539,-1,455,539,456,-1,539,540,456,-1,456,540,147,-1,456,147,180,-1,541,542,496,-1,496,495,541,-1,541,495,491,-1,541,491,175,-1,175,491,489,-1,175,489,176,-1,543,544,506,-1,506,505,543,-1,543,505,501,-1,543,501,542,-1,542,501,500,-1,542,500,496,-1,481,522,545,-1,545,522,521,-1,545,521,544,-1,544,521,520,-1,544,520,506,-1,545,546,481,-1,481,546,101,-1,481,101,102,-1,141,16,547,-1,548,549,550,-1,551,552,553,-1,554,555,556,-1,557,558,559,-1,523,104,134,-1,525,524,560,-1,560,524,523,-1,531,530,558,-1,558,530,529,-1,558,529,559,-1,559,529,528,-1,559,528,527,-1,171,531,561,-1,561,531,558,-1,561,558,562,-1,562,558,557,-1,562,557,563,-1,563,557,564,-1,523,134,560,-1,560,134,133,-1,560,133,565,-1,555,564,556,-1,556,564,557,-1,556,557,566,-1,566,557,559,-1,566,559,567,-1,567,559,527,-1,133,132,565,-1,565,132,131,-1,565,131,568,-1,552,554,553,-1,553,554,556,-1,553,556,569,-1,569,556,566,-1,569,566,570,-1,570,566,567,-1,131,140,568,-1,568,140,139,-1,568,139,571,-1,549,551,550,-1,550,551,553,-1,550,553,572,-1,572,553,569,-1,572,569,573,-1,573,569,570,-1,139,138,571,-1,571,138,137,-1,571,137,574,-1,573,575,572,-1,572,575,576,-1,572,576,550,-1,550,576,577,-1,550,577,548,-1,526,525,578,-1,578,525,560,-1,578,560,579,-1,579,560,565,-1,579,565,580,-1,580,565,568,-1,580,568,581,-1,581,568,571,-1,581,571,582,-1,582,571,574,-1,582,574,583,-1,583,574,547,-1,583,547,16,-1,16,584,577,-1,577,584,585,-1,577,585,548,-1,575,586,576,-1,576,586,587,-1,576,587,577,-1,577,587,16,-1,586,588,587,-1,587,588,16,-1,137,145,574,-1,574,145,144,-1,574,144,547,-1,547,144,142,-1,547,142,141,-1,527,526,567,-1,567,526,578,-1,567,578,570,-1,570,578,579,-1,570,579,573,-1,573,579,580,-1,573,580,575,-1,575,580,581,-1,575,581,586,-1,586,581,582,-1,586,582,588,-1,588,582,583,-1,588,583,16,-1,589,2,590,-1,163,161,591,-1,160,158,592,-1,157,155,593,-1,594,595,596,-1,532,172,597,-1,534,533,598,-1,598,533,532,-1,540,539,595,-1,595,539,538,-1,595,538,596,-1,596,538,537,-1,596,537,536,-1,147,540,148,-1,148,540,595,-1,148,595,151,-1,151,595,594,-1,151,594,152,-1,152,594,154,-1,532,597,598,-1,598,597,599,-1,598,599,600,-1,155,154,593,-1,593,154,594,-1,593,594,601,-1,601,594,596,-1,601,596,602,-1,602,596,536,-1,599,603,600,-1,600,603,604,-1,600,604,605,-1,158,157,592,-1,592,157,593,-1,592,593,606,-1,606,593,601,-1,606,601,607,-1,607,601,602,-1,604,608,605,-1,605,608,609,-1,605,609,610,-1,161,160,591,-1,591,160,592,-1,591,592,611,-1,611,592,606,-1,611,606,612,-1,612,606,607,-1,609,613,610,-1,610,613,614,-1,610,614,615,-1,612,616,611,-1,611,616,617,-1,611,617,591,-1,591,617,618,-1,591,618,163,-1,535,534,619,-1,619,534,598,-1,619,598,620,-1,620,598,600,-1,620,600,621,-1,621,600,605,-1,621,605,622,-1,622,605,610,-1,622,610,623,-1,623,610,615,-1,623,615,624,-1,624,615,590,-1,624,590,2,-1,2,166,618,-1,618,166,164,-1,618,164,163,-1,616,625,617,-1,617,625,626,-1,617,626,618,-1,618,626,2,-1,625,627,626,-1,626,627,2,-1,614,628,615,-1,615,628,629,-1,615,629,590,-1,590,629,630,-1,590,630,589,-1,536,535,602,-1,602,535,619,-1,602,619,607,-1,607,619,620,-1,607,620,612,-1,612,620,621,-1,612,621,616,-1,616,621,622,-1,616,622,625,-1,625,622,623,-1,625,623,627,-1,627,623,624,-1,627,624,2,-1,11,2,589,-1,172,171,597,-1,597,171,561,-1,597,561,599,-1,599,561,562,-1,599,562,603,-1,603,562,563,-1,603,563,604,-1,604,563,564,-1,604,564,608,-1,608,564,555,-1,608,555,609,-1,609,555,554,-1,609,554,613,-1,613,554,552,-1,613,552,614,-1,614,552,551,-1,614,551,628,-1,628,551,549,-1,628,549,629,-1,629,549,548,-1,629,548,630,-1,630,548,585,-1,630,585,589,-1,589,585,584,-1,589,584,11,-1,11,584,16,-1,
        ]
    }
}
Shape{
    appearance Appearance {
        material  Material 	{
            diffuseColor 0.5019607843137255 0.5019607843137255 0.5019607843137255
            specularColor 0.25098039215686274 0.25098039215686274 0.25098039215686274
            ambientIntensity 0.2
            transparency 0
            shininess 0.5
        }
    }
    geometry IndexedFaceSet {
        ccw TRUE
        solid FALSE
        coord DEF co Coordinate {
            point [
                -0.2271 0.2103 0.315, -0.2271 0.2142 0.3146, -0.2271 -0.2103 0.315, -0.2271 -0.2142 0.3146, -0.2728 -0.2142 0.3146, -0.2728 0.2142 0.3146, -0.2728 -0.2103 0.315, -0.2728 0.2103 0.315, -0.2728 0.2103 0.315
            ]
        }
        coordIndex [
            0,1,2,-1,2,1,3,-1,4,5,6,-1,6,5,7,-1,5,4,1,-1,1,4,3,-1,
        ]
    }
}
Shape{
    appearance Appearance {
        material  Material 	{
            diffuseColor 1.0 1.0 1.0
            specularColor 0.5019607843137255 0.5019607843137255 0.5019607843137255
            ambientIntensity 0.2
            transparency 0
            shininess 0.5
        }
    }
    geometry IndexedFaceSet {
        ccw TRUE
        solid FALSE
        coord DEF co Coordinate {
            point [
                -0.3509 0.0591 0.0394, -0.4921 0.0591 0.0394, -0.3509 -0.0591 0.0394, -0.4921 -0.0591 0.0394, -0.2953 -0.0591 0.0, -0.2953 -0.0591 -0.0039, -0.2953 -0.0336 0.0, -0.2953 0.0591 -0.0039, -0.2953 0.0591 0.0, -0.4921 0.0591 -0.0039, -0.3523 0.0591 0.0168, -0.3511 0.0591 0.0123, -0.3525 0.0591 0.0214, -0.3488 0.0591 0.0082, -0.3457 0.0591 0.0048, -0.3418 0.0591 0.0022, -0.3375 0.0591 0.0005, -0.3328 0.0591 0.0, -0.3375 -0.0591 0.0005, -0.4921 -0.0591 -0.0039, -0.3328 -0.0591 0.0, -0.3418 -0.0591 0.0022, -0.3457 -0.0591 0.0048, -0.3488 -0.0591 0.0082, -0.3511 -0.0591 0.0123, -0.3523 -0.0591 0.0168, -0.3525 -0.0591 0.0214, 0.3509 -0.0591 0.0394, 0.4921 -0.0591 0.0394, 0.3509 0.0591 0.0394, 0.4921 0.0591 0.0394, 0.2953 0.0591 0.0, 0.2953 0.0591 -0.0039, 0.2953 -0.0336 0.0, 0.2953 -0.0591 -0.0039, 0.2953 -0.0591 0.0, 0.4921 -0.0591 -0.0039, 0.3523 -0.0591 0.0168, 0.3511 -0.0591 0.0123, 0.3525 -0.0591 0.0214, 0.3488 -0.0591 0.0082, 0.3457 -0.0591 0.0048, 0.3418 -0.0591 0.0022, 0.3375 -0.0591 0.0005, 0.3328 -0.0591 0.0, 0.3375 0.0591 0.0005, 0.3418 0.0591 0.0022, 0.4921 0.0591 -0.0039, 0.3457 0.0591 0.0048, 0.3488 0.0591 0.0082, 0.3328 0.0591 0.0, 0.3511 0.0591 0.0123, 0.3523 0.0591 0.0168, 0.3525 0.0591 0.0214, 0.3525 0.0591 0.0214
            ]
        }
        coordIndex [
            0,1,2,-1,2,1,3,-1,4,5,6,-1,6,5,7,-1,6,7,8,-1,9,10,11,-1,10,9,12,-1,12,9,1,-1,12,1,0,-1,11,13,9,-1,9,13,14,-1,9,14,15,-1,15,16,9,-1,9,16,17,-1,9,17,7,-1,7,17,8,-1,18,19,20,-1,20,19,5,-1,20,5,4,-1,18,21,19,-1,19,21,22,-1,19,22,23,-1,23,24,19,-1,19,24,25,-1,19,25,3,-1,3,25,26,-1,3,26,2,-1,19,3,9,-1,9,3,1,-1,19,9,5,-1,5,9,7,-1,27,28,29,-1,29,28,30,-1,31,32,33,-1,33,32,34,-1,33,34,35,-1,36,37,38,-1,37,36,39,-1,39,36,28,-1,39,28,27,-1,38,40,36,-1,36,40,41,-1,36,41,42,-1,42,43,36,-1,36,43,44,-1,36,44,34,-1,34,44,35,-1,45,46,47,-1,47,46,48,-1,47,48,49,-1,45,47,50,-1,50,47,32,-1,50,32,31,-1,49,51,47,-1,47,51,52,-1,47,52,30,-1,30,52,53,-1,30,53,29,-1,47,30,36,-1,36,30,28,-1,47,36,32,-1,32,36,34,-1,
        ]
    }
}
Shape{
    appearance Appearance {
        material  Material 	{
            diffuseColor 0.7529411764705882 0.7529411764705882 0.7529411764705882
            specularColor 0.3764705882352941 0.3764705882352941 0.3764705882352941
            ambientIntensity 0.2
            transparency 0
            shininess 0.5
        }
    }
    geometry IndexedFaceSet {
        ccw TRUE
        solid FALSE
        coord DEF co Coordinate {
            point [
                -0.1514 0.0456 0.0004, -0.1822 -0.0331 0.0004, -0.1514 0.0456 0.0, -0.1822 -0.0331 0.0, -0.1706 -0.0331 0.0004, -0.1706 -0.0331 0.0, -0.1627 -0.011 0.0004, -0.1627 -0.011 0.0, -0.1301 -0.011 0.0004, -0.1301 -0.011 0.0, -0.1226 -0.0331 0.0004, -0.1226 -0.0331 0.0, -0.1111 -0.0331 0.0004, -0.1111 -0.0331 0.0, -0.1409 0.0456 0.0004, -0.1409 0.0456 0.0, -0.1328 -0.0024 0.0004, -0.1591 -0.0024 0.0004, -0.1446 0.0305 0.0004, -0.1453 0.0332 0.0004, -0.1458 0.036 0.0004, -0.1461 0.036 0.0004, -0.1466 0.0332 0.0004, -0.1473 0.0305 0.0004, -0.1328 -0.0024 0.0, -0.1591 -0.0024 0.0, -0.1446 0.0305 0.0, -0.1453 0.0332 -0.0, -0.1458 0.036 0.0, -0.1461 0.036 0.0, -0.1466 0.0332 0.0, -0.1473 0.0305 0.0, -0.0634 -0.0331 0.0004, -0.042 -0.0331 0.0004, -0.0634 -0.0331 0.0, -0.042 -0.0331 0.0, -0.042 0.0456 0.0004, -0.042 0.0456 0.0, -0.0642 0.0456 0.0004, -0.0642 0.0456 0.0, -0.1053 0.0072 0.0004, -0.1053 0.0072 0.0, -0.1048 0.0146 0.0, -0.1048 0.0146 0.0004, -0.1027 0.0224 0.0, -0.1027 0.0224 0.0004, -0.099 0.0292 0.0, -0.099 0.0292 0.0004, -0.0935 0.0353 0.0, -0.0935 0.0353 0.0004, -0.0933 0.0354 0.0, -0.0933 0.0354 0.0004, -0.0848 0.0412 0.0, -0.0848 0.0412 0.0004, -0.0756 0.0444 0.0, -0.0756 0.0444 0.0004, -0.0731 -0.0323 0.0, -0.0731 -0.0323 0.0004, -0.0822 -0.0296 0.0, -0.0822 -0.0296 0.0004, -0.0904 -0.0248 0.0, -0.0904 -0.0248 0.0004, -0.0969 -0.0186 0.0, -0.0969 -0.0186 0.0004, -0.1014 -0.0115 0.0, -0.1014 -0.0115 0.0004, -0.1042 -0.0033 0.0, -0.1042 -0.0033 0.0004, -0.0895 0.0259 0.0004, -0.0857 0.03 0.0004, -0.08 0.0337 0.0004, -0.0735 0.036 0.0004, -0.0641 0.037 0.0004, -0.0525 0.037 0.0004, -0.0525 -0.0245 0.0004, -0.0637 -0.0245 0.0004, -0.072 -0.0237 0.0004, -0.0786 -0.0216 0.0004, -0.084 -0.0184 0.0004, -0.0884 -0.0141 0.0004, -0.0918 -0.0087 0.0004, -0.0941 -0.0013 0.0004, -0.0948 0.007 0.0004, -0.0941 0.0149 0.0004, -0.0923 0.0211 0.0004, -0.0641 0.037 0.0, -0.0525 0.037 0.0, -0.0735 0.036 -0.0, -0.08 0.0337 -0.0, -0.0857 0.03 -0.0, -0.0895 0.0259 0.0, -0.0923 0.0211 -0.0, -0.0941 0.0149 0.0, -0.0948 0.007 0.0, -0.0941 -0.0013 0.0, -0.0918 -0.0087 0.0, -0.0884 -0.0141 0.0, -0.084 -0.0184 0.0, -0.0786 -0.0216 0.0, -0.072 -0.0237 0.0, -0.0637 -0.0245 0.0, -0.0525 -0.0245 0.0, -0.0266 -0.0245 0.0004, -0.0266 -0.0331 0.0004, -0.0266 -0.0245 0.0, -0.0266 -0.0331 0.0, 0.0156 -0.0331 0.0004, 0.0156 -0.0331 0.0, 0.0156 0.0456 0.0004, 0.0156 0.0456 0.0, -0.0247 0.0456 0.0004, -0.0247 0.0456 0.0, -0.0247 0.037 0.0004, -0.0247 0.037 0.0, 0.0051 0.037 0.0004, 0.0051 0.037 0.0, 0.0051 0.0111 0.0004, 0.0051 0.0111 0.0, -0.0228 0.0111 0.0004, -0.0228 0.0111 0.0, -0.0228 0.0024 0.0004, -0.0228 0.0024 0.0, 0.0051 0.0024 0.0004, 0.0051 0.0024 0.0, 0.0051 -0.0245 0.0004, 0.0051 -0.0245 0.0, 0.031 -0.0204 0.0004, 0.031 -0.029 0.0004, 0.031 -0.0204 0.0, 0.031 -0.029 0.0, 0.0394 -0.0325 0.0004, 0.0527 -0.0341 0.0004, 0.0527 -0.0341 0.0, 0.0505 -0.034 0.0, 0.0505 -0.034 0.0004, 0.0474 -0.0336 0.0, 0.0394 -0.0325 0.0, 0.0573 -0.0336 0.0, 0.0624 -0.0331 0.0004, 0.0624 -0.0331 0.0, 0.07 -0.0304 0.0004, 0.07 -0.0304 0.0, 0.0763 -0.0264 0.0004, 0.0763 -0.0264 0.0, 0.0823 -0.0202 0.0004, 0.0823 -0.0202 0.0, 0.0865 -0.0127 0.0004, 0.0865 -0.0127 0.0, 0.0888 -0.0044 0.0004, 0.0888 -0.0044 0.0, 0.0896 0.0048 0.0004, 0.0896 0.0048 0.0, 0.0495 0.0466 0.0004, 0.0495 0.0466 0.0, 0.0574 0.0459 0.0, 0.0574 0.0459 0.0004, 0.0662 0.0434 0.0, 0.0662 0.0434 0.0004, 0.0737 0.0391 0.0, 0.0737 0.0391 0.0004, 0.0808 0.0323 0.0, 0.0808 0.0323 0.0004, 0.0854 0.0249 0.0, 0.0854 0.0249 0.0004, 0.0885 0.016 0.0, 0.0885 0.016 0.0004, 0.031 0.0435 0.0004, 0.031 0.0435 0.0, 0.0401 0.0459 0.0, 0.0401 0.0459 0.0004, 0.031 0.0329 0.0004, 0.031 0.0329 0.0, 0.0494 0.0379 0.0004, 0.0494 0.0379 0.0, 0.0399 0.0367 0.0, 0.0399 0.0367 0.0004, 0.079 0.0054 0.0004, 0.079 0.0054 0.0, 0.0786 0.0115 0.0, 0.0786 0.0115 0.0004, 0.0765 0.02 0.0, 0.0765 0.02 0.0004, 0.0733 0.026 0.0, 0.0733 0.026 0.0004, 0.0685 0.0313 0.0, 0.0685 0.0313 0.0004, 0.0631 0.0349 0.0, 0.0631 0.0349 0.0004, 0.0572 0.0371 0.0, 0.0572 0.0371 0.0004, 0.0512 -0.0254 0.0004, 0.0512 -0.0254 0.0, 0.0586 -0.0246 0.0, 0.0586 -0.0246 0.0004, 0.0643 -0.0225 0.0, 0.0643 -0.0225 0.0004, 0.0691 -0.0192 0.0, 0.0691 -0.0192 0.0004, 0.0728 -0.0153 0.0, 0.0728 -0.0153 0.0004, 0.0761 -0.0099 0.0, 0.0761 -0.0099 0.0004, 0.0782 -0.0031 0.0, 0.0782 -0.0031 0.0004, 0.0324 -0.0212 0.0, 0.0324 -0.0212 0.0004, 0.0408 -0.0243 0.0, 0.0408 -0.0243 0.0004, 0.0963 -0.0245 0.0004, 0.0963 -0.0331 0.0004, 0.0963 -0.0245 0.0, 0.0963 -0.0331 0.0, 0.1366 -0.0331 0.0004, 0.1366 -0.0331 0.0, 0.1366 0.0456 0.0004, 0.1366 0.0456 0.0, 0.1261 0.0456 0.0004, 0.1261 0.0456 0.0, 0.1261 -0.0245 0.0004, 0.1261 -0.0245 0.0, 0.1261 -0.0245 0.0
            ]
        }
        coordIndex [
            0,1,2,-1,2,1,3,-1,1,4,3,-1,3,4,5,-1,4,6,5,-1,5,6,7,-1,6,8,7,-1,7,8,9,-1,8,10,9,-1,9,10,11,-1,10,12,11,-1,11,12,13,-1,12,14,13,-1,13,14,15,-1,14,0,15,-1,15,0,2,-1,16,8,17,-1,17,8,6,-1,18,14,16,-1,16,14,12,-1,16,12,8,-1,8,12,10,-1,18,19,14,-1,14,19,20,-1,14,20,0,-1,0,20,21,-1,0,21,22,-1,22,23,0,-1,0,23,17,-1,0,17,1,-1,1,17,6,-1,1,6,4,-1,16,17,24,-1,24,17,25,-1,18,16,26,-1,26,16,24,-1,18,26,27,-1,18,27,19,-1,19,27,28,-1,19,28,20,-1,21,20,29,-1,29,20,28,-1,21,29,30,-1,21,30,22,-1,22,30,31,-1,22,31,23,-1,17,23,25,-1,25,23,31,-1,32,33,34,-1,34,33,35,-1,33,36,35,-1,35,36,37,-1,36,38,37,-1,37,38,39,-1,40,41,42,-1,40,42,43,-1,43,42,44,-1,43,44,45,-1,45,44,46,-1,45,46,47,-1,47,46,48,-1,47,48,49,-1,49,48,50,-1,49,50,51,-1,51,50,52,-1,51,52,53,-1,53,52,54,-1,53,54,55,-1,55,54,39,-1,55,39,38,-1,32,34,56,-1,32,56,57,-1,57,56,58,-1,57,58,59,-1,59,58,60,-1,59,60,61,-1,61,60,62,-1,61,62,63,-1,63,62,64,-1,63,64,65,-1,65,64,66,-1,65,66,67,-1,67,66,41,-1,67,41,40,-1,45,47,68,-1,68,47,49,-1,68,49,69,-1,69,49,51,-1,69,51,70,-1,70,51,53,-1,70,53,71,-1,71,53,55,-1,71,55,72,-1,72,55,38,-1,72,38,73,-1,73,38,36,-1,73,36,74,-1,74,36,33,-1,74,33,75,-1,75,33,32,-1,75,32,76,-1,76,32,57,-1,76,57,77,-1,77,57,59,-1,77,59,78,-1,78,59,61,-1,78,61,79,-1,79,61,63,-1,79,63,80,-1,80,63,65,-1,80,65,81,-1,81,65,67,-1,81,67,82,-1,82,67,40,-1,82,40,83,-1,83,40,43,-1,83,43,84,-1,84,43,45,-1,84,45,68,-1,72,73,85,-1,85,73,86,-1,72,85,87,-1,72,87,71,-1,71,87,88,-1,71,88,70,-1,70,88,89,-1,70,89,69,-1,69,89,90,-1,69,90,68,-1,68,90,91,-1,68,91,84,-1,84,91,92,-1,84,92,83,-1,83,92,93,-1,83,93,82,-1,82,93,94,-1,82,94,81,-1,81,94,95,-1,81,95,80,-1,80,95,96,-1,80,96,79,-1,79,96,97,-1,79,97,78,-1,78,97,98,-1,78,98,77,-1,77,98,99,-1,77,99,76,-1,76,99,100,-1,76,100,75,-1,74,75,101,-1,101,75,100,-1,73,74,86,-1,86,74,101,-1,102,103,104,-1,104,103,105,-1,103,106,105,-1,105,106,107,-1,106,108,107,-1,107,108,109,-1,108,110,109,-1,109,110,111,-1,110,112,111,-1,111,112,113,-1,112,114,113,-1,113,114,115,-1,114,116,115,-1,115,116,117,-1,116,118,117,-1,117,118,119,-1,118,120,119,-1,119,120,121,-1,120,122,121,-1,121,122,123,-1,122,124,123,-1,123,124,125,-1,124,102,125,-1,125,102,104,-1,106,103,102,-1,102,124,106,-1,106,124,122,-1,106,122,108,-1,112,110,114,-1,114,110,108,-1,114,108,116,-1,116,108,122,-1,116,122,118,-1,118,122,120,-1,126,127,128,-1,128,127,129,-1,129,127,130,-1,131,132,133,-1,131,133,134,-1,134,133,135,-1,134,135,130,-1,130,135,136,-1,130,136,129,-1,132,131,137,-1,137,131,138,-1,137,138,139,-1,139,138,140,-1,139,140,141,-1,141,140,142,-1,141,142,143,-1,143,142,144,-1,143,144,145,-1,145,144,146,-1,145,146,147,-1,147,146,148,-1,147,148,149,-1,149,148,150,-1,149,150,151,-1,152,153,154,-1,152,154,155,-1,155,154,156,-1,155,156,157,-1,157,156,158,-1,157,158,159,-1,159,158,160,-1,159,160,161,-1,161,160,162,-1,161,162,163,-1,163,162,164,-1,163,164,165,-1,165,164,151,-1,165,151,150,-1,166,167,168,-1,166,168,169,-1,169,168,153,-1,169,153,152,-1,166,170,167,-1,167,170,171,-1,172,173,174,-1,172,174,175,-1,175,174,171,-1,175,171,170,-1,176,177,178,-1,176,178,179,-1,179,178,180,-1,179,180,181,-1,181,180,182,-1,181,182,183,-1,183,182,184,-1,183,184,185,-1,185,184,186,-1,185,186,187,-1,187,186,188,-1,187,188,189,-1,189,188,173,-1,189,173,172,-1,190,191,192,-1,190,192,193,-1,193,192,194,-1,193,194,195,-1,195,194,196,-1,195,196,197,-1,197,196,198,-1,197,198,199,-1,199,198,200,-1,199,200,201,-1,201,200,202,-1,201,202,203,-1,203,202,177,-1,203,177,176,-1,126,128,204,-1,126,204,205,-1,205,204,206,-1,205,206,207,-1,207,206,191,-1,207,191,190,-1,193,131,190,-1,190,131,134,-1,190,134,207,-1,207,134,130,-1,207,130,205,-1,205,130,127,-1,205,127,126,-1,170,166,175,-1,175,166,169,-1,175,169,172,-1,172,169,152,-1,172,152,189,-1,189,152,155,-1,189,155,187,-1,187,155,157,-1,187,157,185,-1,185,157,159,-1,185,159,183,-1,183,159,161,-1,183,161,181,-1,181,161,163,-1,181,163,179,-1,179,163,165,-1,179,165,176,-1,176,165,150,-1,176,150,203,-1,203,150,148,-1,203,148,201,-1,201,148,146,-1,201,146,199,-1,199,146,144,-1,199,144,197,-1,197,144,142,-1,197,142,195,-1,195,142,140,-1,195,140,193,-1,193,140,138,-1,193,138,131,-1,208,209,210,-1,210,209,211,-1,209,212,211,-1,211,212,213,-1,212,214,213,-1,213,214,215,-1,214,216,215,-1,215,216,217,-1,216,218,217,-1,217,218,219,-1,218,208,219,-1,219,208,210,-1,216,214,218,-1,218,214,212,-1,218,212,208,-1,208,212,209,-1,
        ]
    }
}
Shape{
    appearance Appearance {
        material  Material 	{
            diffuseColor 0.25098039215686274 0.25098039215686274 0.25098039215686274
            specularColor 0.12549019607843137 0.12549019607843137 0.12549019607843137
            ambientIntensity 0.2
            transparency 0
            shininess 0.5
        }
    }
    geometry IndexedFaceSet {
        ccw TRUE
        solid FALSE
        coord DEF co Coordinate {
            point [
                -0.1328 -0.0024 0.0, -0.1591 -0.0024 0.0, -0.1446 0.0305 0.0, -0.1473 0.0305 0.0, -0.1453 0.0332 -0.0, -0.1466 0.0332 0.0, -0.1458 0.036 0.0, -0.1461 0.036 0.0, -0.0525 0.037 0.0, -0.0525 -0.0245 0.0, -0.0641 0.037 0.0, -0.0637 -0.0245 0.0, -0.072 -0.0237 0.0, -0.0948 0.007 0.0, -0.0941 0.0149 0.0, -0.0923 0.0211 -0.0, -0.0735 0.036 -0.0, -0.0786 -0.0216 0.0, -0.084 -0.0184 0.0, -0.0884 -0.0141 0.0, -0.0918 -0.0087 0.0, -0.0941 -0.0013 0.0, -0.0895 0.0259 0.0, -0.0857 0.03 -0.0, -0.08 0.0337 -0.0, -0.08 0.0337 -0.0
            ]
        }
        coordIndex [
            0,1,2,-1,2,1,3,-1,2,3,4,-1,4,3,5,-1,4,5,6,-1,6,5,7,-1,8,9,10,-1,10,9,11,-1,10,11,12,-1,13,14,10,-1,10,14,15,-1,10,15,16,-1,12,17,10,-1,10,17,18,-1,10,18,19,-1,19,20,10,-1,10,20,21,-1,10,21,13,-1,22,23,15,-1,15,23,24,-1,15,24,16,-1,
        ]
    }
}