#VRML V2.0 utf8
# 3D model generated by easyeda2kicad.py (https://github.com/uPesy/easyeda2kicad.py)

Shape{
    appearance Appearance {
        material  Material 	{
            diffuseColor 0.19607843137254902 0.19607843137254902 0.19607843137254902
            specularColor 0.09803921568627451 0.09803921568627451 0.09803921568627451
            ambientIntensity 0.2
            transparency 0
            shininess 0.5
        }
    }
    geometry IndexedFaceSet {
        ccw TRUE
        solid FALSE
        coord DEF co Coordinate {
            point [
                0.5118 -0.5846 0.1792, 0.5118 -0.5846 0.2422, 0.5118 -0.7677 0.1792, 0.5118 -0.7677 0.2422, 0.5118 0.374 0.1792, 0.5118 0.374 0.2422, 0.5118 -0.0531 0.1792, 0.5118 -0.0531 0.2422, -0.5118 -0.6102 0.2422, -0.5118 -0.6102 0.1792, -0.5118 -0.7677 0.2422, -0.5118 -0.7677 0.1792, -0.5118 0.0984 0.2422, -0.5118 0.0984 0.1792, -0.5118 -0.4528 0.2422, -0.5118 -0.4528 0.1792, -0.5118 0.4528 0.2422, -0.5118 0.4528 0.1792, -0.5118 0.2559 0.2422, -0.5118 0.2559 0.1792, -0.0134 0.0634 0.0, 0.0239 0.0634 0.0, 0.0239 0.0392 0.0, 0.1239 0.0326 0.0, 0.1188 0.0527 0.0, 0.133 0.0008 0.0, -0.0134 0.0392 0.0, -0.0134 0.0311 0.0, -0.0205 -0.0083 0.0, -0.0134 0.0715 0.0, -0.0205 0.738 0.0, 0.031 0.0715 0.0, 0.1053 0.0669 0.0, 0.085 0.0734 0.0, 0.0815 0.0735 0.0, 0.0623 0.0695 0.0, 0.0542 0.0645 0.0, 0.031 -0.0073 0.0, 0.0472 0.057 0.0, 0.0496 0.0601 0.0, 0.0239 0.0311 0.0, 0.0239 0.0008 0.0, -0.0134 0.0008 0.0, -0.0134 -0.0073 0.0, 0.1703 -0.0073 0.0, 0.087 -0.0083 0.0, 0.133 -0.0073 0.0, 0.0992 -0.0061 0.0, 0.1069 -0.0019 0.0, 0.0994 0.0611 0.0, 0.1116 0.0501 0.0, 0.0819 0.0654 0.0, 0.1167 0.0352 0.0, 0.1168 0.032 0.0, 0.1127 0.0158 0.0, 0.1019 0.0044 0.0, 0.0864 -0.0009 0.0, 0.1114 0.0018 0.0, 0.1139 0.0045 0.0, 0.1215 0.0176 0.0, 0.0623 -0.0052 0.0, 0.0472 0.0072 0.0, 0.0533 0.0119 0.0, 0.0533 0.0523 0.0, 0.0659 0.0021 0.0, 0.0661 0.0622 0.0, 0.0815 -0.0012 0.0, 0.0735 0.0646 0.0, 0.0787 0.0653 0.0, 0.0715 -0.0083 0.0, 0.0775 -0.0091 0.0, -0.0205 -0.738 0.0, 0.0814 -0.0093 0.0, 0.1632 0.0008 0.0, 0.1632 0.0715 0.0, 0.1703 0.0715 0.0, 0.4813 0.738 0.0, 0.4813 -0.0083 0.0, 0.4813 -0.738 0.0, -0.4813 -0.738 0.0, -0.4813 -0.0083 0.0, 0.0712 -0.0082 0.0, -0.11 -0.0073 0.0, -0.1023 -0.0073 0.0, -0.1693 -0.0073 0.0, -0.1576 0.018 0.0, -0.1219 0.018 0.0, -0.0684 0.0686 0.0, -0.0826 0.0591 0.0, -0.1396 0.0715 0.0, -0.0763 -0.0017 0.0, -0.0605 -0.0068 0.0, -0.052 -0.0073 0.0, -0.0561 0.071 0.0, -0.4813 0.738 0.0, -0.1406 0.0715 0.0, -0.177 -0.0073 0.0, -0.0907 0.0435 0.0, -0.0922 0.0311 0.0, -0.0877 0.0113 0.0, -0.0276 -0.0073 0.0, -0.0276 0.0715 0.0, -0.0435 0.0715 0.0, -0.0435 0.0715 0.0
            ]
        }
        coordIndex [
            0,1,2,-1,2,1,3,-1,4,5,6,-1,6,5,7,-1,8,9,10,-1,10,9,11,-1,12,13,14,-1,14,13,15,-1,16,17,18,-1,18,17,19,-1,20,21,22,-1,23,24,25,-1,26,27,28,-1,22,26,20,-1,20,26,28,-1,20,28,29,-1,29,28,30,-1,29,30,31,-1,25,24,30,-1,30,24,32,-1,30,32,33,-1,33,34,30,-1,30,34,35,-1,30,35,36,-1,37,31,38,-1,38,31,30,-1,38,30,39,-1,39,30,36,-1,40,41,27,-1,27,41,42,-1,27,42,28,-1,28,42,43,-1,28,43,37,-1,44,45,46,-1,46,45,47,-1,46,47,48,-1,49,50,51,-1,51,50,52,-1,51,52,53,-1,53,54,51,-1,51,54,55,-1,51,55,56,-1,48,57,46,-1,46,57,58,-1,46,58,25,-1,25,58,59,-1,25,59,23,-1,60,37,61,-1,61,37,38,-1,61,38,62,-1,62,38,63,-1,62,63,64,-1,64,63,65,-1,64,65,66,-1,66,65,67,-1,66,67,56,-1,56,67,68,-1,56,68,51,-1,69,70,71,-1,71,70,72,-1,71,72,45,-1,73,25,74,-1,74,25,30,-1,74,30,75,-1,75,30,76,-1,75,76,44,-1,44,76,77,-1,44,77,45,-1,45,77,78,-1,45,78,71,-1,79,80,71,-1,71,80,28,-1,71,28,69,-1,69,28,37,-1,69,37,81,-1,81,37,60,-1,82,83,28,-1,84,85,86,-1,87,88,89,-1,90,91,83,-1,83,91,92,-1,83,92,28,-1,93,87,30,-1,30,87,89,-1,30,89,94,-1,94,89,95,-1,94,95,80,-1,80,95,96,-1,80,96,28,-1,28,96,84,-1,28,84,82,-1,82,84,86,-1,88,97,89,-1,89,97,98,-1,89,98,83,-1,83,98,99,-1,83,99,90,-1,92,100,28,-1,28,100,101,-1,28,101,30,-1,30,101,102,-1,30,102,93,-1,
        ]
    }
}
Shape{
    appearance Appearance {
        material  Material 	{
            diffuseColor 0.796078431372549 0.8235294117647058 0.9372549019607843
            specularColor 0.396078431372549 0.4117647058823529 0.4666666666666667
            ambientIntensity 0.2
            transparency 0
            shininess 0.5
        }
    }
    geometry IndexedFaceSet {
        ccw TRUE
        solid FALSE
        coord DEF co Coordinate {
            point [
                0.5478 -0.0531 0.2422, 0.5478 -0.2697 0.2422, 0.5841 -0.2697 0.2333, 0.5841 -0.0531 0.2333, 0.6123 -0.2697 0.2087, 0.6123 -0.0531 0.2087, 0.6259 -0.2697 0.1738, 0.6259 -0.0531 0.1738, 0.6439 -0.2697 0.0373, 0.6439 -0.0531 0.0373, 0.6467 -0.0531 0.0303, 0.6467 -0.2697 0.0303, 0.6523 -0.0531 0.0254, 0.6523 -0.2697 0.0254, 0.6595 -0.0531 0.0236, 0.6595 -0.2697 0.0236, 0.7874 -0.2697 0.0236, 0.7874 -0.0531 0.0236, 0.7874 -0.2697 -0.0394, 0.7874 -0.0531 -0.0394, 0.6595 -0.2697 -0.0394, 0.6595 -0.0531 -0.0394, 0.6232 -0.2697 -0.0305, 0.6232 -0.0531 -0.0305, 0.5951 -0.2697 -0.0058, 0.5951 -0.0531 -0.0058, 0.5815 -0.2697 0.029, 0.5815 -0.0531 0.029, 0.5634 -0.2697 0.1655, 0.5634 -0.0531 0.1655, 0.5607 -0.0531 0.1725, 0.5607 -0.2697 0.1725, 0.5551 -0.0531 0.1774, 0.5551 -0.2697 0.1774, 0.5478 -0.0531 0.1792, 0.5478 -0.2697 0.1792, 0.5478 -0.2697 0.1792
            ]
        }
        coordIndex [
            0,1,2,-1,0,2,3,-1,3,2,4,-1,3,4,5,-1,5,4,6,-1,5,6,7,-1,8,9,6,-1,6,9,7,-1,9,8,10,-1,10,8,11,-1,10,11,12,-1,12,11,13,-1,12,13,14,-1,14,13,15,-1,16,17,15,-1,15,17,14,-1,18,19,16,-1,16,19,17,-1,20,21,18,-1,18,21,19,-1,21,20,22,-1,21,22,23,-1,23,22,24,-1,23,24,25,-1,25,24,26,-1,25,26,27,-1,28,29,26,-1,26,29,27,-1,29,28,30,-1,30,28,31,-1,30,31,32,-1,32,31,33,-1,32,33,34,-1,34,33,35,-1,
        ]
    }
}
Shape{
    appearance Appearance {
        material  Material 	{
            diffuseColor 0.19607843137254902 0.19607843137254902 0.19607843137254902
            specularColor 0.09803921568627451 0.09803921568627451 0.09803921568627451
            ambientIntensity 0.2
            transparency 0
            shininess 0.5
        }
    }
    geometry IndexedFaceSet {
        ccw TRUE
        solid FALSE
        coord DEF co Coordinate {
            point [
                0.5118 0.7677 0.1792, 0.5118 0.7677 0.2422, 0.5118 0.6102 0.1792, 0.5118 0.6102 0.2422, -0.5118 0.7677 0.2422, -0.5118 0.7677 0.1792, -0.5118 0.6102 0.2422, -0.5118 0.6102 0.1792, 0.5118 -0.7677 0.1792, 0.5118 -0.7677 0.2422, -0.5118 -0.7677 0.1792, -0.5118 -0.7677 0.2422, -0.2393 0.5889 0.4331, -0.2301 0.5547 0.4331, 0.4906 0.7297 0.4331, 0.4906 -0.7297 0.4331, -0.2393 0.5205 0.4331, -0.2644 0.4954 0.4331, -0.4906 -0.7297 0.4331, -0.2986 0.4862 0.4331, -0.3579 0.5889 0.4331, -0.3328 0.614 0.4331, -0.4906 0.7297 0.4331, -0.2986 0.6231 0.4331, -0.2644 0.614 0.4331, -0.3328 0.4954 0.4331, -0.3579 0.5205 0.4331, -0.3671 0.5547 0.4331, -0.3671 0.5547 0.4331
            ]
        }
        coordIndex [
            0,1,2,-1,2,1,3,-1,4,5,6,-1,6,5,7,-1,1,0,4,-1,4,0,5,-1,8,9,10,-1,10,9,11,-1,12,13,14,-1,14,13,15,-1,13,16,15,-1,15,16,17,-1,15,17,18,-1,18,17,19,-1,20,21,22,-1,22,21,23,-1,22,23,14,-1,14,23,24,-1,14,24,12,-1,19,25,18,-1,18,25,26,-1,18,26,22,-1,22,26,27,-1,22,27,20,-1,
        ]
    }
}
Shape{
    appearance Appearance {
        material  Material 	{
            diffuseColor 0.796078431372549 0.8235294117647058 0.9372549019607843
            specularColor 0.396078431372549 0.4117647058823529 0.4666666666666667
            ambientIntensity 0.2
            transparency 0
            shininess 0.5
        }
    }
    geometry IndexedFaceSet {
        ccw TRUE
        solid FALSE
        coord DEF co Coordinate {
            point [
                -0.5478 0.6102 0.1792, -0.5118 0.6102 0.1792, -0.5478 0.4528 0.1792, -0.5118 0.4528 0.1792, -0.5551 0.6102 0.1774, -0.5551 0.4528 0.1774, -0.5607 0.6102 0.1725, -0.5607 0.4528 0.1725, -0.5634 0.6102 0.1655, -0.5634 0.4528 0.1655, -0.5815 0.6102 0.029, -0.5815 0.4528 0.029, -0.5951 0.4528 -0.0058, -0.5951 0.6102 -0.0058, -0.6232 0.4528 -0.0305, -0.6232 0.6102 -0.0305, -0.6595 0.4528 -0.0394, -0.6595 0.6102 -0.0394, -0.7874 0.6102 -0.0394, -0.7874 0.4528 -0.0394, -0.7874 0.6102 0.0236, -0.7874 0.4528 0.0236, -0.6595 0.6102 0.0236, -0.6595 0.4528 0.0236, -0.6523 0.6102 0.0254, -0.6523 0.4528 0.0254, -0.6467 0.6102 0.0303, -0.6467 0.4528 0.0303, -0.6439 0.6102 0.0373, -0.6439 0.4528 0.0373, -0.6259 0.6102 0.1738, -0.6259 0.4528 0.1738, -0.6123 0.4528 0.2087, -0.6123 0.6102 0.2087, -0.5841 0.4528 0.2333, -0.5841 0.6102 0.2333, -0.5478 0.4528 0.2422, -0.5478 0.6102 0.2422, -0.5118 0.6102 0.2422, -0.5118 0.4528 0.2422, -0.5478 0.2559 0.1792, -0.5118 0.2559 0.1792, -0.5478 0.0984 0.1792, -0.5118 0.0984 0.1792, -0.5551 0.2559 0.1774, -0.5551 0.0984 0.1774, -0.5607 0.2559 0.1725, -0.5607 0.0984 0.1725, -0.5634 0.2559 0.1655, -0.5634 0.0984 0.1655, -0.5815 0.2559 0.029, -0.5815 0.0984 0.029, -0.5951 0.0984 -0.0058, -0.5951 0.2559 -0.0058, -0.6232 0.0984 -0.0305, -0.6232 0.2559 -0.0305, -0.6595 0.0984 -0.0394, -0.6595 0.2559 -0.0394, -0.7874 0.2559 -0.0394, -0.7874 0.0984 -0.0394, -0.7874 0.2559 0.0236, -0.7874 0.0984 0.0236, -0.6595 0.2559 0.0236, -0.6595 0.0984 0.0236, -0.6523 0.2559 0.0254, -0.6523 0.0984 0.0254, -0.6467 0.2559 0.0303, -0.6467 0.0984 0.0303, -0.6439 0.2559 0.0373, -0.6439 0.0984 0.0373, -0.6259 0.2559 0.1738, -0.6259 0.0984 0.1738, -0.6123 0.0984 0.2087, -0.6123 0.2559 0.2087, -0.5841 0.0984 0.2333, -0.5841 0.2559 0.2333, -0.5478 0.0984 0.2422, -0.5478 0.2559 0.2422, -0.5118 0.2559 0.2422, -0.5118 0.0984 0.2422, -0.5478 -0.4528 0.1792, -0.5118 -0.4528 0.1792, -0.5478 -0.6102 0.1792, -0.5118 -0.6102 0.1792, -0.5551 -0.4528 0.1774, -0.5551 -0.6102 0.1774, -0.5607 -0.4528 0.1725, -0.5607 -0.6102 0.1725, -0.5634 -0.4528 0.1655, -0.5634 -0.6102 0.1655, -0.5815 -0.4528 0.029, -0.5815 -0.6102 0.029, -0.5951 -0.6102 -0.0058, -0.5951 -0.4528 -0.0058, -0.6232 -0.6102 -0.0305, -0.6232 -0.4528 -0.0305, -0.6595 -0.6102 -0.0394, -0.6595 -0.4528 -0.0394, -0.7874 -0.4528 -0.0394, -0.7874 -0.6102 -0.0394, -0.7874 -0.4528 0.0236, -0.7874 -0.6102 0.0236, -0.6595 -0.4528 0.0236, -0.6595 -0.6102 0.0236, -0.6523 -0.4528 0.0254, -0.6523 -0.6102 0.0254, -0.6467 -0.4528 0.0303, -0.6467 -0.6102 0.0303, -0.6439 -0.4528 0.0373, -0.6439 -0.6102 0.0373, -0.6259 -0.4528 0.1738, -0.6259 -0.6102 0.1738, -0.6123 -0.6102 0.2087, -0.6123 -0.4528 0.2087, -0.5841 -0.6102 0.2333, -0.5841 -0.4528 0.2333, -0.5478 -0.6102 0.2422, -0.5478 -0.4528 0.2422, -0.5118 -0.4528 0.2422, -0.5118 -0.6102 0.2422, 0.5478 0.6102 0.2422, 0.5478 0.374 0.2422, 0.5841 0.374 0.2333, 0.5841 0.6102 0.2333, 0.6123 0.374 0.2087, 0.6123 0.6102 0.2087, 0.6259 0.374 0.1738, 0.6259 0.6102 0.1738, 0.6439 0.6102 0.0373, 0.6439 0.374 0.0373, 0.6467 0.6102 0.0303, 0.6467 0.374 0.0303, 0.6523 0.6102 0.0254, 0.6523 0.374 0.0254, 0.6595 0.6102 0.0236, 0.6595 0.374 0.0236, 0.7874 0.6102 0.0236, 0.7874 0.374 0.0236, 0.7874 0.6102 -0.0394, 0.7874 0.374 -0.0394, 0.6595 0.6102 -0.0394, 0.6595 0.374 -0.0394, 0.6232 0.374 -0.0305, 0.6232 0.6102 -0.0305, 0.5951 0.374 -0.0058, 0.5951 0.6102 -0.0058, 0.5815 0.374 0.029, 0.5815 0.6102 0.029, 0.5634 0.6102 0.1655, 0.5634 0.374 0.1655, 0.5607 0.6102 0.1725, 0.5607 0.374 0.1725, 0.5551 0.6102 0.1774, 0.5551 0.374 0.1774, 0.5478 0.6102 0.1792, 0.5478 0.374 0.1792, 0.5118 0.6102 0.1792, 0.5118 0.374 0.1792, 0.5118 0.6102 0.2422, 0.5118 0.374 0.2422, 0.5478 -0.3681 0.2422, 0.5478 -0.5846 0.2422, 0.5841 -0.5846 0.2333, 0.5841 -0.3681 0.2333, 0.6123 -0.5846 0.2087, 0.6123 -0.3681 0.2087, 0.6259 -0.5846 0.1738, 0.6259 -0.3681 0.1738, 0.6439 -0.3681 0.0373, 0.6439 -0.5846 0.0373, 0.6467 -0.3681 0.0303, 0.6467 -0.5846 0.0303, 0.6523 -0.3681 0.0254, 0.6523 -0.5846 0.0254, 0.6595 -0.3681 0.0236, 0.6595 -0.5846 0.0236, 0.7874 -0.3681 0.0236, 0.7874 -0.5846 0.0236, 0.7874 -0.3681 -0.0394, 0.7874 -0.5846 -0.0394, 0.6595 -0.3681 -0.0394, 0.6595 -0.5846 -0.0394, 0.6232 -0.5846 -0.0305, 0.6232 -0.3681 -0.0305, 0.5951 -0.5846 -0.0058, 0.5951 -0.3681 -0.0058, 0.5815 -0.5846 0.029, 0.5815 -0.3681 0.029, 0.5634 -0.3681 0.1655, 0.5634 -0.5846 0.1655, 0.5607 -0.3681 0.1725, 0.5607 -0.5846 0.1725, 0.5551 -0.3681 0.1774, 0.5551 -0.5846 0.1774, 0.5478 -0.3681 0.1792, 0.5478 -0.5846 0.1792, 0.5118 -0.5846 0.1792, 0.5478 -0.2697 0.1792, 0.5118 -0.0531 0.1792, 0.5478 -0.0531 0.1792, 0.5118 -0.5846 0.2422, 0.5478 -0.2697 0.2422, 0.5118 -0.0531 0.2422, 0.5478 -0.0531 0.2422, 0.7874 -0.0531 0.0236, 0.7874 -0.0531 -0.0394, 0.6595 -0.0531 0.0236, 0.6595 -0.0531 -0.0394, 0.6523 -0.0531 0.0254, 0.6232 -0.0531 -0.0305, 0.6467 -0.0531 0.0303, 0.5951 -0.0531 -0.0058, 0.6439 -0.0531 0.0373, 0.5815 -0.0531 0.029, 0.6259 -0.0531 0.1738, 0.5634 -0.0531 0.1655, 0.6123 -0.0531 0.2087, 0.5607 -0.0531 0.1725, 0.5841 -0.0531 0.2333, 0.5551 -0.0531 0.1774, 0.5841 -0.2697 0.2333, 0.5551 -0.2697 0.1774, 0.6123 -0.2697 0.2087, 0.5607 -0.2697 0.1725, 0.6259 -0.2697 0.1738, 0.5634 -0.2697 0.1655, 0.6439 -0.2697 0.0373, 0.5815 -0.2697 0.029, 0.6467 -0.2697 0.0303, 0.5951 -0.2697 -0.0058, 0.6523 -0.2697 0.0254, 0.6232 -0.2697 -0.0305, 0.6595 -0.2697 0.0236, 0.6595 -0.2697 -0.0394, 0.7874 -0.2697 0.0236, 0.7874 -0.2697 -0.0394, 0.7874 -0.2697 -0.0394
            ]
        }
        coordIndex [
            0,1,2,-1,2,1,3,-1,0,2,4,-1,4,2,5,-1,4,5,6,-1,6,5,7,-1,6,7,8,-1,8,7,9,-1,10,8,11,-1,11,8,9,-1,10,11,12,-1,10,12,13,-1,13,12,14,-1,13,14,15,-1,15,14,16,-1,15,16,17,-1,18,17,19,-1,19,17,16,-1,20,18,21,-1,21,18,19,-1,22,20,23,-1,23,20,21,-1,22,23,24,-1,24,23,25,-1,24,25,26,-1,26,25,27,-1,26,27,28,-1,28,27,29,-1,30,28,31,-1,31,28,29,-1,30,31,32,-1,30,32,33,-1,33,32,34,-1,33,34,35,-1,35,34,36,-1,35,36,37,-1,38,37,39,-1,39,37,36,-1,38,1,37,-1,37,1,0,-1,37,0,35,-1,35,0,4,-1,35,4,33,-1,33,4,6,-1,33,6,30,-1,30,6,8,-1,30,8,28,-1,28,8,10,-1,28,10,26,-1,26,10,13,-1,26,13,24,-1,24,13,15,-1,24,15,22,-1,22,15,17,-1,22,17,20,-1,20,17,18,-1,21,19,23,-1,23,19,16,-1,23,16,25,-1,25,16,14,-1,25,14,27,-1,27,14,12,-1,27,12,29,-1,29,12,11,-1,29,11,31,-1,31,11,9,-1,31,9,32,-1,32,9,7,-1,32,7,34,-1,34,7,5,-1,34,5,36,-1,36,5,2,-1,36,2,39,-1,39,2,3,-1,40,41,42,-1,42,41,43,-1,40,42,44,-1,44,42,45,-1,44,45,46,-1,46,45,47,-1,46,47,48,-1,48,47,49,-1,50,48,51,-1,51,48,49,-1,50,51,52,-1,50,52,53,-1,53,52,54,-1,53,54,55,-1,55,54,56,-1,55,56,57,-1,58,57,59,-1,59,57,56,-1,60,58,61,-1,61,58,59,-1,62,60,63,-1,63,60,61,-1,62,63,64,-1,64,63,65,-1,64,65,66,-1,66,65,67,-1,66,67,68,-1,68,67,69,-1,70,68,71,-1,71,68,69,-1,70,71,72,-1,70,72,73,-1,73,72,74,-1,73,74,75,-1,75,74,76,-1,75,76,77,-1,78,77,79,-1,79,77,76,-1,78,41,77,-1,77,41,40,-1,77,40,75,-1,75,40,44,-1,75,44,73,-1,73,44,46,-1,73,46,70,-1,70,46,48,-1,70,48,68,-1,68,48,50,-1,68,50,66,-1,66,50,53,-1,66,53,64,-1,64,53,55,-1,64,55,62,-1,62,55,57,-1,62,57,60,-1,60,57,58,-1,61,59,63,-1,63,59,56,-1,63,56,65,-1,65,56,54,-1,65,54,67,-1,67,54,52,-1,67,52,69,-1,69,52,51,-1,69,51,71,-1,71,51,49,-1,71,49,72,-1,72,49,47,-1,72,47,74,-1,74,47,45,-1,74,45,76,-1,76,45,42,-1,76,42,79,-1,79,42,43,-1,80,81,82,-1,82,81,83,-1,80,82,84,-1,84,82,85,-1,84,85,86,-1,86,85,87,-1,86,87,88,-1,88,87,89,-1,90,88,91,-1,91,88,89,-1,90,91,92,-1,90,92,93,-1,93,92,94,-1,93,94,95,-1,95,94,96,-1,95,96,97,-1,98,97,99,-1,99,97,96,-1,100,98,101,-1,101,98,99,-1,102,100,103,-1,103,100,101,-1,102,103,104,-1,104,103,105,-1,104,105,106,-1,106,105,107,-1,106,107,108,-1,108,107,109,-1,110,108,111,-1,111,108,109,-1,110,111,112,-1,110,112,113,-1,113,112,114,-1,113,114,115,-1,115,114,116,-1,115,116,117,-1,118,117,119,-1,119,117,116,-1,118,81,117,-1,117,81,80,-1,117,80,115,-1,115,80,84,-1,115,84,113,-1,113,84,86,-1,113,86,110,-1,110,86,88,-1,110,88,108,-1,108,88,90,-1,108,90,106,-1,106,90,93,-1,106,93,104,-1,104,93,95,-1,104,95,102,-1,102,95,97,-1,102,97,100,-1,100,97,98,-1,101,99,103,-1,103,99,96,-1,103,96,105,-1,105,96,94,-1,105,94,107,-1,107,94,92,-1,107,92,109,-1,109,92,91,-1,109,91,111,-1,111,91,89,-1,111,89,112,-1,112,89,87,-1,112,87,114,-1,114,87,85,-1,114,85,116,-1,116,85,82,-1,116,82,119,-1,119,82,83,-1,120,121,122,-1,120,122,123,-1,123,122,124,-1,123,124,125,-1,125,124,126,-1,125,126,127,-1,128,127,129,-1,129,127,126,-1,128,129,130,-1,130,129,131,-1,130,131,132,-1,132,131,133,-1,132,133,134,-1,134,133,135,-1,136,134,137,-1,137,134,135,-1,138,136,139,-1,139,136,137,-1,140,138,141,-1,141,138,139,-1,140,141,142,-1,140,142,143,-1,143,142,144,-1,143,144,145,-1,145,144,146,-1,145,146,147,-1,148,147,149,-1,149,147,146,-1,148,149,150,-1,150,149,151,-1,150,151,152,-1,152,151,153,-1,152,153,154,-1,154,153,155,-1,156,154,157,-1,157,154,155,-1,120,158,121,-1,121,158,159,-1,156,158,154,-1,154,158,120,-1,154,120,152,-1,152,120,123,-1,152,123,150,-1,150,123,125,-1,150,125,148,-1,148,125,127,-1,148,127,147,-1,147,127,128,-1,147,128,145,-1,145,128,130,-1,145,130,143,-1,143,130,132,-1,143,132,140,-1,140,132,134,-1,140,134,138,-1,138,134,136,-1,139,137,141,-1,141,137,135,-1,141,135,142,-1,142,135,133,-1,142,133,144,-1,144,133,131,-1,144,131,146,-1,146,131,129,-1,146,129,149,-1,149,129,126,-1,149,126,151,-1,151,126,124,-1,151,124,153,-1,153,124,122,-1,153,122,155,-1,155,122,121,-1,155,121,157,-1,157,121,159,-1,160,161,162,-1,160,162,163,-1,163,162,164,-1,163,164,165,-1,165,164,166,-1,165,166,167,-1,167,166,168,-1,168,166,169,-1,168,169,170,-1,170,169,171,-1,170,171,172,-1,172,171,173,-1,172,173,174,-1,174,173,175,-1,174,175,176,-1,176,175,177,-1,176,177,178,-1,178,177,179,-1,178,179,180,-1,180,179,181,-1,180,181,182,-1,180,182,183,-1,183,182,184,-1,183,184,185,-1,185,184,186,-1,185,186,187,-1,187,186,188,-1,188,186,189,-1,188,189,190,-1,190,189,191,-1,190,191,192,-1,192,191,193,-1,192,193,194,-1,194,193,195,-1,194,195,196,-1,194,196,197,-1,197,196,198,-1,197,198,199,-1,161,160,200,-1,200,160,201,-1,200,201,202,-1,202,201,203,-1,204,205,206,-1,206,205,207,-1,206,207,208,-1,208,207,209,-1,208,209,210,-1,210,209,211,-1,210,211,212,-1,212,211,213,-1,212,213,214,-1,214,213,215,-1,214,215,216,-1,216,215,217,-1,216,217,218,-1,218,217,219,-1,218,219,203,-1,203,219,199,-1,203,199,202,-1,202,199,198,-1,200,196,161,-1,161,196,195,-1,161,195,162,-1,162,195,193,-1,162,193,164,-1,164,193,191,-1,164,191,166,-1,166,191,189,-1,166,189,169,-1,169,189,186,-1,169,186,171,-1,171,186,184,-1,171,184,173,-1,173,184,182,-1,173,182,175,-1,175,182,181,-1,175,181,177,-1,177,181,179,-1,201,197,220,-1,220,197,221,-1,220,221,222,-1,222,221,223,-1,222,223,224,-1,224,223,225,-1,224,225,226,-1,226,225,227,-1,226,227,228,-1,228,227,229,-1,228,229,230,-1,230,229,231,-1,230,231,232,-1,232,231,233,-1,232,233,234,-1,234,233,235,-1,176,178,174,-1,174,178,180,-1,174,180,172,-1,172,180,183,-1,172,183,170,-1,170,183,185,-1,170,185,168,-1,168,185,187,-1,168,187,167,-1,167,187,188,-1,167,188,165,-1,165,188,190,-1,165,190,163,-1,163,190,192,-1,163,192,160,-1,160,192,194,-1,160,194,201,-1,201,194,197,-1,
        ]
    }
}
Shape{
    appearance Appearance {
        material  Material 	{
            diffuseColor 0.7529411764705882 0.7529411764705882 0.7529411764705882
            specularColor 0.3764705882352941 0.3764705882352941 0.3764705882352941
            ambientIntensity 0.2
            transparency 0
            shininess 0.5
        }
    }
    geometry IndexedFaceSet {
        ccw TRUE
        solid FALSE
        coord DEF co Coordinate {
            point [
                -0.1396 0.0715 0.0394, -0.1406 0.0715 0.0394, -0.1396 0.0715 0.0, -0.1406 0.0715 0.0, -0.177 -0.0073 0.0394, -0.177 -0.0073 0.0, -0.1693 -0.0073 0.0394, -0.1693 -0.0073 0.0, -0.1576 0.018 0.0394, -0.1576 0.018 0.0, -0.1219 0.018 0.0394, -0.1219 0.018 0.0, -0.11 -0.0073 0.0394, -0.11 -0.0073 0.0, -0.1023 -0.0073 0.0394, -0.1023 -0.0073 0.0, -0.1539 0.0261 0.0394, -0.1258 0.0261 0.0394, -0.14 0.0561 0.0394, -0.1539 0.0261 0.0, -0.14 0.0561 0.0, -0.1258 0.0261 0.0, -0.052 -0.0073 0.0394, -0.0276 -0.0073 0.0394, -0.052 -0.0073 0.0, -0.0276 -0.0073 0.0, -0.0276 0.0715 0.0394, -0.0276 0.0715 0.0, -0.0435 0.0715 0.0394, -0.0435 0.0715 0.0, -0.0684 0.0686 0.0394, -0.0684 0.0686 0.0, -0.0561 0.071 0.0, -0.0561 0.071 0.0394, -0.0922 0.0311 0.0394, -0.0922 0.0311 0.0, -0.0907 0.0435 0.0, -0.0907 0.0435 0.0394, -0.0826 0.0591 0.0, -0.0826 0.0591 0.0394, -0.0605 -0.0068 0.0, -0.0605 -0.0068 0.0394, -0.0763 -0.0017 0.0, -0.0763 -0.0017 0.0394, -0.0877 0.0113 0.0, -0.0877 0.0113 0.0394, -0.0838 0.0213 0.0394, -0.0774 0.0098 0.0394, -0.0662 0.0028 0.0394, -0.055 0.0011 0.0394, -0.0437 0.0008 0.0394, -0.0346 0.0008 0.0394, -0.0346 0.0634 0.0394, -0.0402 0.0634 0.0394, -0.0523 0.063 0.0394, -0.0644 0.0612 0.0394, -0.0731 0.057 0.0394, -0.0816 0.0469 0.0394, -0.0851 0.0311 0.0394, -0.0346 0.0634 0.0, -0.0346 0.0008 0.0, -0.0402 0.0634 0.0, -0.0523 0.063 0.0, -0.0644 0.0612 0.0, -0.0731 0.057 0.0, -0.0816 0.0469 0.0, -0.0851 0.0311 0.0, -0.0838 0.0213 0.0, -0.0774 0.0098 0.0, -0.0662 0.0028 0.0, -0.055 0.0011 0.0, -0.0437 0.0008 0.0, 0.031 -0.0073 0.0394, 0.031 0.0715 0.0394, 0.031 -0.0073 0.0, 0.031 0.0715 0.0, -0.0134 0.0715 0.0394, -0.0134 0.0715 0.0, -0.0134 0.0634 0.0394, -0.0134 0.0634 0.0, 0.0239 0.0634 0.0394, 0.0239 0.0634 0.0, 0.0239 0.0392 0.0394, 0.0239 0.0392 0.0, -0.0134 0.0392 0.0394, -0.0134 0.0392 0.0, -0.0134 0.0311 0.0394, -0.0134 0.0311 0.0, 0.0239 0.0311 0.0394, 0.0239 0.0311 0.0, 0.0239 0.0008 0.0394, 0.0239 0.0008 0.0, -0.0134 0.0008 0.0394, -0.0134 0.0008 0.0, -0.0134 -0.0073 0.0394, -0.0134 -0.0073 0.0, 0.0472 0.057 0.0394, 0.0472 0.057 0.0, 0.0496 0.0601 0.0, 0.0496 0.0601 0.0394, 0.0542 0.0645 0.0, 0.0542 0.0645 0.0394, 0.0623 0.0695 0.0, 0.0623 0.0695 0.0394, 0.0815 0.0735 0.0, 0.0815 0.0735 0.0394, 0.0533 0.0523 0.0394, 0.0533 0.0523 0.0, 0.0819 0.0654 0.0394, 0.0819 0.0654 0.0, 0.0787 0.0653 0.0, 0.0787 0.0653 0.0394, 0.0735 0.0646 0.0, 0.0735 0.0646 0.0394, 0.0661 0.0622 0.0, 0.0661 0.0622 0.0394, 0.1168 0.032 0.0394, 0.1168 0.032 0.0, 0.1167 0.0352 0.0, 0.1167 0.0352 0.0394, 0.1116 0.0501 0.0, 0.1116 0.0501 0.0394, 0.0994 0.0611 0.0, 0.0994 0.0611 0.0394, 0.0815 -0.0012 0.0394, 0.0815 -0.0012 0.0, 0.0864 -0.0009 0.0, 0.0864 -0.0009 0.0394, 0.1019 0.0044 0.0, 0.1019 0.0044 0.0394, 0.1127 0.0158 0.0, 0.1127 0.0158 0.0394, 0.0533 0.0119 0.0394, 0.0533 0.0119 0.0, 0.0659 0.0021 0.0, 0.0659 0.0021 0.0394, 0.0472 0.0072 0.0394, 0.0472 0.0072 0.0, 0.0814 -0.0093 0.0394, 0.0814 -0.0093 0.0, 0.0775 -0.0091 0.0, 0.0775 -0.0091 0.0394, 0.0715 -0.0083 0.0, 0.0712 -0.0082 0.0394, 0.0712 -0.0082 0.0, 0.0623 -0.0052 0.0, 0.0623 -0.0052 0.0394, 0.087 -0.0083 0.0, 0.0992 -0.0061 0.0394, 0.0992 -0.0061 0.0, 0.1069 -0.0019 0.0394, 0.1069 -0.0019 0.0, 0.1114 0.0018 0.0394, 0.1114 0.0018 0.0, 0.1139 0.0045 0.0394, 0.1139 0.0045 0.0, 0.1239 0.0326 0.0394, 0.1239 0.0326 0.0, 0.1215 0.0176 0.0, 0.1215 0.0176 0.0394, 0.085 0.0734 0.0, 0.085 0.0734 0.0394, 0.1053 0.0669 0.0, 0.1053 0.0669 0.0394, 0.1188 0.0527 0.0, 0.1188 0.0527 0.0394, 0.1703 -0.0073 0.0394, 0.1703 0.0715 0.0394, 0.1703 -0.0073 0.0, 0.1703 0.0715 0.0, 0.1632 0.0715 0.0394, 0.1632 0.0715 0.0, 0.1632 0.0008 0.0394, 0.1632 0.0008 0.0, 0.133 0.0008 0.0394, 0.133 0.0008 0.0, 0.133 -0.0073 0.0394, 0.133 -0.0073 0.0, 0.133 -0.0073 0.0
            ]
        }
        coordIndex [
            0,1,2,-1,2,1,3,-1,1,4,3,-1,3,4,5,-1,4,6,5,-1,5,6,7,-1,6,8,7,-1,7,8,9,-1,8,10,9,-1,9,10,11,-1,10,12,11,-1,11,12,13,-1,12,14,13,-1,13,14,15,-1,14,0,15,-1,15,0,2,-1,16,4,1,-1,0,17,1,-1,1,17,18,-1,1,18,16,-1,14,12,10,-1,6,4,8,-1,8,4,16,-1,8,16,10,-1,10,16,17,-1,10,17,14,-1,14,17,0,-1,16,18,19,-1,19,18,20,-1,17,16,21,-1,21,16,19,-1,18,17,20,-1,20,17,21,-1,22,23,24,-1,24,23,25,-1,23,26,25,-1,25,26,27,-1,26,28,27,-1,27,28,29,-1,30,31,32,-1,30,32,33,-1,33,32,29,-1,33,29,28,-1,34,35,36,-1,34,36,37,-1,37,36,38,-1,37,38,39,-1,39,38,31,-1,39,31,30,-1,22,24,40,-1,22,40,41,-1,41,40,42,-1,41,42,43,-1,43,42,44,-1,43,44,45,-1,45,44,35,-1,45,35,34,-1,46,47,43,-1,43,47,48,-1,43,48,41,-1,41,48,49,-1,41,49,22,-1,22,49,50,-1,22,50,23,-1,23,50,51,-1,23,51,26,-1,26,51,52,-1,26,52,28,-1,28,52,53,-1,28,53,33,-1,33,53,54,-1,33,54,30,-1,30,54,55,-1,30,55,39,-1,39,55,56,-1,39,56,37,-1,37,56,57,-1,37,57,34,-1,34,57,58,-1,34,58,45,-1,45,58,46,-1,45,46,43,-1,52,51,59,-1,59,51,60,-1,53,52,61,-1,61,52,59,-1,53,61,62,-1,53,62,54,-1,54,62,63,-1,54,63,55,-1,55,63,64,-1,55,64,56,-1,56,64,65,-1,56,65,57,-1,57,65,66,-1,57,66,58,-1,58,66,67,-1,58,67,46,-1,46,67,68,-1,46,68,47,-1,47,68,69,-1,47,69,48,-1,48,69,70,-1,48,70,49,-1,49,70,71,-1,49,71,50,-1,51,50,60,-1,60,50,71,-1,72,73,74,-1,74,73,75,-1,73,76,75,-1,75,76,77,-1,76,78,77,-1,77,78,79,-1,78,80,79,-1,79,80,81,-1,80,82,81,-1,81,82,83,-1,82,84,83,-1,83,84,85,-1,84,86,85,-1,85,86,87,-1,86,88,87,-1,87,88,89,-1,88,90,89,-1,89,90,91,-1,90,92,91,-1,91,92,93,-1,92,94,93,-1,93,94,95,-1,94,72,95,-1,95,72,74,-1,72,94,92,-1,92,90,72,-1,72,90,88,-1,72,88,73,-1,78,76,80,-1,80,76,73,-1,80,73,82,-1,82,73,88,-1,82,88,84,-1,84,88,86,-1,96,97,98,-1,96,98,99,-1,99,98,100,-1,99,100,101,-1,101,100,102,-1,101,102,103,-1,103,102,104,-1,103,104,105,-1,96,106,97,-1,97,106,107,-1,108,109,110,-1,108,110,111,-1,111,110,112,-1,111,112,113,-1,113,112,114,-1,113,114,115,-1,115,114,107,-1,115,107,106,-1,116,117,118,-1,116,118,119,-1,119,118,120,-1,119,120,121,-1,121,120,122,-1,121,122,123,-1,123,122,109,-1,123,109,108,-1,124,125,126,-1,124,126,127,-1,127,126,128,-1,127,128,129,-1,129,128,130,-1,129,130,131,-1,131,130,117,-1,131,117,116,-1,132,133,134,-1,132,134,135,-1,135,134,125,-1,135,125,124,-1,132,136,133,-1,133,136,137,-1,138,139,140,-1,138,140,141,-1,141,140,142,-1,141,142,143,-1,142,144,143,-1,143,144,145,-1,143,145,146,-1,146,145,137,-1,146,137,136,-1,139,138,147,-1,147,138,148,-1,147,148,149,-1,149,148,150,-1,149,150,151,-1,151,150,152,-1,151,152,153,-1,153,152,154,-1,153,154,155,-1,156,157,158,-1,156,158,159,-1,159,158,155,-1,159,155,154,-1,105,104,160,-1,105,160,161,-1,161,160,162,-1,161,162,163,-1,163,162,164,-1,163,164,165,-1,165,164,157,-1,165,157,156,-1,136,132,146,-1,146,132,135,-1,156,159,131,-1,131,159,129,-1,129,159,154,-1,129,154,152,-1,106,96,99,-1,106,99,115,-1,115,99,101,-1,115,101,103,-1,152,150,129,-1,129,150,148,-1,129,148,127,-1,127,148,138,-1,127,138,124,-1,124,138,141,-1,124,141,135,-1,135,141,143,-1,135,143,146,-1,131,116,156,-1,156,116,119,-1,156,119,165,-1,165,119,121,-1,165,121,163,-1,163,121,123,-1,163,123,161,-1,161,123,108,-1,161,108,105,-1,105,108,111,-1,105,111,103,-1,103,111,113,-1,103,113,115,-1,166,167,168,-1,168,167,169,-1,167,170,169,-1,169,170,171,-1,170,172,171,-1,171,172,173,-1,172,174,173,-1,173,174,175,-1,174,176,175,-1,175,176,177,-1,176,166,177,-1,177,166,168,-1,170,167,172,-1,172,167,166,-1,172,166,174,-1,174,166,176,-1,
        ]
    }
}
Shape{
    appearance Appearance {
        material  Material 	{
            diffuseColor 0.19607843137254902 0.19607843137254902 0.19607843137254902
            specularColor 0.09803921568627451 0.09803921568627451 0.09803921568627451
            ambientIntensity 0.2
            transparency 0
            shininess 0.5
        }
    }
    geometry IndexedFaceSet {
        ccw TRUE
        solid FALSE
        coord DEF co Coordinate {
            point [
                -0.14 0.0561 0.0, -0.1258 0.0261 0.0, -0.1539 0.0261 0.0, -0.0346 0.0634 0.0, -0.0346 0.0008 0.0, -0.0402 0.0634 0.0, -0.0437 0.0008 0.0, -0.0523 0.063 0.0, -0.055 0.0011 0.0, -0.0644 0.0612 0.0, -0.0662 0.0028 0.0, -0.0774 0.0098 0.0, -0.0838 0.0213 0.0, -0.0851 0.0311 0.0, -0.0816 0.0469 0.0, -0.0731 0.057 0.0, 0.5118 0.6102 0.2422, 0.5118 0.7677 0.2422, 0.4906 0.7297 0.4331, 0.5118 -0.7677 0.2422, 0.5118 -0.5846 0.2422, 0.4906 -0.7297 0.4331, 0.5118 -0.0531 0.2422, 0.5118 0.374 0.2422, 0.5118 0.7677 0.1792, 0.5118 0.6102 0.1792, 0.4813 0.738 0.0, 0.5118 0.374 0.1792, 0.4813 -0.0083 0.0, 0.5118 -0.0531 0.1792, 0.4813 -0.738 0.0, 0.5118 -0.5846 0.1792, 0.5118 -0.7677 0.1792, -0.5118 -0.6102 0.2422, -0.5118 -0.7677 0.2422, -0.4906 -0.7297 0.4331, -0.5118 0.7677 0.2422, -0.5118 0.6102 0.2422, -0.4906 0.7297 0.4331, -0.5118 0.4528 0.2422, -0.5118 0.2559 0.2422, -0.5118 0.0984 0.2422, -0.5118 -0.4528 0.2422, -0.4813 0.738 0.0, -0.4813 -0.0083 0.0, -0.5118 0.2559 0.1792, -0.5118 0.4528 0.1792, -0.5118 0.6102 0.1792, -0.5118 0.7677 0.1792, -0.5118 -0.7677 0.1792, -0.5118 -0.6102 0.1792, -0.4813 -0.738 0.0, -0.5118 -0.4528 0.1792, -0.5118 0.0984 0.1792, -0.0205 0.738 0.0, -0.0205 -0.738 0.0, -0.0205 -0.738 0.0
            ]
        }
        coordIndex [
            0,1,2,-1,3,4,5,-1,5,4,6,-1,5,6,7,-1,7,6,8,-1,7,8,9,-1,10,11,8,-1,8,11,12,-1,8,12,13,-1,13,14,8,-1,8,14,15,-1,8,15,9,-1,16,17,18,-1,19,20,21,-1,21,20,22,-1,21,22,18,-1,18,22,23,-1,18,23,16,-1,24,25,26,-1,26,25,27,-1,26,27,28,-1,28,27,29,-1,28,29,30,-1,30,29,31,-1,30,31,32,-1,33,34,35,-1,36,37,38,-1,38,37,39,-1,39,40,38,-1,38,40,41,-1,38,41,35,-1,35,41,42,-1,35,42,33,-1,43,44,45,-1,45,46,43,-1,43,46,47,-1,43,47,48,-1,49,50,51,-1,51,50,52,-1,51,52,44,-1,44,52,53,-1,44,53,45,-1,24,26,48,-1,48,26,54,-1,48,54,43,-1,30,32,55,-1,55,32,49,-1,55,49,51,-1,38,18,36,-1,36,18,17,-1,34,19,35,-1,35,19,21,-1,
        ]
    }
}
Shape{
    appearance Appearance {
        material  Material 	{
            diffuseColor 0.7529411764705882 0.7529411764705882 0.7529411764705882
            specularColor 0.3764705882352941 0.3764705882352941 0.3764705882352941
            ambientIntensity 0.2
            transparency 0
            shininess 0.5
        }
    }
    geometry IndexedFaceSet {
        ccw TRUE
        solid FALSE
        coord DEF co Coordinate {
            point [
                -0.2301 0.5547 0.4252, -0.2301 0.5547 0.4331, -0.2393 0.5889 0.4252, -0.2393 0.5889 0.4331, -0.2644 0.614 0.4252, -0.2644 0.614 0.4331, -0.2986 0.6231 0.4252, -0.2986 0.6231 0.4331, -0.3328 0.614 0.4252, -0.3328 0.614 0.4331, -0.3579 0.5889 0.4252, -0.3579 0.5889 0.4331, -0.3671 0.5547 0.4252, -0.3671 0.5547 0.4331, -0.3579 0.5205 0.4252, -0.3579 0.5205 0.4331, -0.3328 0.4954 0.4252, -0.3328 0.4954 0.4331, -0.2986 0.4862 0.4252, -0.2986 0.4862 0.4331, -0.2644 0.4954 0.4252, -0.2644 0.4954 0.4331, -0.2393 0.5205 0.4252, -0.2393 0.5205 0.4331, -0.2986 0.5547 0.4252, -0.2986 0.5547 0.4252
            ]
        }
        coordIndex [
            0,1,2,-1,2,1,3,-1,2,3,4,-1,4,3,5,-1,4,5,6,-1,6,5,7,-1,6,7,8,-1,8,7,9,-1,8,9,10,-1,10,9,11,-1,10,11,12,-1,12,11,13,-1,12,13,14,-1,14,13,15,-1,14,15,16,-1,16,15,17,-1,16,17,18,-1,18,17,19,-1,18,19,20,-1,20,19,21,-1,20,21,22,-1,22,21,23,-1,22,23,0,-1,0,23,1,-1,20,22,24,-1,24,22,0,-1,24,0,2,-1,14,16,24,-1,24,16,18,-1,24,18,20,-1,8,10,24,-1,24,10,12,-1,24,12,14,-1,2,4,24,-1,24,4,6,-1,24,6,8,-1,
        ]
    }
}