%TF.GenerationSoftware,KiCad,Pcbnew,9.0.3+dfsg-1*%
%TF.CreationDate,2026-02-23T09:57:27+02:00*%
%TF.ProjectId,desk_power_monitor_mini32_lora,6465736b-5f70-46f7-9765-725f6d6f6e69,rev?*%
%TF.SameCoordinates,Original*%
%TF.FileFunction,Soldermask,Top*%
%TF.FilePolarity,Negative*%
%FSLAX46Y46*%
G04 Gerber Fmt 4.6, Leading zero omitted, Abs format (unit mm)*
G04 Created by KiCad (PCBNEW 9.0.3+dfsg-1) date 2026-02-23 09:57:27*
%MOMM*%
%LPD*%
G01*
G04 APERTURE LIST*
G04 Aperture macros list*
%AMRoundRect*
0 Rectangle with rounded corners*
0 $1 Rounding radius*
0 $2 $3 $4 $5 $6 $7 $8 $9 X,Y pos of 4 corners*
0 Add a 4 corners polygon primitive as box body*
4,1,4,$2,$3,$4,$5,$6,$7,$8,$9,$2,$3,0*
0 Add four circle primitives for the rounded corners*
1,1,$1+$1,$2,$3*
1,1,$1+$1,$4,$5*
1,1,$1+$1,$6,$7*
1,1,$1+$1,$8,$9*
0 Add four rect primitives between the rounded corners*
20,1,$1+$1,$2,$3,$4,$5,0*
20,1,$1+$1,$4,$5,$6,$7,0*
20,1,$1+$1,$6,$7,$8,$9,0*
20,1,$1+$1,$8,$9,$2,$3,0*%
G04 Aperture macros list end*
%ADD10RoundRect,0.218750X0.381250X-0.218750X0.381250X0.218750X-0.381250X0.218750X-0.381250X-0.218750X0*%
%ADD11RoundRect,0.250000X0.250000X0.475000X-0.250000X0.475000X-0.250000X-0.475000X0.250000X-0.475000X0*%
%ADD12R,1.700000X1.700000*%
%ADD13C,1.700000*%
%ADD14R,3.000000X1.200000*%
%ADD15R,2.400000X1.200000*%
G04 APERTURE END LIST*
D10*
%TO.C,L1*%
X107950000Y-90470500D03*
X107950000Y-88345500D03*
%TD*%
D11*
%TO.C,C1*%
X111567000Y-88519000D03*
X109667000Y-88519000D03*
%TD*%
%TO.C,C2*%
X105852000Y-88519000D03*
X103952000Y-88519000D03*
%TD*%
D12*
%TO.C,J1*%
X88906000Y-72050000D03*
D13*
X91446000Y-72050000D03*
X88906000Y-74590000D03*
X91446000Y-74590000D03*
X88906000Y-77130000D03*
X91446000Y-77130000D03*
X88906000Y-79670000D03*
X91446000Y-79670000D03*
X88906000Y-82210000D03*
X91446000Y-82210000D03*
X88906000Y-84750000D03*
X91446000Y-84750000D03*
X88906000Y-87290000D03*
X91446000Y-87290000D03*
X88906000Y-89830000D03*
X91446000Y-89830000D03*
X88906000Y-92370000D03*
X91446000Y-92370000D03*
X88906000Y-94910000D03*
X91446000Y-94910000D03*
%TD*%
D12*
%TO.C,J2*%
X114306000Y-72050000D03*
D13*
X116846000Y-72050000D03*
X114306000Y-74590000D03*
X116846000Y-74590000D03*
X114306000Y-77130000D03*
X116846000Y-77130000D03*
X114306000Y-79670000D03*
X116846000Y-79670000D03*
X114306000Y-82210000D03*
X116846000Y-82210000D03*
X114306000Y-84750000D03*
X116846000Y-84750000D03*
X114306000Y-87290000D03*
X116846000Y-87290000D03*
X114306000Y-89830000D03*
X116846000Y-89830000D03*
X114306000Y-92370000D03*
X116846000Y-92370000D03*
X114306000Y-94910000D03*
X116846000Y-94910000D03*
%TD*%
D14*
%TO.C,U1*%
X110570000Y-85613000D03*
D15*
X110870000Y-83613000D03*
X110870000Y-81613000D03*
X110870000Y-79613000D03*
X110870000Y-77613000D03*
X110870000Y-75613000D03*
X110870000Y-73613000D03*
X110870000Y-71613000D03*
X94870000Y-71613000D03*
X94870000Y-73613000D03*
X94870000Y-75613000D03*
X94870000Y-77613000D03*
X94870000Y-79613000D03*
X94870000Y-81613000D03*
X94870000Y-83613000D03*
X94870000Y-85613000D03*
%TD*%
D11*
%TO.C,C3*%
X105852000Y-90678000D03*
X103952000Y-90678000D03*
%TD*%
M02*
