%TF.GenerationSoftware,KiCad,Pcbnew,9.0.3+dfsg-1*%
%TF.CreationDate,2026-02-23T09:57:27+02:00*%
%TF.ProjectId,desk_power_monitor_mini32_lora,6465736b-5f70-46f7-9765-725f6d6f6e69,rev?*%
%TF.SameCoordinates,Original*%
%TF.FileFunction,Copper,L1,Top*%
%TF.FilePolarity,Positive*%
%FSLAX46Y46*%
G04 Gerber Fmt 4.6, Leading zero omitted, Abs format (unit mm)*
G04 Created by KiCad (PCBNEW 9.0.3+dfsg-1) date 2026-02-23 09:57:27*
%MOMM*%
%LPD*%
G01*
G04 APERTURE LIST*
G04 Aperture macros list*
%AMRoundRect*
0 Rectangle with rounded corners*
0 $1 Rounding radius*
0 $2 $3 $4 $5 $6 $7 $8 $9 X,Y pos of 4 corners*
0 Add a 4 corners polygon primitive as box body*
4,1,4,$2,$3,$4,$5,$6,$7,$8,$9,$2,$3,0*
0 Add four circle primitives for the rounded corners*
1,1,$1+$1,$2,$3*
1,1,$1+$1,$4,$5*
1,1,$1+$1,$6,$7*
1,1,$1+$1,$8,$9*
0 Add four rect primitives between the rounded corners*
20,1,$1+$1,$2,$3,$4,$5,0*
20,1,$1+$1,$4,$5,$6,$7,0*
20,1,$1+$1,$6,$7,$8,$9,0*
20,1,$1+$1,$8,$9,$2,$3,0*%
%AMOutline4P*
0 Free polygon, 4 corners , with rotation*
0 The origin of the aperture is its center*
0 number of corners: always 4*
0 $1 to $8 corner X, Y*
0 $9 Rotation angle, in degrees counterclockwise*
0 create outline with 4 corners*
4,1,4,$1,$2,$3,$4,$5,$6,$7,$8,$1,$2,$9*%
G04 Aperture macros list end*
%TA.AperFunction,EtchedComponent*%
%ADD10C,1.000000*%
%TD*%
%TA.AperFunction,SMDPad,CuDef*%
%ADD11RoundRect,0.218750X0.381250X-0.218750X0.381250X0.218750X-0.381250X0.218750X-0.381250X-0.218750X0*%
%TD*%
%TA.AperFunction,SMDPad,CuDef*%
%ADD12RoundRect,0.250000X0.250000X0.475000X-0.250000X0.475000X-0.250000X-0.475000X0.250000X-0.475000X0*%
%TD*%
%TA.AperFunction,ComponentPad*%
%ADD13C,1.000000*%
%TD*%
%TA.AperFunction,SMDPad,CuDef*%
%ADD14Outline4P,-0.350000X-0.400000X0.350000X-0.400000X0.050000X0.400000X-0.050000X0.400000X0.000000*%
%TD*%
%TA.AperFunction,ComponentPad*%
%ADD15R,1.700000X1.700000*%
%TD*%
%TA.AperFunction,ComponentPad*%
%ADD16C,1.700000*%
%TD*%
%TA.AperFunction,SMDPad,CuDef*%
%ADD17R,3.000000X1.200000*%
%TD*%
%TA.AperFunction,SMDPad,CuDef*%
%ADD18R,2.400000X1.200000*%
%TD*%
%TA.AperFunction,ViaPad*%
%ADD19C,0.600000*%
%TD*%
%TA.AperFunction,Conductor*%
%ADD20C,0.200000*%
%TD*%
%TA.AperFunction,Conductor*%
%ADD21C,0.500000*%
%TD*%
G04 APERTURE END LIST*
D10*
%TO.C,AE1*%
X92648000Y-102701000D02*
X92648000Y-97701000D01*
X94648000Y-102701000D02*
X94648000Y-97701000D01*
X96648000Y-102701000D02*
X96648000Y-97701000D01*
X98648000Y-102701000D02*
X98648000Y-97701000D01*
X100648000Y-102701000D02*
X100648000Y-97701000D01*
X102648000Y-102701000D02*
X102648000Y-97701000D01*
X104648000Y-102701000D02*
X104648000Y-97701000D01*
X106648000Y-102701000D02*
X106648000Y-97701000D01*
X108648000Y-102701000D02*
X108648000Y-97701000D01*
X110648000Y-91701000D02*
X110648000Y-102701000D01*
%TD*%
D11*
%TO.P,L1,1,1*%
%TO.N,Net-(AE1-A)*%
X107950000Y-90470500D03*
%TO.P,L1,2,2*%
%TO.N,Net-(C1-Pad2)*%
X107950000Y-88345500D03*
%TD*%
D12*
%TO.P,C1,1*%
%TO.N,Net-(U1-ANT)*%
X111567000Y-88519000D03*
%TO.P,C1,2*%
%TO.N,Net-(C1-Pad2)*%
X109667000Y-88519000D03*
%TD*%
%TO.P,C2,1*%
%TO.N,Net-(C1-Pad2)*%
X105852000Y-88519000D03*
%TO.P,C2,2*%
%TO.N,GNDREF*%
X103952000Y-88519000D03*
%TD*%
D13*
%TO.P,AE1,*%
%TO.N,*%
X110648000Y-102701000D03*
X108648000Y-102701000D03*
X108648000Y-97701000D03*
X106648000Y-102701000D03*
X106648000Y-97701000D03*
X104648000Y-102701000D03*
X104648000Y-97701000D03*
X102648000Y-102701000D03*
X102648000Y-97701000D03*
X100648000Y-102701000D03*
X100648000Y-97701000D03*
X98648000Y-102701000D03*
X98648000Y-97701000D03*
X96648000Y-102701000D03*
X96648000Y-97701000D03*
X94648000Y-102701000D03*
X94648000Y-97701000D03*
X92648000Y-102701000D03*
X92648000Y-97701000D03*
D14*
%TO.P,AE1,1,A*%
%TO.N,Net-(AE1-A)*%
X110648000Y-91001000D03*
%TD*%
D15*
%TO.P,J1,1,GND*%
%TO.N,GNDREF*%
X88906000Y-72050000D03*
D16*
%TO.P,J1,2,RST*%
%TO.N,unconnected-(J1-RST-Pad2)*%
X91446000Y-72050000D03*
%TO.P,J1,3,NC*%
%TO.N,unconnected-(J1-NC-Pad3)*%
X88906000Y-74590000D03*
%TO.P,J1,4,SVP*%
%TO.N,unconnected-(J1-SVP-Pad4)*%
X91446000Y-74590000D03*
%TO.P,J1,5,SVN*%
%TO.N,unconnected-(J1-SVN-Pad5)*%
X88906000Y-77130000D03*
%TO.P,J1,6,IO26*%
%TO.N,Net-(J1-IO26)*%
X91446000Y-77130000D03*
%TO.P,J1,7,IO35*%
%TO.N,unconnected-(J1-IO35-Pad7)*%
X88906000Y-79670000D03*
%TO.P,J1,8,IO18*%
%TO.N,Net-(J1-IO18)*%
X91446000Y-79670000D03*
%TO.P,J1,9,IO33*%
%TO.N,unconnected-(J1-IO33-Pad9)*%
X88906000Y-82210000D03*
%TO.P,J1,10,IO19*%
%TO.N,Net-(J1-IO19)*%
X91446000Y-82210000D03*
%TO.P,J1,11,IO34*%
%TO.N,unconnected-(J1-IO34-Pad11)*%
X88906000Y-84750000D03*
%TO.P,J1,12,IO23*%
%TO.N,Net-(J1-IO23)*%
X91446000Y-84750000D03*
%TO.P,J1,13,TMS*%
%TO.N,unconnected-(J1-TMS-Pad13)*%
X88906000Y-87290000D03*
%TO.P,J1,14,IO5*%
%TO.N,Net-(J1-IO5)*%
X91446000Y-87290000D03*
%TO.P,J1,15,NC*%
%TO.N,unconnected-(J1-NC-Pad15)*%
X88906000Y-89830000D03*
%TO.P,J1,16,3V3*%
%TO.N,Net-(J1-3V3)*%
X91446000Y-89830000D03*
%TO.P,J1,17,SD2*%
%TO.N,unconnected-(J1-SD2-Pad17)*%
X88906000Y-92370000D03*
%TO.P,J1,18,TCK*%
%TO.N,unconnected-(J1-TCK-Pad18)*%
X91446000Y-92370000D03*
%TO.P,J1,19,CMD*%
%TO.N,unconnected-(J1-CMD-Pad19)*%
X88906000Y-94910000D03*
%TO.P,J1,20,SD3*%
%TO.N,unconnected-(J1-SD3-Pad20)*%
X91446000Y-94910000D03*
%TD*%
D15*
%TO.P,J2,1,TXD*%
%TO.N,unconnected-(J2-TXD-Pad1)*%
X114306000Y-72050000D03*
D16*
%TO.P,J2,2,GND*%
%TO.N,GNDREF*%
X116846000Y-72050000D03*
%TO.P,J2,3,RXD*%
%TO.N,unconnected-(J2-RXD-Pad3)*%
X114306000Y-74590000D03*
%TO.P,J2,4,IO27*%
%TO.N,Net-(J2-IO27)*%
X116846000Y-74590000D03*
%TO.P,J2,5,IO22*%
%TO.N,unconnected-(J2-IO22-Pad5)*%
X114306000Y-77130000D03*
%TO.P,J2,6,IO25*%
%TO.N,unconnected-(J2-IO25-Pad6)*%
X116846000Y-77130000D03*
%TO.P,J2,7,IO21*%
%TO.N,unconnected-(J2-IO21-Pad7)*%
X114306000Y-79670000D03*
%TO.P,J2,8,IO32*%
%TO.N,unconnected-(J2-IO32-Pad8)*%
X116846000Y-79670000D03*
%TO.P,J2,9,IO17*%
%TO.N,unconnected-(J2-IO17-Pad9)*%
X114306000Y-82210000D03*
%TO.P,J2,10,TDI*%
%TO.N,unconnected-(J2-TDI-Pad10)*%
X116846000Y-82210000D03*
%TO.P,J2,11,IO16*%
%TO.N,unconnected-(J2-IO16-Pad11)*%
X114306000Y-84750000D03*
%TO.P,J2,12,IO4*%
%TO.N,unconnected-(J2-IO4-Pad12)*%
X116846000Y-84750000D03*
%TO.P,J2,13,GND*%
%TO.N,GNDREF*%
X114306000Y-87290000D03*
%TO.P,J2,14,IO0*%
%TO.N,unconnected-(J2-IO0-Pad14)*%
X116846000Y-87290000D03*
%TO.P,J2,15,VCC*%
%TO.N,unconnected-(J2-VCC-Pad15)*%
X114306000Y-89830000D03*
%TO.P,J2,16,IO2*%
%TO.N,unconnected-(J2-IO2-Pad16)*%
X116846000Y-89830000D03*
%TO.P,J2,17,TD0*%
%TO.N,unconnected-(J2-TD0-Pad17)*%
X114306000Y-92370000D03*
%TO.P,J2,18,SD1*%
%TO.N,unconnected-(J2-SD1-Pad18)*%
X116846000Y-92370000D03*
%TO.P,J2,19,SD0*%
%TO.N,unconnected-(J2-SD0-Pad19)*%
X114306000Y-94910000D03*
%TO.P,J2,20,CLK*%
%TO.N,unconnected-(J2-CLK-Pad20)*%
X116846000Y-94910000D03*
%TD*%
D17*
%TO.P,U1,1,ANT*%
%TO.N,Net-(U1-ANT)*%
X110570000Y-85613000D03*
D18*
%TO.P,U1,2,GND*%
%TO.N,GNDREF*%
X110870000Y-83613000D03*
%TO.P,U1,3,3.3V*%
%TO.N,Net-(J1-3V3)*%
X110870000Y-81613000D03*
%TO.P,U1,4,RESET*%
%TO.N,Net-(J2-IO27)*%
X110870000Y-79613000D03*
%TO.P,U1,5,TXEN*%
%TO.N,unconnected-(U1-TXEN-Pad5)*%
X110870000Y-77613000D03*
%TO.P,U1,6,DIO1*%
%TO.N,Net-(J1-IO26)*%
X110870000Y-75613000D03*
%TO.P,U1,7,DIO2*%
%TO.N,unconnected-(U1-DIO2-Pad7)*%
X110870000Y-73613000D03*
%TO.P,U1,8,DIO3*%
%TO.N,unconnected-(U1-DIO3-Pad8)*%
X110870000Y-71613000D03*
%TO.P,U1,9,GND*%
%TO.N,GNDREF*%
X94870000Y-71613000D03*
%TO.P,U1,10,BUSY*%
%TO.N,unconnected-(U1-BUSY-Pad10)*%
X94870000Y-73613000D03*
%TO.P,U1,11,RXEN*%
%TO.N,unconnected-(U1-RXEN-Pad11)*%
X94870000Y-75613000D03*
%TO.P,U1,12,SCK*%
%TO.N,Net-(J1-IO18)*%
X94870000Y-77613000D03*
%TO.P,U1,13,MISO*%
%TO.N,Net-(J1-IO19)*%
X94870000Y-79613000D03*
%TO.P,U1,14,MOSI*%
%TO.N,Net-(J1-IO23)*%
X94870000Y-81613000D03*
%TO.P,U1,15,NSS*%
%TO.N,Net-(J1-IO5)*%
X94870000Y-83613000D03*
%TO.P,U1,16,GND*%
%TO.N,GNDREF*%
X94870000Y-85613000D03*
%TD*%
D12*
%TO.P,C3,1*%
%TO.N,Net-(AE1-A)*%
X105852000Y-90678000D03*
%TO.P,C3,2*%
%TO.N,GNDREF*%
X103952000Y-90678000D03*
%TD*%
D19*
%TO.N,GNDREF*%
X101727000Y-89535000D03*
X94234000Y-68580000D03*
X95631000Y-88519000D03*
%TD*%
D20*
%TO.N,Net-(J1-IO5)*%
X92964000Y-84836000D02*
X94187000Y-83613000D01*
X94187000Y-83613000D02*
X94870000Y-83613000D01*
X92964000Y-85772000D02*
X92964000Y-84836000D01*
X91446000Y-87290000D02*
X92964000Y-85772000D01*
%TO.N,Net-(U1-ANT)*%
X111267000Y-85613000D02*
X111633000Y-85979000D01*
X110570000Y-85613000D02*
X111267000Y-85613000D01*
X111633000Y-85979000D02*
X111567000Y-86045000D01*
X111567000Y-86045000D02*
X111567000Y-88519000D01*
%TO.N,Net-(J1-3V3)*%
X96860000Y-89830000D02*
X105077000Y-81613000D01*
X91446000Y-89830000D02*
X96860000Y-89830000D01*
X105077000Y-81613000D02*
X110870000Y-81613000D01*
%TO.N,Net-(J1-IO18)*%
X94870000Y-77613000D02*
X93503000Y-77613000D01*
X93503000Y-77613000D02*
X91446000Y-79670000D01*
%TO.N,Net-(J2-IO27)*%
X116846000Y-74590000D02*
X115570000Y-75866000D01*
X113157000Y-78359000D02*
X111903000Y-79613000D01*
X115570000Y-77493760D02*
X114704760Y-78359000D01*
X111903000Y-79613000D02*
X110870000Y-79613000D01*
X114704760Y-78359000D02*
X113157000Y-78359000D01*
X115570000Y-75866000D02*
X115570000Y-77493760D01*
D21*
%TO.N,GNDREF*%
X94742000Y-88519000D02*
X95631000Y-88519000D01*
X94107000Y-87884000D02*
X94742000Y-88519000D01*
D20*
X115570000Y-83947000D02*
X115222000Y-83599000D01*
X94600000Y-85613000D02*
X94107000Y-86106000D01*
D21*
X94234000Y-68580000D02*
X89408000Y-68580000D01*
X94107000Y-86106000D02*
X94107000Y-87884000D01*
D20*
X94870000Y-71613000D02*
X94870000Y-71502000D01*
X114306000Y-87290000D02*
X114306000Y-87243000D01*
D21*
X94234000Y-70866000D02*
X94234000Y-68580000D01*
X88900000Y-69088000D02*
X88906000Y-69094000D01*
X102809000Y-89535000D02*
X103952000Y-90678000D01*
X101727000Y-89535000D02*
X102809000Y-89535000D01*
X94870000Y-71502000D02*
X94234000Y-70866000D01*
X105998000Y-83613000D02*
X103952000Y-85659000D01*
D20*
X110884000Y-83599000D02*
X110870000Y-83613000D01*
X94870000Y-85613000D02*
X94600000Y-85613000D01*
D21*
X101727000Y-89535000D02*
X102936000Y-89535000D01*
X116332000Y-68580000D02*
X94234000Y-68580000D01*
X88906000Y-69094000D02*
X88906000Y-72050000D01*
X89408000Y-68580000D02*
X88900000Y-69088000D01*
X116846000Y-69094000D02*
X116332000Y-68580000D01*
D20*
X114306000Y-87243000D02*
X115570000Y-85979000D01*
D21*
X116846000Y-72050000D02*
X116846000Y-69094000D01*
X110870000Y-83613000D02*
X105998000Y-83613000D01*
X102936000Y-89535000D02*
X103952000Y-88519000D01*
X103952000Y-90678000D02*
X103952000Y-88519000D01*
D20*
X115222000Y-83599000D02*
X110884000Y-83599000D01*
X115570000Y-85979000D02*
X115570000Y-83947000D01*
D21*
X103952000Y-85659000D02*
X103952000Y-88519000D01*
D20*
%TO.N,Net-(J1-IO23)*%
X94870000Y-81613000D02*
X94583000Y-81613000D01*
X94583000Y-81613000D02*
X91446000Y-84750000D01*
%TO.N,Net-(J1-IO19)*%
X94870000Y-79613000D02*
X94043000Y-79613000D01*
X94043000Y-79613000D02*
X91446000Y-82210000D01*
%TO.N,Net-(J1-IO26)*%
X110870000Y-75613000D02*
X108791000Y-75613000D01*
X108791000Y-75613000D02*
X107823000Y-76581000D01*
X107823000Y-76581000D02*
X91995000Y-76581000D01*
X91995000Y-76581000D02*
X91446000Y-77130000D01*
%TO.N,Net-(C1-Pad2)*%
X107950000Y-88345500D02*
X107973250Y-88368750D01*
X108123500Y-88519000D02*
X107950000Y-88345500D01*
X109667000Y-88519000D02*
X108123500Y-88519000D01*
X105852000Y-88519000D02*
X107776500Y-88519000D01*
X107776500Y-88519000D02*
X107950000Y-88345500D01*
%TO.N,Net-(AE1-A)*%
X107950000Y-90470500D02*
X110218500Y-90470500D01*
X106059500Y-90470500D02*
X105852000Y-90678000D01*
X107950000Y-90470500D02*
X106059500Y-90470500D01*
X110218500Y-90470500D02*
X110648000Y-90900000D01*
%TD*%
M02*
