%TF.GenerationSoftware,KiCad,Pcbnew,9.0.3+dfsg-1*%
%TF.CreationDate,2026-02-23T09:57:27+02:00*%
%TF.ProjectId,desk_power_monitor_mini32_lora,6465736b-5f70-46f7-9765-725f6d6f6e69,rev?*%
%TF.SameCoordinates,Original*%
%TF.FileFunction,Soldermask,Bot*%
%TF.FilePolarity,Negative*%
%FSLAX46Y46*%
G04 Gerber Fmt 4.6, Leading zero omitted, Abs format (unit mm)*
G04 Created by KiCad (PCBNEW 9.0.3+dfsg-1) date 2026-02-23 09:57:27*
%MOMM*%
%LPD*%
G01*
G04 APERTURE LIST*
%ADD10R,1.700000X1.700000*%
%ADD11C,1.700000*%
G04 APERTURE END LIST*
D10*
%TO.C,J1*%
X88906000Y-72050000D03*
D11*
X91446000Y-72050000D03*
X88906000Y-74590000D03*
X91446000Y-74590000D03*
X88906000Y-77130000D03*
X91446000Y-77130000D03*
X88906000Y-79670000D03*
X91446000Y-79670000D03*
X88906000Y-82210000D03*
X91446000Y-82210000D03*
X88906000Y-84750000D03*
X91446000Y-84750000D03*
X88906000Y-87290000D03*
X91446000Y-87290000D03*
X88906000Y-89830000D03*
X91446000Y-89830000D03*
X88906000Y-92370000D03*
X91446000Y-92370000D03*
X88906000Y-94910000D03*
X91446000Y-94910000D03*
%TD*%
D10*
%TO.C,J2*%
X114306000Y-72050000D03*
D11*
X116846000Y-72050000D03*
X114306000Y-74590000D03*
X116846000Y-74590000D03*
X114306000Y-77130000D03*
X116846000Y-77130000D03*
X114306000Y-79670000D03*
X116846000Y-79670000D03*
X114306000Y-82210000D03*
X116846000Y-82210000D03*
X114306000Y-84750000D03*
X116846000Y-84750000D03*
X114306000Y-87290000D03*
X116846000Y-87290000D03*
X114306000Y-89830000D03*
X116846000Y-89830000D03*
X114306000Y-92370000D03*
X116846000Y-92370000D03*
X114306000Y-94910000D03*
X116846000Y-94910000D03*
%TD*%
M02*
