%TF.GenerationSoftware,KiCad,Pcbnew,9.0.3+dfsg-1*%
%TF.CreationDate,2026-02-23T09:57:27+02:00*%
%TF.ProjectId,desk_power_monitor_mini32_lora,6465736b-5f70-46f7-9765-725f6d6f6e69,rev?*%
%TF.SameCoordinates,Original*%
%TF.FileFunction,AssemblyDrawing,Top*%
%FSLAX46Y46*%
G04 Gerber Fmt 4.6, Leading zero omitted, Abs format (unit mm)*
G04 Created by KiCad (PCBNEW 9.0.3+dfsg-1) date 2026-02-23 09:57:27*
%MOMM*%
%LPD*%
G01*
G04 APERTURE LIST*
%ADD10C,0.150000*%
%ADD11C,0.080000*%
%ADD12C,0.100000*%
%ADD13C,0.060000*%
G04 APERTURE END LIST*
D10*
X105626819Y-90163118D02*
X105626819Y-90067880D01*
X105626819Y-90067880D02*
X105674438Y-89972642D01*
X105674438Y-89972642D02*
X105722057Y-89925023D01*
X105722057Y-89925023D02*
X105817295Y-89877404D01*
X105817295Y-89877404D02*
X106007771Y-89829785D01*
X106007771Y-89829785D02*
X106245866Y-89829785D01*
X106245866Y-89829785D02*
X106436342Y-89877404D01*
X106436342Y-89877404D02*
X106531580Y-89925023D01*
X106531580Y-89925023D02*
X106579200Y-89972642D01*
X106579200Y-89972642D02*
X106626819Y-90067880D01*
X106626819Y-90067880D02*
X106626819Y-90163118D01*
X106626819Y-90163118D02*
X106579200Y-90258356D01*
X106579200Y-90258356D02*
X106531580Y-90305975D01*
X106531580Y-90305975D02*
X106436342Y-90353594D01*
X106436342Y-90353594D02*
X106245866Y-90401213D01*
X106245866Y-90401213D02*
X106007771Y-90401213D01*
X106007771Y-90401213D02*
X105817295Y-90353594D01*
X105817295Y-90353594D02*
X105722057Y-90305975D01*
X105722057Y-90305975D02*
X105674438Y-90258356D01*
X105674438Y-90258356D02*
X105626819Y-90163118D01*
X106626819Y-88829785D02*
X106150628Y-89163118D01*
X106626819Y-89401213D02*
X105626819Y-89401213D01*
X105626819Y-89401213D02*
X105626819Y-89020261D01*
X105626819Y-89020261D02*
X105674438Y-88925023D01*
X105674438Y-88925023D02*
X105722057Y-88877404D01*
X105722057Y-88877404D02*
X105817295Y-88829785D01*
X105817295Y-88829785D02*
X105960152Y-88829785D01*
X105960152Y-88829785D02*
X106055390Y-88877404D01*
X106055390Y-88877404D02*
X106103009Y-88925023D01*
X106103009Y-88925023D02*
X106150628Y-89020261D01*
X106150628Y-89020261D02*
X106150628Y-89401213D01*
D11*
X108177149Y-89491333D02*
X108177149Y-89729428D01*
X108177149Y-89729428D02*
X107677149Y-89729428D01*
X108177149Y-89062761D02*
X108177149Y-89348475D01*
X108177149Y-89205618D02*
X107677149Y-89205618D01*
X107677149Y-89205618D02*
X107748578Y-89253237D01*
X107748578Y-89253237D02*
X107796197Y-89300856D01*
X107796197Y-89300856D02*
X107820006Y-89348475D01*
D10*
X110389381Y-86449819D02*
X110484619Y-86449819D01*
X110484619Y-86449819D02*
X110579857Y-86497438D01*
X110579857Y-86497438D02*
X110627476Y-86545057D01*
X110627476Y-86545057D02*
X110675095Y-86640295D01*
X110675095Y-86640295D02*
X110722714Y-86830771D01*
X110722714Y-86830771D02*
X110722714Y-87068866D01*
X110722714Y-87068866D02*
X110675095Y-87259342D01*
X110675095Y-87259342D02*
X110627476Y-87354580D01*
X110627476Y-87354580D02*
X110579857Y-87402200D01*
X110579857Y-87402200D02*
X110484619Y-87449819D01*
X110484619Y-87449819D02*
X110389381Y-87449819D01*
X110389381Y-87449819D02*
X110294143Y-87402200D01*
X110294143Y-87402200D02*
X110246524Y-87354580D01*
X110246524Y-87354580D02*
X110198905Y-87259342D01*
X110198905Y-87259342D02*
X110151286Y-87068866D01*
X110151286Y-87068866D02*
X110151286Y-86830771D01*
X110151286Y-86830771D02*
X110198905Y-86640295D01*
X110198905Y-86640295D02*
X110246524Y-86545057D01*
X110246524Y-86545057D02*
X110294143Y-86497438D01*
X110294143Y-86497438D02*
X110389381Y-86449819D01*
X111722714Y-87449819D02*
X111389381Y-86973628D01*
X111151286Y-87449819D02*
X111151286Y-86449819D01*
X111151286Y-86449819D02*
X111532238Y-86449819D01*
X111532238Y-86449819D02*
X111627476Y-86497438D01*
X111627476Y-86497438D02*
X111675095Y-86545057D01*
X111675095Y-86545057D02*
X111722714Y-86640295D01*
X111722714Y-86640295D02*
X111722714Y-86783152D01*
X111722714Y-86783152D02*
X111675095Y-86878390D01*
X111675095Y-86878390D02*
X111627476Y-86926009D01*
X111627476Y-86926009D02*
X111532238Y-86973628D01*
X111532238Y-86973628D02*
X111151286Y-86973628D01*
D11*
X110533666Y-88698530D02*
X110509857Y-88722340D01*
X110509857Y-88722340D02*
X110438428Y-88746149D01*
X110438428Y-88746149D02*
X110390809Y-88746149D01*
X110390809Y-88746149D02*
X110319381Y-88722340D01*
X110319381Y-88722340D02*
X110271762Y-88674720D01*
X110271762Y-88674720D02*
X110247952Y-88627101D01*
X110247952Y-88627101D02*
X110224143Y-88531863D01*
X110224143Y-88531863D02*
X110224143Y-88460435D01*
X110224143Y-88460435D02*
X110247952Y-88365197D01*
X110247952Y-88365197D02*
X110271762Y-88317578D01*
X110271762Y-88317578D02*
X110319381Y-88269959D01*
X110319381Y-88269959D02*
X110390809Y-88246149D01*
X110390809Y-88246149D02*
X110438428Y-88246149D01*
X110438428Y-88246149D02*
X110509857Y-88269959D01*
X110509857Y-88269959D02*
X110533666Y-88293768D01*
X111009857Y-88746149D02*
X110724143Y-88746149D01*
X110867000Y-88746149D02*
X110867000Y-88246149D01*
X110867000Y-88246149D02*
X110819381Y-88317578D01*
X110819381Y-88317578D02*
X110771762Y-88365197D01*
X110771762Y-88365197D02*
X110724143Y-88389006D01*
D10*
X102788286Y-87449819D02*
X102788286Y-86449819D01*
X102788286Y-86449819D02*
X103026381Y-86449819D01*
X103026381Y-86449819D02*
X103169238Y-86497438D01*
X103169238Y-86497438D02*
X103264476Y-86592676D01*
X103264476Y-86592676D02*
X103312095Y-86687914D01*
X103312095Y-86687914D02*
X103359714Y-86878390D01*
X103359714Y-86878390D02*
X103359714Y-87021247D01*
X103359714Y-87021247D02*
X103312095Y-87211723D01*
X103312095Y-87211723D02*
X103264476Y-87306961D01*
X103264476Y-87306961D02*
X103169238Y-87402200D01*
X103169238Y-87402200D02*
X103026381Y-87449819D01*
X103026381Y-87449819D02*
X102788286Y-87449819D01*
X103788286Y-87449819D02*
X103788286Y-86449819D01*
X103788286Y-86449819D02*
X104359714Y-87449819D01*
X104359714Y-87449819D02*
X104359714Y-86449819D01*
X104835905Y-87449819D02*
X104835905Y-86449819D01*
X104835905Y-86449819D02*
X105216857Y-86449819D01*
X105216857Y-86449819D02*
X105312095Y-86497438D01*
X105312095Y-86497438D02*
X105359714Y-86545057D01*
X105359714Y-86545057D02*
X105407333Y-86640295D01*
X105407333Y-86640295D02*
X105407333Y-86783152D01*
X105407333Y-86783152D02*
X105359714Y-86878390D01*
X105359714Y-86878390D02*
X105312095Y-86926009D01*
X105312095Y-86926009D02*
X105216857Y-86973628D01*
X105216857Y-86973628D02*
X104835905Y-86973628D01*
D11*
X104818666Y-88698530D02*
X104794857Y-88722340D01*
X104794857Y-88722340D02*
X104723428Y-88746149D01*
X104723428Y-88746149D02*
X104675809Y-88746149D01*
X104675809Y-88746149D02*
X104604381Y-88722340D01*
X104604381Y-88722340D02*
X104556762Y-88674720D01*
X104556762Y-88674720D02*
X104532952Y-88627101D01*
X104532952Y-88627101D02*
X104509143Y-88531863D01*
X104509143Y-88531863D02*
X104509143Y-88460435D01*
X104509143Y-88460435D02*
X104532952Y-88365197D01*
X104532952Y-88365197D02*
X104556762Y-88317578D01*
X104556762Y-88317578D02*
X104604381Y-88269959D01*
X104604381Y-88269959D02*
X104675809Y-88246149D01*
X104675809Y-88246149D02*
X104723428Y-88246149D01*
X104723428Y-88246149D02*
X104794857Y-88269959D01*
X104794857Y-88269959D02*
X104818666Y-88293768D01*
X105009143Y-88293768D02*
X105032952Y-88269959D01*
X105032952Y-88269959D02*
X105080571Y-88246149D01*
X105080571Y-88246149D02*
X105199619Y-88246149D01*
X105199619Y-88246149D02*
X105247238Y-88269959D01*
X105247238Y-88269959D02*
X105271047Y-88293768D01*
X105271047Y-88293768D02*
X105294857Y-88341387D01*
X105294857Y-88341387D02*
X105294857Y-88389006D01*
X105294857Y-88389006D02*
X105271047Y-88460435D01*
X105271047Y-88460435D02*
X104985333Y-88746149D01*
X104985333Y-88746149D02*
X105294857Y-88746149D01*
D10*
X93696095Y-90118104D02*
X94172285Y-90118104D01*
X93600857Y-90403819D02*
X93934190Y-89403819D01*
X93934190Y-89403819D02*
X94267523Y-90403819D01*
X94600857Y-89737152D02*
X94600857Y-90403819D01*
X94600857Y-89832390D02*
X94648476Y-89784771D01*
X94648476Y-89784771D02*
X94743714Y-89737152D01*
X94743714Y-89737152D02*
X94886571Y-89737152D01*
X94886571Y-89737152D02*
X94981809Y-89784771D01*
X94981809Y-89784771D02*
X95029428Y-89880009D01*
X95029428Y-89880009D02*
X95029428Y-90403819D01*
X95362762Y-89737152D02*
X95743714Y-89737152D01*
X95505619Y-89403819D02*
X95505619Y-90260961D01*
X95505619Y-90260961D02*
X95553238Y-90356200D01*
X95553238Y-90356200D02*
X95648476Y-90403819D01*
X95648476Y-90403819D02*
X95743714Y-90403819D01*
X96458000Y-90356200D02*
X96362762Y-90403819D01*
X96362762Y-90403819D02*
X96172286Y-90403819D01*
X96172286Y-90403819D02*
X96077048Y-90356200D01*
X96077048Y-90356200D02*
X96029429Y-90260961D01*
X96029429Y-90260961D02*
X96029429Y-89880009D01*
X96029429Y-89880009D02*
X96077048Y-89784771D01*
X96077048Y-89784771D02*
X96172286Y-89737152D01*
X96172286Y-89737152D02*
X96362762Y-89737152D01*
X96362762Y-89737152D02*
X96458000Y-89784771D01*
X96458000Y-89784771D02*
X96505619Y-89880009D01*
X96505619Y-89880009D02*
X96505619Y-89975247D01*
X96505619Y-89975247D02*
X96029429Y-90070485D01*
X96934191Y-89737152D02*
X96934191Y-90403819D01*
X96934191Y-89832390D02*
X96981810Y-89784771D01*
X96981810Y-89784771D02*
X97077048Y-89737152D01*
X97077048Y-89737152D02*
X97219905Y-89737152D01*
X97219905Y-89737152D02*
X97315143Y-89784771D01*
X97315143Y-89784771D02*
X97362762Y-89880009D01*
X97362762Y-89880009D02*
X97362762Y-90403819D01*
X97838953Y-89737152D02*
X97838953Y-90403819D01*
X97838953Y-89832390D02*
X97886572Y-89784771D01*
X97886572Y-89784771D02*
X97981810Y-89737152D01*
X97981810Y-89737152D02*
X98124667Y-89737152D01*
X98124667Y-89737152D02*
X98219905Y-89784771D01*
X98219905Y-89784771D02*
X98267524Y-89880009D01*
X98267524Y-89880009D02*
X98267524Y-90403819D01*
X99172286Y-90403819D02*
X99172286Y-89880009D01*
X99172286Y-89880009D02*
X99124667Y-89784771D01*
X99124667Y-89784771D02*
X99029429Y-89737152D01*
X99029429Y-89737152D02*
X98838953Y-89737152D01*
X98838953Y-89737152D02*
X98743715Y-89784771D01*
X99172286Y-90356200D02*
X99077048Y-90403819D01*
X99077048Y-90403819D02*
X98838953Y-90403819D01*
X98838953Y-90403819D02*
X98743715Y-90356200D01*
X98743715Y-90356200D02*
X98696096Y-90260961D01*
X98696096Y-90260961D02*
X98696096Y-90165723D01*
X98696096Y-90165723D02*
X98743715Y-90070485D01*
X98743715Y-90070485D02*
X98838953Y-90022866D01*
X98838953Y-90022866D02*
X99077048Y-90022866D01*
X99077048Y-90022866D02*
X99172286Y-89975247D01*
X88941333Y-100278104D02*
X89417523Y-100278104D01*
X88846095Y-100563819D02*
X89179428Y-99563819D01*
X89179428Y-99563819D02*
X89512761Y-100563819D01*
X89846095Y-100040009D02*
X90179428Y-100040009D01*
X90322285Y-100563819D02*
X89846095Y-100563819D01*
X89846095Y-100563819D02*
X89846095Y-99563819D01*
X89846095Y-99563819D02*
X90322285Y-99563819D01*
X91274666Y-100563819D02*
X90703238Y-100563819D01*
X90988952Y-100563819D02*
X90988952Y-99563819D01*
X90988952Y-99563819D02*
X90893714Y-99706676D01*
X90893714Y-99706676D02*
X90798476Y-99801914D01*
X90798476Y-99801914D02*
X90703238Y-99849533D01*
X92282475Y-93117200D02*
X92187237Y-93164819D01*
X92187237Y-93164819D02*
X91996761Y-93164819D01*
X91996761Y-93164819D02*
X91901523Y-93117200D01*
X91901523Y-93117200D02*
X91853904Y-93021961D01*
X91853904Y-93021961D02*
X91853904Y-92641009D01*
X91853904Y-92641009D02*
X91901523Y-92545771D01*
X91901523Y-92545771D02*
X91996761Y-92498152D01*
X91996761Y-92498152D02*
X92187237Y-92498152D01*
X92187237Y-92498152D02*
X92282475Y-92545771D01*
X92282475Y-92545771D02*
X92330094Y-92641009D01*
X92330094Y-92641009D02*
X92330094Y-92736247D01*
X92330094Y-92736247D02*
X91853904Y-92831485D01*
X92711047Y-93117200D02*
X92806285Y-93164819D01*
X92806285Y-93164819D02*
X92996761Y-93164819D01*
X92996761Y-93164819D02*
X93091999Y-93117200D01*
X93091999Y-93117200D02*
X93139618Y-93021961D01*
X93139618Y-93021961D02*
X93139618Y-92974342D01*
X93139618Y-92974342D02*
X93091999Y-92879104D01*
X93091999Y-92879104D02*
X92996761Y-92831485D01*
X92996761Y-92831485D02*
X92853904Y-92831485D01*
X92853904Y-92831485D02*
X92758666Y-92783866D01*
X92758666Y-92783866D02*
X92711047Y-92688628D01*
X92711047Y-92688628D02*
X92711047Y-92641009D01*
X92711047Y-92641009D02*
X92758666Y-92545771D01*
X92758666Y-92545771D02*
X92853904Y-92498152D01*
X92853904Y-92498152D02*
X92996761Y-92498152D01*
X92996761Y-92498152D02*
X93091999Y-92545771D01*
X93568190Y-92498152D02*
X93568190Y-93498152D01*
X93568190Y-92545771D02*
X93663428Y-92498152D01*
X93663428Y-92498152D02*
X93853904Y-92498152D01*
X93853904Y-92498152D02*
X93949142Y-92545771D01*
X93949142Y-92545771D02*
X93996761Y-92593390D01*
X93996761Y-92593390D02*
X94044380Y-92688628D01*
X94044380Y-92688628D02*
X94044380Y-92974342D01*
X94044380Y-92974342D02*
X93996761Y-93069580D01*
X93996761Y-93069580D02*
X93949142Y-93117200D01*
X93949142Y-93117200D02*
X93853904Y-93164819D01*
X93853904Y-93164819D02*
X93663428Y-93164819D01*
X93663428Y-93164819D02*
X93568190Y-93117200D01*
X94377714Y-92164819D02*
X94996761Y-92164819D01*
X94996761Y-92164819D02*
X94663428Y-92545771D01*
X94663428Y-92545771D02*
X94806285Y-92545771D01*
X94806285Y-92545771D02*
X94901523Y-92593390D01*
X94901523Y-92593390D02*
X94949142Y-92641009D01*
X94949142Y-92641009D02*
X94996761Y-92736247D01*
X94996761Y-92736247D02*
X94996761Y-92974342D01*
X94996761Y-92974342D02*
X94949142Y-93069580D01*
X94949142Y-93069580D02*
X94901523Y-93117200D01*
X94901523Y-93117200D02*
X94806285Y-93164819D01*
X94806285Y-93164819D02*
X94520571Y-93164819D01*
X94520571Y-93164819D02*
X94425333Y-93117200D01*
X94425333Y-93117200D02*
X94377714Y-93069580D01*
X95377714Y-92260057D02*
X95425333Y-92212438D01*
X95425333Y-92212438D02*
X95520571Y-92164819D01*
X95520571Y-92164819D02*
X95758666Y-92164819D01*
X95758666Y-92164819D02*
X95853904Y-92212438D01*
X95853904Y-92212438D02*
X95901523Y-92260057D01*
X95901523Y-92260057D02*
X95949142Y-92355295D01*
X95949142Y-92355295D02*
X95949142Y-92450533D01*
X95949142Y-92450533D02*
X95901523Y-92593390D01*
X95901523Y-92593390D02*
X95330095Y-93164819D01*
X95330095Y-93164819D02*
X95949142Y-93164819D01*
X96377714Y-92783866D02*
X97139619Y-92783866D01*
X97615809Y-92498152D02*
X97615809Y-93498152D01*
X97615809Y-92545771D02*
X97711047Y-92498152D01*
X97711047Y-92498152D02*
X97901523Y-92498152D01*
X97901523Y-92498152D02*
X97996761Y-92545771D01*
X97996761Y-92545771D02*
X98044380Y-92593390D01*
X98044380Y-92593390D02*
X98091999Y-92688628D01*
X98091999Y-92688628D02*
X98091999Y-92974342D01*
X98091999Y-92974342D02*
X98044380Y-93069580D01*
X98044380Y-93069580D02*
X97996761Y-93117200D01*
X97996761Y-93117200D02*
X97901523Y-93164819D01*
X97901523Y-93164819D02*
X97711047Y-93164819D01*
X97711047Y-93164819D02*
X97615809Y-93117200D01*
X98520571Y-93164819D02*
X98520571Y-92498152D01*
X98520571Y-92164819D02*
X98472952Y-92212438D01*
X98472952Y-92212438D02*
X98520571Y-92260057D01*
X98520571Y-92260057D02*
X98568190Y-92212438D01*
X98568190Y-92212438D02*
X98520571Y-92164819D01*
X98520571Y-92164819D02*
X98520571Y-92260057D01*
X98996761Y-92498152D02*
X98996761Y-93164819D01*
X98996761Y-92593390D02*
X99044380Y-92545771D01*
X99044380Y-92545771D02*
X99139618Y-92498152D01*
X99139618Y-92498152D02*
X99282475Y-92498152D01*
X99282475Y-92498152D02*
X99377713Y-92545771D01*
X99377713Y-92545771D02*
X99425332Y-92641009D01*
X99425332Y-92641009D02*
X99425332Y-93164819D01*
X99853904Y-93117200D02*
X99949142Y-93164819D01*
X99949142Y-93164819D02*
X100139618Y-93164819D01*
X100139618Y-93164819D02*
X100234856Y-93117200D01*
X100234856Y-93117200D02*
X100282475Y-93021961D01*
X100282475Y-93021961D02*
X100282475Y-92974342D01*
X100282475Y-92974342D02*
X100234856Y-92879104D01*
X100234856Y-92879104D02*
X100139618Y-92831485D01*
X100139618Y-92831485D02*
X99996761Y-92831485D01*
X99996761Y-92831485D02*
X99901523Y-92783866D01*
X99901523Y-92783866D02*
X99853904Y-92688628D01*
X99853904Y-92688628D02*
X99853904Y-92641009D01*
X99853904Y-92641009D02*
X99901523Y-92545771D01*
X99901523Y-92545771D02*
X99996761Y-92498152D01*
X99996761Y-92498152D02*
X100139618Y-92498152D01*
X100139618Y-92498152D02*
X100234856Y-92545771D01*
X100711047Y-92783866D02*
X101472952Y-92783866D01*
X101949142Y-93164819D02*
X101949142Y-92164819D01*
X102377713Y-93164819D02*
X102377713Y-92641009D01*
X102377713Y-92641009D02*
X102330094Y-92545771D01*
X102330094Y-92545771D02*
X102234856Y-92498152D01*
X102234856Y-92498152D02*
X102091999Y-92498152D01*
X102091999Y-92498152D02*
X101996761Y-92545771D01*
X101996761Y-92545771D02*
X101949142Y-92593390D01*
X103234856Y-93117200D02*
X103139618Y-93164819D01*
X103139618Y-93164819D02*
X102949142Y-93164819D01*
X102949142Y-93164819D02*
X102853904Y-93117200D01*
X102853904Y-93117200D02*
X102806285Y-93021961D01*
X102806285Y-93021961D02*
X102806285Y-92641009D01*
X102806285Y-92641009D02*
X102853904Y-92545771D01*
X102853904Y-92545771D02*
X102949142Y-92498152D01*
X102949142Y-92498152D02*
X103139618Y-92498152D01*
X103139618Y-92498152D02*
X103234856Y-92545771D01*
X103234856Y-92545771D02*
X103282475Y-92641009D01*
X103282475Y-92641009D02*
X103282475Y-92736247D01*
X103282475Y-92736247D02*
X102806285Y-92831485D01*
X104139618Y-93164819D02*
X104139618Y-92641009D01*
X104139618Y-92641009D02*
X104091999Y-92545771D01*
X104091999Y-92545771D02*
X103996761Y-92498152D01*
X103996761Y-92498152D02*
X103806285Y-92498152D01*
X103806285Y-92498152D02*
X103711047Y-92545771D01*
X104139618Y-93117200D02*
X104044380Y-93164819D01*
X104044380Y-93164819D02*
X103806285Y-93164819D01*
X103806285Y-93164819D02*
X103711047Y-93117200D01*
X103711047Y-93117200D02*
X103663428Y-93021961D01*
X103663428Y-93021961D02*
X103663428Y-92926723D01*
X103663428Y-92926723D02*
X103711047Y-92831485D01*
X103711047Y-92831485D02*
X103806285Y-92783866D01*
X103806285Y-92783866D02*
X104044380Y-92783866D01*
X104044380Y-92783866D02*
X104139618Y-92736247D01*
X105044380Y-93164819D02*
X105044380Y-92164819D01*
X105044380Y-93117200D02*
X104949142Y-93164819D01*
X104949142Y-93164819D02*
X104758666Y-93164819D01*
X104758666Y-93164819D02*
X104663428Y-93117200D01*
X104663428Y-93117200D02*
X104615809Y-93069580D01*
X104615809Y-93069580D02*
X104568190Y-92974342D01*
X104568190Y-92974342D02*
X104568190Y-92688628D01*
X104568190Y-92688628D02*
X104615809Y-92593390D01*
X104615809Y-92593390D02*
X104663428Y-92545771D01*
X104663428Y-92545771D02*
X104758666Y-92498152D01*
X104758666Y-92498152D02*
X104949142Y-92498152D01*
X104949142Y-92498152D02*
X105044380Y-92545771D01*
X105901523Y-93117200D02*
X105806285Y-93164819D01*
X105806285Y-93164819D02*
X105615809Y-93164819D01*
X105615809Y-93164819D02*
X105520571Y-93117200D01*
X105520571Y-93117200D02*
X105472952Y-93021961D01*
X105472952Y-93021961D02*
X105472952Y-92641009D01*
X105472952Y-92641009D02*
X105520571Y-92545771D01*
X105520571Y-92545771D02*
X105615809Y-92498152D01*
X105615809Y-92498152D02*
X105806285Y-92498152D01*
X105806285Y-92498152D02*
X105901523Y-92545771D01*
X105901523Y-92545771D02*
X105949142Y-92641009D01*
X105949142Y-92641009D02*
X105949142Y-92736247D01*
X105949142Y-92736247D02*
X105472952Y-92831485D01*
X106377714Y-93164819D02*
X106377714Y-92498152D01*
X106377714Y-92688628D02*
X106425333Y-92593390D01*
X106425333Y-92593390D02*
X106472952Y-92545771D01*
X106472952Y-92545771D02*
X106568190Y-92498152D01*
X106568190Y-92498152D02*
X106663428Y-92498152D01*
X106996762Y-92783866D02*
X107758667Y-92783866D01*
X108377714Y-93164819D02*
X108282476Y-93117200D01*
X108282476Y-93117200D02*
X108234857Y-93021961D01*
X108234857Y-93021961D02*
X108234857Y-92164819D01*
X109139619Y-93117200D02*
X109044381Y-93164819D01*
X109044381Y-93164819D02*
X108853905Y-93164819D01*
X108853905Y-93164819D02*
X108758667Y-93117200D01*
X108758667Y-93117200D02*
X108711048Y-93021961D01*
X108711048Y-93021961D02*
X108711048Y-92641009D01*
X108711048Y-92641009D02*
X108758667Y-92545771D01*
X108758667Y-92545771D02*
X108853905Y-92498152D01*
X108853905Y-92498152D02*
X109044381Y-92498152D01*
X109044381Y-92498152D02*
X109139619Y-92545771D01*
X109139619Y-92545771D02*
X109187238Y-92641009D01*
X109187238Y-92641009D02*
X109187238Y-92736247D01*
X109187238Y-92736247D02*
X108711048Y-92831485D01*
X109472953Y-92498152D02*
X109853905Y-92498152D01*
X109615810Y-93164819D02*
X109615810Y-92307676D01*
X109615810Y-92307676D02*
X109663429Y-92212438D01*
X109663429Y-92212438D02*
X109758667Y-92164819D01*
X109758667Y-92164819D02*
X109853905Y-92164819D01*
X110044382Y-92498152D02*
X110425334Y-92498152D01*
X110187239Y-92164819D02*
X110187239Y-93021961D01*
X110187239Y-93021961D02*
X110234858Y-93117200D01*
X110234858Y-93117200D02*
X110330096Y-93164819D01*
X110330096Y-93164819D02*
X110425334Y-93164819D01*
X89630819Y-83813333D02*
X90345104Y-83813333D01*
X90345104Y-83813333D02*
X90487961Y-83860952D01*
X90487961Y-83860952D02*
X90583200Y-83956190D01*
X90583200Y-83956190D02*
X90630819Y-84099047D01*
X90630819Y-84099047D02*
X90630819Y-84194285D01*
X90630819Y-82813333D02*
X90630819Y-83384761D01*
X90630819Y-83099047D02*
X89630819Y-83099047D01*
X89630819Y-83099047D02*
X89773676Y-83194285D01*
X89773676Y-83194285D02*
X89868914Y-83289523D01*
X89868914Y-83289523D02*
X89916533Y-83384761D01*
X88758285Y-94895200D02*
X88663047Y-94942819D01*
X88663047Y-94942819D02*
X88472571Y-94942819D01*
X88472571Y-94942819D02*
X88377333Y-94895200D01*
X88377333Y-94895200D02*
X88329714Y-94799961D01*
X88329714Y-94799961D02*
X88329714Y-94419009D01*
X88329714Y-94419009D02*
X88377333Y-94323771D01*
X88377333Y-94323771D02*
X88472571Y-94276152D01*
X88472571Y-94276152D02*
X88663047Y-94276152D01*
X88663047Y-94276152D02*
X88758285Y-94323771D01*
X88758285Y-94323771D02*
X88805904Y-94419009D01*
X88805904Y-94419009D02*
X88805904Y-94514247D01*
X88805904Y-94514247D02*
X88329714Y-94609485D01*
X89186857Y-94895200D02*
X89282095Y-94942819D01*
X89282095Y-94942819D02*
X89472571Y-94942819D01*
X89472571Y-94942819D02*
X89567809Y-94895200D01*
X89567809Y-94895200D02*
X89615428Y-94799961D01*
X89615428Y-94799961D02*
X89615428Y-94752342D01*
X89615428Y-94752342D02*
X89567809Y-94657104D01*
X89567809Y-94657104D02*
X89472571Y-94609485D01*
X89472571Y-94609485D02*
X89329714Y-94609485D01*
X89329714Y-94609485D02*
X89234476Y-94561866D01*
X89234476Y-94561866D02*
X89186857Y-94466628D01*
X89186857Y-94466628D02*
X89186857Y-94419009D01*
X89186857Y-94419009D02*
X89234476Y-94323771D01*
X89234476Y-94323771D02*
X89329714Y-94276152D01*
X89329714Y-94276152D02*
X89472571Y-94276152D01*
X89472571Y-94276152D02*
X89567809Y-94323771D01*
X90044000Y-94276152D02*
X90044000Y-95276152D01*
X90044000Y-94323771D02*
X90139238Y-94276152D01*
X90139238Y-94276152D02*
X90329714Y-94276152D01*
X90329714Y-94276152D02*
X90424952Y-94323771D01*
X90424952Y-94323771D02*
X90472571Y-94371390D01*
X90472571Y-94371390D02*
X90520190Y-94466628D01*
X90520190Y-94466628D02*
X90520190Y-94752342D01*
X90520190Y-94752342D02*
X90472571Y-94847580D01*
X90472571Y-94847580D02*
X90424952Y-94895200D01*
X90424952Y-94895200D02*
X90329714Y-94942819D01*
X90329714Y-94942819D02*
X90139238Y-94942819D01*
X90139238Y-94942819D02*
X90044000Y-94895200D01*
X90853524Y-93942819D02*
X91472571Y-93942819D01*
X91472571Y-93942819D02*
X91139238Y-94323771D01*
X91139238Y-94323771D02*
X91282095Y-94323771D01*
X91282095Y-94323771D02*
X91377333Y-94371390D01*
X91377333Y-94371390D02*
X91424952Y-94419009D01*
X91424952Y-94419009D02*
X91472571Y-94514247D01*
X91472571Y-94514247D02*
X91472571Y-94752342D01*
X91472571Y-94752342D02*
X91424952Y-94847580D01*
X91424952Y-94847580D02*
X91377333Y-94895200D01*
X91377333Y-94895200D02*
X91282095Y-94942819D01*
X91282095Y-94942819D02*
X90996381Y-94942819D01*
X90996381Y-94942819D02*
X90901143Y-94895200D01*
X90901143Y-94895200D02*
X90853524Y-94847580D01*
X91853524Y-94038057D02*
X91901143Y-93990438D01*
X91901143Y-93990438D02*
X91996381Y-93942819D01*
X91996381Y-93942819D02*
X92234476Y-93942819D01*
X92234476Y-93942819D02*
X92329714Y-93990438D01*
X92329714Y-93990438D02*
X92377333Y-94038057D01*
X92377333Y-94038057D02*
X92424952Y-94133295D01*
X92424952Y-94133295D02*
X92424952Y-94228533D01*
X92424952Y-94228533D02*
X92377333Y-94371390D01*
X92377333Y-94371390D02*
X91805905Y-94942819D01*
X91805905Y-94942819D02*
X92424952Y-94942819D01*
X92853524Y-94561866D02*
X93615429Y-94561866D01*
X94091619Y-94276152D02*
X94091619Y-95276152D01*
X94091619Y-94323771D02*
X94186857Y-94276152D01*
X94186857Y-94276152D02*
X94377333Y-94276152D01*
X94377333Y-94276152D02*
X94472571Y-94323771D01*
X94472571Y-94323771D02*
X94520190Y-94371390D01*
X94520190Y-94371390D02*
X94567809Y-94466628D01*
X94567809Y-94466628D02*
X94567809Y-94752342D01*
X94567809Y-94752342D02*
X94520190Y-94847580D01*
X94520190Y-94847580D02*
X94472571Y-94895200D01*
X94472571Y-94895200D02*
X94377333Y-94942819D01*
X94377333Y-94942819D02*
X94186857Y-94942819D01*
X94186857Y-94942819D02*
X94091619Y-94895200D01*
X94996381Y-94942819D02*
X94996381Y-94276152D01*
X94996381Y-93942819D02*
X94948762Y-93990438D01*
X94948762Y-93990438D02*
X94996381Y-94038057D01*
X94996381Y-94038057D02*
X95044000Y-93990438D01*
X95044000Y-93990438D02*
X94996381Y-93942819D01*
X94996381Y-93942819D02*
X94996381Y-94038057D01*
X95472571Y-94276152D02*
X95472571Y-94942819D01*
X95472571Y-94371390D02*
X95520190Y-94323771D01*
X95520190Y-94323771D02*
X95615428Y-94276152D01*
X95615428Y-94276152D02*
X95758285Y-94276152D01*
X95758285Y-94276152D02*
X95853523Y-94323771D01*
X95853523Y-94323771D02*
X95901142Y-94419009D01*
X95901142Y-94419009D02*
X95901142Y-94942819D01*
X96329714Y-94895200D02*
X96424952Y-94942819D01*
X96424952Y-94942819D02*
X96615428Y-94942819D01*
X96615428Y-94942819D02*
X96710666Y-94895200D01*
X96710666Y-94895200D02*
X96758285Y-94799961D01*
X96758285Y-94799961D02*
X96758285Y-94752342D01*
X96758285Y-94752342D02*
X96710666Y-94657104D01*
X96710666Y-94657104D02*
X96615428Y-94609485D01*
X96615428Y-94609485D02*
X96472571Y-94609485D01*
X96472571Y-94609485D02*
X96377333Y-94561866D01*
X96377333Y-94561866D02*
X96329714Y-94466628D01*
X96329714Y-94466628D02*
X96329714Y-94419009D01*
X96329714Y-94419009D02*
X96377333Y-94323771D01*
X96377333Y-94323771D02*
X96472571Y-94276152D01*
X96472571Y-94276152D02*
X96615428Y-94276152D01*
X96615428Y-94276152D02*
X96710666Y-94323771D01*
X97186857Y-94561866D02*
X97948762Y-94561866D01*
X98424952Y-94942819D02*
X98424952Y-93942819D01*
X98853523Y-94942819D02*
X98853523Y-94419009D01*
X98853523Y-94419009D02*
X98805904Y-94323771D01*
X98805904Y-94323771D02*
X98710666Y-94276152D01*
X98710666Y-94276152D02*
X98567809Y-94276152D01*
X98567809Y-94276152D02*
X98472571Y-94323771D01*
X98472571Y-94323771D02*
X98424952Y-94371390D01*
X99710666Y-94895200D02*
X99615428Y-94942819D01*
X99615428Y-94942819D02*
X99424952Y-94942819D01*
X99424952Y-94942819D02*
X99329714Y-94895200D01*
X99329714Y-94895200D02*
X99282095Y-94799961D01*
X99282095Y-94799961D02*
X99282095Y-94419009D01*
X99282095Y-94419009D02*
X99329714Y-94323771D01*
X99329714Y-94323771D02*
X99424952Y-94276152D01*
X99424952Y-94276152D02*
X99615428Y-94276152D01*
X99615428Y-94276152D02*
X99710666Y-94323771D01*
X99710666Y-94323771D02*
X99758285Y-94419009D01*
X99758285Y-94419009D02*
X99758285Y-94514247D01*
X99758285Y-94514247D02*
X99282095Y-94609485D01*
X100615428Y-94942819D02*
X100615428Y-94419009D01*
X100615428Y-94419009D02*
X100567809Y-94323771D01*
X100567809Y-94323771D02*
X100472571Y-94276152D01*
X100472571Y-94276152D02*
X100282095Y-94276152D01*
X100282095Y-94276152D02*
X100186857Y-94323771D01*
X100615428Y-94895200D02*
X100520190Y-94942819D01*
X100520190Y-94942819D02*
X100282095Y-94942819D01*
X100282095Y-94942819D02*
X100186857Y-94895200D01*
X100186857Y-94895200D02*
X100139238Y-94799961D01*
X100139238Y-94799961D02*
X100139238Y-94704723D01*
X100139238Y-94704723D02*
X100186857Y-94609485D01*
X100186857Y-94609485D02*
X100282095Y-94561866D01*
X100282095Y-94561866D02*
X100520190Y-94561866D01*
X100520190Y-94561866D02*
X100615428Y-94514247D01*
X101520190Y-94942819D02*
X101520190Y-93942819D01*
X101520190Y-94895200D02*
X101424952Y-94942819D01*
X101424952Y-94942819D02*
X101234476Y-94942819D01*
X101234476Y-94942819D02*
X101139238Y-94895200D01*
X101139238Y-94895200D02*
X101091619Y-94847580D01*
X101091619Y-94847580D02*
X101044000Y-94752342D01*
X101044000Y-94752342D02*
X101044000Y-94466628D01*
X101044000Y-94466628D02*
X101091619Y-94371390D01*
X101091619Y-94371390D02*
X101139238Y-94323771D01*
X101139238Y-94323771D02*
X101234476Y-94276152D01*
X101234476Y-94276152D02*
X101424952Y-94276152D01*
X101424952Y-94276152D02*
X101520190Y-94323771D01*
X102377333Y-94895200D02*
X102282095Y-94942819D01*
X102282095Y-94942819D02*
X102091619Y-94942819D01*
X102091619Y-94942819D02*
X101996381Y-94895200D01*
X101996381Y-94895200D02*
X101948762Y-94799961D01*
X101948762Y-94799961D02*
X101948762Y-94419009D01*
X101948762Y-94419009D02*
X101996381Y-94323771D01*
X101996381Y-94323771D02*
X102091619Y-94276152D01*
X102091619Y-94276152D02*
X102282095Y-94276152D01*
X102282095Y-94276152D02*
X102377333Y-94323771D01*
X102377333Y-94323771D02*
X102424952Y-94419009D01*
X102424952Y-94419009D02*
X102424952Y-94514247D01*
X102424952Y-94514247D02*
X101948762Y-94609485D01*
X102853524Y-94942819D02*
X102853524Y-94276152D01*
X102853524Y-94466628D02*
X102901143Y-94371390D01*
X102901143Y-94371390D02*
X102948762Y-94323771D01*
X102948762Y-94323771D02*
X103044000Y-94276152D01*
X103044000Y-94276152D02*
X103139238Y-94276152D01*
X103472572Y-94561866D02*
X104234477Y-94561866D01*
X104710667Y-94942819D02*
X104710667Y-94276152D01*
X104710667Y-94466628D02*
X104758286Y-94371390D01*
X104758286Y-94371390D02*
X104805905Y-94323771D01*
X104805905Y-94323771D02*
X104901143Y-94276152D01*
X104901143Y-94276152D02*
X104996381Y-94276152D01*
X105329715Y-94942819D02*
X105329715Y-94276152D01*
X105329715Y-93942819D02*
X105282096Y-93990438D01*
X105282096Y-93990438D02*
X105329715Y-94038057D01*
X105329715Y-94038057D02*
X105377334Y-93990438D01*
X105377334Y-93990438D02*
X105329715Y-93942819D01*
X105329715Y-93942819D02*
X105329715Y-94038057D01*
X106234476Y-94276152D02*
X106234476Y-95085676D01*
X106234476Y-95085676D02*
X106186857Y-95180914D01*
X106186857Y-95180914D02*
X106139238Y-95228533D01*
X106139238Y-95228533D02*
X106044000Y-95276152D01*
X106044000Y-95276152D02*
X105901143Y-95276152D01*
X105901143Y-95276152D02*
X105805905Y-95228533D01*
X106234476Y-94895200D02*
X106139238Y-94942819D01*
X106139238Y-94942819D02*
X105948762Y-94942819D01*
X105948762Y-94942819D02*
X105853524Y-94895200D01*
X105853524Y-94895200D02*
X105805905Y-94847580D01*
X105805905Y-94847580D02*
X105758286Y-94752342D01*
X105758286Y-94752342D02*
X105758286Y-94466628D01*
X105758286Y-94466628D02*
X105805905Y-94371390D01*
X105805905Y-94371390D02*
X105853524Y-94323771D01*
X105853524Y-94323771D02*
X105948762Y-94276152D01*
X105948762Y-94276152D02*
X106139238Y-94276152D01*
X106139238Y-94276152D02*
X106234476Y-94323771D01*
X106710667Y-94942819D02*
X106710667Y-93942819D01*
X107139238Y-94942819D02*
X107139238Y-94419009D01*
X107139238Y-94419009D02*
X107091619Y-94323771D01*
X107091619Y-94323771D02*
X106996381Y-94276152D01*
X106996381Y-94276152D02*
X106853524Y-94276152D01*
X106853524Y-94276152D02*
X106758286Y-94323771D01*
X106758286Y-94323771D02*
X106710667Y-94371390D01*
X107472572Y-94276152D02*
X107853524Y-94276152D01*
X107615429Y-93942819D02*
X107615429Y-94799961D01*
X107615429Y-94799961D02*
X107663048Y-94895200D01*
X107663048Y-94895200D02*
X107758286Y-94942819D01*
X107758286Y-94942819D02*
X107853524Y-94942819D01*
X115030819Y-83813333D02*
X115745104Y-83813333D01*
X115745104Y-83813333D02*
X115887961Y-83860952D01*
X115887961Y-83860952D02*
X115983200Y-83956190D01*
X115983200Y-83956190D02*
X116030819Y-84099047D01*
X116030819Y-84099047D02*
X116030819Y-84194285D01*
X115126057Y-83384761D02*
X115078438Y-83337142D01*
X115078438Y-83337142D02*
X115030819Y-83241904D01*
X115030819Y-83241904D02*
X115030819Y-83003809D01*
X115030819Y-83003809D02*
X115078438Y-82908571D01*
X115078438Y-82908571D02*
X115126057Y-82860952D01*
X115126057Y-82860952D02*
X115221295Y-82813333D01*
X115221295Y-82813333D02*
X115316533Y-82813333D01*
X115316533Y-82813333D02*
X115459390Y-82860952D01*
X115459390Y-82860952D02*
X116030819Y-83432380D01*
X116030819Y-83432380D02*
X116030819Y-82813333D01*
X100179523Y-68067819D02*
X99846190Y-67591628D01*
X99608095Y-68067819D02*
X99608095Y-67067819D01*
X99608095Y-67067819D02*
X99989047Y-67067819D01*
X99989047Y-67067819D02*
X100084285Y-67115438D01*
X100084285Y-67115438D02*
X100131904Y-67163057D01*
X100131904Y-67163057D02*
X100179523Y-67258295D01*
X100179523Y-67258295D02*
X100179523Y-67401152D01*
X100179523Y-67401152D02*
X100131904Y-67496390D01*
X100131904Y-67496390D02*
X100084285Y-67544009D01*
X100084285Y-67544009D02*
X99989047Y-67591628D01*
X99989047Y-67591628D02*
X99608095Y-67591628D01*
X100560476Y-67782104D02*
X101036666Y-67782104D01*
X100465238Y-68067819D02*
X100798571Y-67067819D01*
X100798571Y-67067819D02*
X101131904Y-68067819D01*
X101465238Y-67686866D02*
X102227143Y-67686866D01*
X102893809Y-67067819D02*
X102989047Y-67067819D01*
X102989047Y-67067819D02*
X103084285Y-67115438D01*
X103084285Y-67115438D02*
X103131904Y-67163057D01*
X103131904Y-67163057D02*
X103179523Y-67258295D01*
X103179523Y-67258295D02*
X103227142Y-67448771D01*
X103227142Y-67448771D02*
X103227142Y-67686866D01*
X103227142Y-67686866D02*
X103179523Y-67877342D01*
X103179523Y-67877342D02*
X103131904Y-67972580D01*
X103131904Y-67972580D02*
X103084285Y-68020200D01*
X103084285Y-68020200D02*
X102989047Y-68067819D01*
X102989047Y-68067819D02*
X102893809Y-68067819D01*
X102893809Y-68067819D02*
X102798571Y-68020200D01*
X102798571Y-68020200D02*
X102750952Y-67972580D01*
X102750952Y-67972580D02*
X102703333Y-67877342D01*
X102703333Y-67877342D02*
X102655714Y-67686866D01*
X102655714Y-67686866D02*
X102655714Y-67448771D01*
X102655714Y-67448771D02*
X102703333Y-67258295D01*
X102703333Y-67258295D02*
X102750952Y-67163057D01*
X102750952Y-67163057D02*
X102798571Y-67115438D01*
X102798571Y-67115438D02*
X102893809Y-67067819D01*
X104179523Y-68067819D02*
X103608095Y-68067819D01*
X103893809Y-68067819D02*
X103893809Y-67067819D01*
X103893809Y-67067819D02*
X103798571Y-67210676D01*
X103798571Y-67210676D02*
X103703333Y-67305914D01*
X103703333Y-67305914D02*
X103608095Y-67353533D01*
X104560476Y-68020200D02*
X104703333Y-68067819D01*
X104703333Y-68067819D02*
X104941428Y-68067819D01*
X104941428Y-68067819D02*
X105036666Y-68020200D01*
X105036666Y-68020200D02*
X105084285Y-67972580D01*
X105084285Y-67972580D02*
X105131904Y-67877342D01*
X105131904Y-67877342D02*
X105131904Y-67782104D01*
X105131904Y-67782104D02*
X105084285Y-67686866D01*
X105084285Y-67686866D02*
X105036666Y-67639247D01*
X105036666Y-67639247D02*
X104941428Y-67591628D01*
X104941428Y-67591628D02*
X104750952Y-67544009D01*
X104750952Y-67544009D02*
X104655714Y-67496390D01*
X104655714Y-67496390D02*
X104608095Y-67448771D01*
X104608095Y-67448771D02*
X104560476Y-67353533D01*
X104560476Y-67353533D02*
X104560476Y-67258295D01*
X104560476Y-67258295D02*
X104608095Y-67163057D01*
X104608095Y-67163057D02*
X104655714Y-67115438D01*
X104655714Y-67115438D02*
X104750952Y-67067819D01*
X104750952Y-67067819D02*
X104989047Y-67067819D01*
X104989047Y-67067819D02*
X105131904Y-67115438D01*
X105560476Y-68067819D02*
X105560476Y-67067819D01*
X105560476Y-67544009D02*
X106131904Y-67544009D01*
X106131904Y-68067819D02*
X106131904Y-67067819D01*
X102108095Y-78067819D02*
X102108095Y-78877342D01*
X102108095Y-78877342D02*
X102155714Y-78972580D01*
X102155714Y-78972580D02*
X102203333Y-79020200D01*
X102203333Y-79020200D02*
X102298571Y-79067819D01*
X102298571Y-79067819D02*
X102489047Y-79067819D01*
X102489047Y-79067819D02*
X102584285Y-79020200D01*
X102584285Y-79020200D02*
X102631904Y-78972580D01*
X102631904Y-78972580D02*
X102679523Y-78877342D01*
X102679523Y-78877342D02*
X102679523Y-78067819D01*
X103679523Y-79067819D02*
X103108095Y-79067819D01*
X103393809Y-79067819D02*
X103393809Y-78067819D01*
X103393809Y-78067819D02*
X103298571Y-78210676D01*
X103298571Y-78210676D02*
X103203333Y-78305914D01*
X103203333Y-78305914D02*
X103108095Y-78353533D01*
X101142286Y-91132819D02*
X101142286Y-90132819D01*
X101142286Y-90132819D02*
X101380381Y-90132819D01*
X101380381Y-90132819D02*
X101523238Y-90180438D01*
X101523238Y-90180438D02*
X101618476Y-90275676D01*
X101618476Y-90275676D02*
X101666095Y-90370914D01*
X101666095Y-90370914D02*
X101713714Y-90561390D01*
X101713714Y-90561390D02*
X101713714Y-90704247D01*
X101713714Y-90704247D02*
X101666095Y-90894723D01*
X101666095Y-90894723D02*
X101618476Y-90989961D01*
X101618476Y-90989961D02*
X101523238Y-91085200D01*
X101523238Y-91085200D02*
X101380381Y-91132819D01*
X101380381Y-91132819D02*
X101142286Y-91132819D01*
X102142286Y-91132819D02*
X102142286Y-90132819D01*
X102142286Y-90132819D02*
X102713714Y-91132819D01*
X102713714Y-91132819D02*
X102713714Y-90132819D01*
X103189905Y-91132819D02*
X103189905Y-90132819D01*
X103189905Y-90132819D02*
X103570857Y-90132819D01*
X103570857Y-90132819D02*
X103666095Y-90180438D01*
X103666095Y-90180438D02*
X103713714Y-90228057D01*
X103713714Y-90228057D02*
X103761333Y-90323295D01*
X103761333Y-90323295D02*
X103761333Y-90466152D01*
X103761333Y-90466152D02*
X103713714Y-90561390D01*
X103713714Y-90561390D02*
X103666095Y-90609009D01*
X103666095Y-90609009D02*
X103570857Y-90656628D01*
X103570857Y-90656628D02*
X103189905Y-90656628D01*
D11*
X104818666Y-90857530D02*
X104794857Y-90881340D01*
X104794857Y-90881340D02*
X104723428Y-90905149D01*
X104723428Y-90905149D02*
X104675809Y-90905149D01*
X104675809Y-90905149D02*
X104604381Y-90881340D01*
X104604381Y-90881340D02*
X104556762Y-90833720D01*
X104556762Y-90833720D02*
X104532952Y-90786101D01*
X104532952Y-90786101D02*
X104509143Y-90690863D01*
X104509143Y-90690863D02*
X104509143Y-90619435D01*
X104509143Y-90619435D02*
X104532952Y-90524197D01*
X104532952Y-90524197D02*
X104556762Y-90476578D01*
X104556762Y-90476578D02*
X104604381Y-90428959D01*
X104604381Y-90428959D02*
X104675809Y-90405149D01*
X104675809Y-90405149D02*
X104723428Y-90405149D01*
X104723428Y-90405149D02*
X104794857Y-90428959D01*
X104794857Y-90428959D02*
X104818666Y-90452768D01*
X104985333Y-90405149D02*
X105294857Y-90405149D01*
X105294857Y-90405149D02*
X105128190Y-90595625D01*
X105128190Y-90595625D02*
X105199619Y-90595625D01*
X105199619Y-90595625D02*
X105247238Y-90619435D01*
X105247238Y-90619435D02*
X105271047Y-90643244D01*
X105271047Y-90643244D02*
X105294857Y-90690863D01*
X105294857Y-90690863D02*
X105294857Y-90809911D01*
X105294857Y-90809911D02*
X105271047Y-90857530D01*
X105271047Y-90857530D02*
X105247238Y-90881340D01*
X105247238Y-90881340D02*
X105199619Y-90905149D01*
X105199619Y-90905149D02*
X105056762Y-90905149D01*
X105056762Y-90905149D02*
X105009143Y-90881340D01*
X105009143Y-90881340D02*
X104985333Y-90857530D01*
D12*
%TO.C,L1*%
X107500000Y-88408000D02*
X108400000Y-88408000D01*
X107500000Y-90408000D02*
X107500000Y-88408000D01*
X108400000Y-88408000D02*
X108400000Y-90408000D01*
X108400000Y-90408000D02*
X107500000Y-90408000D01*
%TO.C,C1*%
X109617000Y-87894000D02*
X111617000Y-87894000D01*
X109617000Y-89144000D02*
X109617000Y-87894000D01*
X111617000Y-87894000D02*
X111617000Y-89144000D01*
X111617000Y-89144000D02*
X109617000Y-89144000D01*
%TO.C,C2*%
X103902000Y-87894000D02*
X105902000Y-87894000D01*
X103902000Y-89144000D02*
X103902000Y-87894000D01*
X105902000Y-87894000D02*
X105902000Y-89144000D01*
X105902000Y-89144000D02*
X103902000Y-89144000D01*
%TO.C,J1*%
X87636000Y-72050000D02*
X88906000Y-70780000D01*
X87636000Y-96180000D02*
X87636000Y-72050000D01*
X88906000Y-70780000D02*
X92716000Y-70780000D01*
X92716000Y-70780000D02*
X92716000Y-96180000D01*
X92716000Y-96180000D02*
X87636000Y-96180000D01*
%TO.C,J2*%
X113036000Y-72050000D02*
X114306000Y-70780000D01*
X113036000Y-96180000D02*
X113036000Y-72050000D01*
X114306000Y-70780000D02*
X118116000Y-70780000D01*
X118116000Y-70780000D02*
X118116000Y-96180000D01*
X118116000Y-96180000D02*
X113036000Y-96180000D01*
D13*
%TO.C,U1*%
X110900000Y-87113000D02*
G75*
G02*
X110840000Y-87113000I-30000J0D01*
G01*
X110840000Y-87113000D02*
G75*
G02*
X110900000Y-87113000I30000J0D01*
G01*
D12*
%TO.C,C3*%
X103902000Y-90053000D02*
X105902000Y-90053000D01*
X103902000Y-91303000D02*
X103902000Y-90053000D01*
X105902000Y-90053000D02*
X105902000Y-91303000D01*
X105902000Y-91303000D02*
X103902000Y-91303000D01*
%TD*%
M02*
