%TF.GenerationSoftware,KiCad,Pcbnew,9.0.3+dfsg-1*%
%TF.CreationDate,2026-02-23T09:57:27+02:00*%
%TF.ProjectId,desk_power_monitor_mini32_lora,6465736b-5f70-46f7-9765-725f6d6f6e69,rev?*%
%TF.SameCoordinates,Original*%
%TF.FileFunction,Other,Comment*%
%FSLAX46Y46*%
G04 Gerber Fmt 4.6, Leading zero omitted, Abs format (unit mm)*
G04 Created by KiCad (PCBNEW 9.0.3+dfsg-1) date 2026-02-23 09:57:27*
%MOMM*%
%LPD*%
G01*
G04 APERTURE LIST*
%ADD10C,0.150000*%
%ADD11C,0.400000*%
G04 APERTURE END LIST*
D10*
X96076570Y-93155819D02*
X96076570Y-92632009D01*
X96076570Y-92632009D02*
X96028951Y-92536771D01*
X96028951Y-92536771D02*
X95933713Y-92489152D01*
X95933713Y-92489152D02*
X95743237Y-92489152D01*
X95743237Y-92489152D02*
X95647999Y-92536771D01*
X96076570Y-93108200D02*
X95981332Y-93155819D01*
X95981332Y-93155819D02*
X95743237Y-93155819D01*
X95743237Y-93155819D02*
X95647999Y-93108200D01*
X95647999Y-93108200D02*
X95600380Y-93012961D01*
X95600380Y-93012961D02*
X95600380Y-92917723D01*
X95600380Y-92917723D02*
X95647999Y-92822485D01*
X95647999Y-92822485D02*
X95743237Y-92774866D01*
X95743237Y-92774866D02*
X95981332Y-92774866D01*
X95981332Y-92774866D02*
X96076570Y-92727247D01*
X96552761Y-92489152D02*
X96552761Y-93155819D01*
X96552761Y-92584390D02*
X96600380Y-92536771D01*
X96600380Y-92536771D02*
X96695618Y-92489152D01*
X96695618Y-92489152D02*
X96838475Y-92489152D01*
X96838475Y-92489152D02*
X96933713Y-92536771D01*
X96933713Y-92536771D02*
X96981332Y-92632009D01*
X96981332Y-92632009D02*
X96981332Y-93155819D01*
X97362285Y-92489152D02*
X97600380Y-93155819D01*
X97838475Y-92489152D02*
X97600380Y-93155819D01*
X97600380Y-93155819D02*
X97505142Y-93393914D01*
X97505142Y-93393914D02*
X97457523Y-93441533D01*
X97457523Y-93441533D02*
X97362285Y-93489152D01*
X98981333Y-93155819D02*
X98981333Y-92155819D01*
X98981333Y-92155819D02*
X99362285Y-92155819D01*
X99362285Y-92155819D02*
X99457523Y-92203438D01*
X99457523Y-92203438D02*
X99505142Y-92251057D01*
X99505142Y-92251057D02*
X99552761Y-92346295D01*
X99552761Y-92346295D02*
X99552761Y-92489152D01*
X99552761Y-92489152D02*
X99505142Y-92584390D01*
X99505142Y-92584390D02*
X99457523Y-92632009D01*
X99457523Y-92632009D02*
X99362285Y-92679628D01*
X99362285Y-92679628D02*
X98981333Y-92679628D01*
X100552761Y-93060580D02*
X100505142Y-93108200D01*
X100505142Y-93108200D02*
X100362285Y-93155819D01*
X100362285Y-93155819D02*
X100267047Y-93155819D01*
X100267047Y-93155819D02*
X100124190Y-93108200D01*
X100124190Y-93108200D02*
X100028952Y-93012961D01*
X100028952Y-93012961D02*
X99981333Y-92917723D01*
X99981333Y-92917723D02*
X99933714Y-92727247D01*
X99933714Y-92727247D02*
X99933714Y-92584390D01*
X99933714Y-92584390D02*
X99981333Y-92393914D01*
X99981333Y-92393914D02*
X100028952Y-92298676D01*
X100028952Y-92298676D02*
X100124190Y-92203438D01*
X100124190Y-92203438D02*
X100267047Y-92155819D01*
X100267047Y-92155819D02*
X100362285Y-92155819D01*
X100362285Y-92155819D02*
X100505142Y-92203438D01*
X100505142Y-92203438D02*
X100552761Y-92251057D01*
X101314666Y-92632009D02*
X101457523Y-92679628D01*
X101457523Y-92679628D02*
X101505142Y-92727247D01*
X101505142Y-92727247D02*
X101552761Y-92822485D01*
X101552761Y-92822485D02*
X101552761Y-92965342D01*
X101552761Y-92965342D02*
X101505142Y-93060580D01*
X101505142Y-93060580D02*
X101457523Y-93108200D01*
X101457523Y-93108200D02*
X101362285Y-93155819D01*
X101362285Y-93155819D02*
X100981333Y-93155819D01*
X100981333Y-93155819D02*
X100981333Y-92155819D01*
X100981333Y-92155819D02*
X101314666Y-92155819D01*
X101314666Y-92155819D02*
X101409904Y-92203438D01*
X101409904Y-92203438D02*
X101457523Y-92251057D01*
X101457523Y-92251057D02*
X101505142Y-92346295D01*
X101505142Y-92346295D02*
X101505142Y-92441533D01*
X101505142Y-92441533D02*
X101457523Y-92536771D01*
X101457523Y-92536771D02*
X101409904Y-92584390D01*
X101409904Y-92584390D02*
X101314666Y-92632009D01*
X101314666Y-92632009D02*
X100981333Y-92632009D01*
X102886095Y-93155819D02*
X102790857Y-93108200D01*
X102790857Y-93108200D02*
X102743238Y-93012961D01*
X102743238Y-93012961D02*
X102743238Y-92155819D01*
X103695619Y-93155819D02*
X103695619Y-92632009D01*
X103695619Y-92632009D02*
X103648000Y-92536771D01*
X103648000Y-92536771D02*
X103552762Y-92489152D01*
X103552762Y-92489152D02*
X103362286Y-92489152D01*
X103362286Y-92489152D02*
X103267048Y-92536771D01*
X103695619Y-93108200D02*
X103600381Y-93155819D01*
X103600381Y-93155819D02*
X103362286Y-93155819D01*
X103362286Y-93155819D02*
X103267048Y-93108200D01*
X103267048Y-93108200D02*
X103219429Y-93012961D01*
X103219429Y-93012961D02*
X103219429Y-92917723D01*
X103219429Y-92917723D02*
X103267048Y-92822485D01*
X103267048Y-92822485D02*
X103362286Y-92774866D01*
X103362286Y-92774866D02*
X103600381Y-92774866D01*
X103600381Y-92774866D02*
X103695619Y-92727247D01*
X104076572Y-92489152D02*
X104314667Y-93155819D01*
X104552762Y-92489152D02*
X104314667Y-93155819D01*
X104314667Y-93155819D02*
X104219429Y-93393914D01*
X104219429Y-93393914D02*
X104171810Y-93441533D01*
X104171810Y-93441533D02*
X104076572Y-93489152D01*
X105314667Y-93108200D02*
X105219429Y-93155819D01*
X105219429Y-93155819D02*
X105028953Y-93155819D01*
X105028953Y-93155819D02*
X104933715Y-93108200D01*
X104933715Y-93108200D02*
X104886096Y-93012961D01*
X104886096Y-93012961D02*
X104886096Y-92632009D01*
X104886096Y-92632009D02*
X104933715Y-92536771D01*
X104933715Y-92536771D02*
X105028953Y-92489152D01*
X105028953Y-92489152D02*
X105219429Y-92489152D01*
X105219429Y-92489152D02*
X105314667Y-92536771D01*
X105314667Y-92536771D02*
X105362286Y-92632009D01*
X105362286Y-92632009D02*
X105362286Y-92727247D01*
X105362286Y-92727247D02*
X104886096Y-92822485D01*
X105790858Y-93155819D02*
X105790858Y-92489152D01*
X105790858Y-92679628D02*
X105838477Y-92584390D01*
X105838477Y-92584390D02*
X105886096Y-92536771D01*
X105886096Y-92536771D02*
X105981334Y-92489152D01*
X105981334Y-92489152D02*
X106076572Y-92489152D01*
X106409906Y-93060580D02*
X106457525Y-93108200D01*
X106457525Y-93108200D02*
X106409906Y-93155819D01*
X106409906Y-93155819D02*
X106362287Y-93108200D01*
X106362287Y-93108200D02*
X106409906Y-93060580D01*
X106409906Y-93060580D02*
X106409906Y-93155819D01*
X93886094Y-95155819D02*
X93886094Y-94632009D01*
X93886094Y-94632009D02*
X93838475Y-94536771D01*
X93838475Y-94536771D02*
X93743237Y-94489152D01*
X93743237Y-94489152D02*
X93552761Y-94489152D01*
X93552761Y-94489152D02*
X93457523Y-94536771D01*
X93886094Y-95108200D02*
X93790856Y-95155819D01*
X93790856Y-95155819D02*
X93552761Y-95155819D01*
X93552761Y-95155819D02*
X93457523Y-95108200D01*
X93457523Y-95108200D02*
X93409904Y-95012961D01*
X93409904Y-95012961D02*
X93409904Y-94917723D01*
X93409904Y-94917723D02*
X93457523Y-94822485D01*
X93457523Y-94822485D02*
X93552761Y-94774866D01*
X93552761Y-94774866D02*
X93790856Y-94774866D01*
X93790856Y-94774866D02*
X93886094Y-94727247D01*
X94362285Y-94489152D02*
X94362285Y-95155819D01*
X94362285Y-94584390D02*
X94409904Y-94536771D01*
X94409904Y-94536771D02*
X94505142Y-94489152D01*
X94505142Y-94489152D02*
X94647999Y-94489152D01*
X94647999Y-94489152D02*
X94743237Y-94536771D01*
X94743237Y-94536771D02*
X94790856Y-94632009D01*
X94790856Y-94632009D02*
X94790856Y-95155819D01*
X95171809Y-94489152D02*
X95409904Y-95155819D01*
X95647999Y-94489152D02*
X95409904Y-95155819D01*
X95409904Y-95155819D02*
X95314666Y-95393914D01*
X95314666Y-95393914D02*
X95267047Y-95441533D01*
X95267047Y-95441533D02*
X95171809Y-95489152D01*
X97219428Y-95108200D02*
X97124190Y-95155819D01*
X97124190Y-95155819D02*
X96933714Y-95155819D01*
X96933714Y-95155819D02*
X96838476Y-95108200D01*
X96838476Y-95108200D02*
X96790857Y-95060580D01*
X96790857Y-95060580D02*
X96743238Y-94965342D01*
X96743238Y-94965342D02*
X96743238Y-94679628D01*
X96743238Y-94679628D02*
X96790857Y-94584390D01*
X96790857Y-94584390D02*
X96838476Y-94536771D01*
X96838476Y-94536771D02*
X96933714Y-94489152D01*
X96933714Y-94489152D02*
X97124190Y-94489152D01*
X97124190Y-94489152D02*
X97219428Y-94536771D01*
X97790857Y-95155819D02*
X97695619Y-95108200D01*
X97695619Y-95108200D02*
X97648000Y-95060580D01*
X97648000Y-95060580D02*
X97600381Y-94965342D01*
X97600381Y-94965342D02*
X97600381Y-94679628D01*
X97600381Y-94679628D02*
X97648000Y-94584390D01*
X97648000Y-94584390D02*
X97695619Y-94536771D01*
X97695619Y-94536771D02*
X97790857Y-94489152D01*
X97790857Y-94489152D02*
X97933714Y-94489152D01*
X97933714Y-94489152D02*
X98028952Y-94536771D01*
X98028952Y-94536771D02*
X98076571Y-94584390D01*
X98076571Y-94584390D02*
X98124190Y-94679628D01*
X98124190Y-94679628D02*
X98124190Y-94965342D01*
X98124190Y-94965342D02*
X98076571Y-95060580D01*
X98076571Y-95060580D02*
X98028952Y-95108200D01*
X98028952Y-95108200D02*
X97933714Y-95155819D01*
X97933714Y-95155819D02*
X97790857Y-95155819D01*
X98552762Y-95155819D02*
X98552762Y-94489152D01*
X98552762Y-94584390D02*
X98600381Y-94536771D01*
X98600381Y-94536771D02*
X98695619Y-94489152D01*
X98695619Y-94489152D02*
X98838476Y-94489152D01*
X98838476Y-94489152D02*
X98933714Y-94536771D01*
X98933714Y-94536771D02*
X98981333Y-94632009D01*
X98981333Y-94632009D02*
X98981333Y-95155819D01*
X98981333Y-94632009D02*
X99028952Y-94536771D01*
X99028952Y-94536771D02*
X99124190Y-94489152D01*
X99124190Y-94489152D02*
X99267047Y-94489152D01*
X99267047Y-94489152D02*
X99362286Y-94536771D01*
X99362286Y-94536771D02*
X99409905Y-94632009D01*
X99409905Y-94632009D02*
X99409905Y-95155819D01*
X99886095Y-94489152D02*
X99886095Y-95489152D01*
X99886095Y-94536771D02*
X99981333Y-94489152D01*
X99981333Y-94489152D02*
X100171809Y-94489152D01*
X100171809Y-94489152D02*
X100267047Y-94536771D01*
X100267047Y-94536771D02*
X100314666Y-94584390D01*
X100314666Y-94584390D02*
X100362285Y-94679628D01*
X100362285Y-94679628D02*
X100362285Y-94965342D01*
X100362285Y-94965342D02*
X100314666Y-95060580D01*
X100314666Y-95060580D02*
X100267047Y-95108200D01*
X100267047Y-95108200D02*
X100171809Y-95155819D01*
X100171809Y-95155819D02*
X99981333Y-95155819D01*
X99981333Y-95155819D02*
X99886095Y-95108200D01*
X100933714Y-95155819D02*
X100838476Y-95108200D01*
X100838476Y-95108200D02*
X100790857Y-95060580D01*
X100790857Y-95060580D02*
X100743238Y-94965342D01*
X100743238Y-94965342D02*
X100743238Y-94679628D01*
X100743238Y-94679628D02*
X100790857Y-94584390D01*
X100790857Y-94584390D02*
X100838476Y-94536771D01*
X100838476Y-94536771D02*
X100933714Y-94489152D01*
X100933714Y-94489152D02*
X101076571Y-94489152D01*
X101076571Y-94489152D02*
X101171809Y-94536771D01*
X101171809Y-94536771D02*
X101219428Y-94584390D01*
X101219428Y-94584390D02*
X101267047Y-94679628D01*
X101267047Y-94679628D02*
X101267047Y-94965342D01*
X101267047Y-94965342D02*
X101219428Y-95060580D01*
X101219428Y-95060580D02*
X101171809Y-95108200D01*
X101171809Y-95108200D02*
X101076571Y-95155819D01*
X101076571Y-95155819D02*
X100933714Y-95155819D01*
X101695619Y-94489152D02*
X101695619Y-95155819D01*
X101695619Y-94584390D02*
X101743238Y-94536771D01*
X101743238Y-94536771D02*
X101838476Y-94489152D01*
X101838476Y-94489152D02*
X101981333Y-94489152D01*
X101981333Y-94489152D02*
X102076571Y-94536771D01*
X102076571Y-94536771D02*
X102124190Y-94632009D01*
X102124190Y-94632009D02*
X102124190Y-95155819D01*
X102981333Y-95108200D02*
X102886095Y-95155819D01*
X102886095Y-95155819D02*
X102695619Y-95155819D01*
X102695619Y-95155819D02*
X102600381Y-95108200D01*
X102600381Y-95108200D02*
X102552762Y-95012961D01*
X102552762Y-95012961D02*
X102552762Y-94632009D01*
X102552762Y-94632009D02*
X102600381Y-94536771D01*
X102600381Y-94536771D02*
X102695619Y-94489152D01*
X102695619Y-94489152D02*
X102886095Y-94489152D01*
X102886095Y-94489152D02*
X102981333Y-94536771D01*
X102981333Y-94536771D02*
X103028952Y-94632009D01*
X103028952Y-94632009D02*
X103028952Y-94727247D01*
X103028952Y-94727247D02*
X102552762Y-94822485D01*
X103457524Y-94489152D02*
X103457524Y-95155819D01*
X103457524Y-94584390D02*
X103505143Y-94536771D01*
X103505143Y-94536771D02*
X103600381Y-94489152D01*
X103600381Y-94489152D02*
X103743238Y-94489152D01*
X103743238Y-94489152D02*
X103838476Y-94536771D01*
X103838476Y-94536771D02*
X103886095Y-94632009D01*
X103886095Y-94632009D02*
X103886095Y-95155819D01*
X104219429Y-94489152D02*
X104600381Y-94489152D01*
X104362286Y-94155819D02*
X104362286Y-95012961D01*
X104362286Y-95012961D02*
X104409905Y-95108200D01*
X104409905Y-95108200D02*
X104505143Y-95155819D01*
X104505143Y-95155819D02*
X104600381Y-95155819D01*
X104886096Y-95108200D02*
X104981334Y-95155819D01*
X104981334Y-95155819D02*
X105171810Y-95155819D01*
X105171810Y-95155819D02*
X105267048Y-95108200D01*
X105267048Y-95108200D02*
X105314667Y-95012961D01*
X105314667Y-95012961D02*
X105314667Y-94965342D01*
X105314667Y-94965342D02*
X105267048Y-94870104D01*
X105267048Y-94870104D02*
X105171810Y-94822485D01*
X105171810Y-94822485D02*
X105028953Y-94822485D01*
X105028953Y-94822485D02*
X104933715Y-94774866D01*
X104933715Y-94774866D02*
X104886096Y-94679628D01*
X104886096Y-94679628D02*
X104886096Y-94632009D01*
X104886096Y-94632009D02*
X104933715Y-94536771D01*
X104933715Y-94536771D02*
X105028953Y-94489152D01*
X105028953Y-94489152D02*
X105171810Y-94489152D01*
X105171810Y-94489152D02*
X105267048Y-94536771D01*
X106648001Y-95155819D02*
X106552763Y-95108200D01*
X106552763Y-95108200D02*
X106505144Y-95060580D01*
X106505144Y-95060580D02*
X106457525Y-94965342D01*
X106457525Y-94965342D02*
X106457525Y-94679628D01*
X106457525Y-94679628D02*
X106505144Y-94584390D01*
X106505144Y-94584390D02*
X106552763Y-94536771D01*
X106552763Y-94536771D02*
X106648001Y-94489152D01*
X106648001Y-94489152D02*
X106790858Y-94489152D01*
X106790858Y-94489152D02*
X106886096Y-94536771D01*
X106886096Y-94536771D02*
X106933715Y-94584390D01*
X106933715Y-94584390D02*
X106981334Y-94679628D01*
X106981334Y-94679628D02*
X106981334Y-94965342D01*
X106981334Y-94965342D02*
X106933715Y-95060580D01*
X106933715Y-95060580D02*
X106886096Y-95108200D01*
X106886096Y-95108200D02*
X106790858Y-95155819D01*
X106790858Y-95155819D02*
X106648001Y-95155819D01*
X107409906Y-94489152D02*
X107409906Y-95155819D01*
X107409906Y-94584390D02*
X107457525Y-94536771D01*
X107457525Y-94536771D02*
X107552763Y-94489152D01*
X107552763Y-94489152D02*
X107695620Y-94489152D01*
X107695620Y-94489152D02*
X107790858Y-94536771D01*
X107790858Y-94536771D02*
X107838477Y-94632009D01*
X107838477Y-94632009D02*
X107838477Y-95155819D01*
X94576571Y-100155819D02*
X94576571Y-99155819D01*
X95147999Y-100155819D02*
X94719428Y-99584390D01*
X95147999Y-99155819D02*
X94576571Y-99727247D01*
X95576571Y-99632009D02*
X95909904Y-99632009D01*
X96052761Y-100155819D02*
X95576571Y-100155819D01*
X95576571Y-100155819D02*
X95576571Y-99155819D01*
X95576571Y-99155819D02*
X96052761Y-99155819D01*
X96481333Y-99632009D02*
X96814666Y-99632009D01*
X96957523Y-100155819D02*
X96481333Y-100155819D01*
X96481333Y-100155819D02*
X96481333Y-99155819D01*
X96481333Y-99155819D02*
X96957523Y-99155819D01*
X97386095Y-100155819D02*
X97386095Y-99155819D01*
X97386095Y-99155819D02*
X97767047Y-99155819D01*
X97767047Y-99155819D02*
X97862285Y-99203438D01*
X97862285Y-99203438D02*
X97909904Y-99251057D01*
X97909904Y-99251057D02*
X97957523Y-99346295D01*
X97957523Y-99346295D02*
X97957523Y-99489152D01*
X97957523Y-99489152D02*
X97909904Y-99584390D01*
X97909904Y-99584390D02*
X97862285Y-99632009D01*
X97862285Y-99632009D02*
X97767047Y-99679628D01*
X97767047Y-99679628D02*
X97386095Y-99679628D01*
X98386095Y-99774866D02*
X99148000Y-99774866D01*
X99814666Y-99155819D02*
X100005142Y-99155819D01*
X100005142Y-99155819D02*
X100100380Y-99203438D01*
X100100380Y-99203438D02*
X100195618Y-99298676D01*
X100195618Y-99298676D02*
X100243237Y-99489152D01*
X100243237Y-99489152D02*
X100243237Y-99822485D01*
X100243237Y-99822485D02*
X100195618Y-100012961D01*
X100195618Y-100012961D02*
X100100380Y-100108200D01*
X100100380Y-100108200D02*
X100005142Y-100155819D01*
X100005142Y-100155819D02*
X99814666Y-100155819D01*
X99814666Y-100155819D02*
X99719428Y-100108200D01*
X99719428Y-100108200D02*
X99624190Y-100012961D01*
X99624190Y-100012961D02*
X99576571Y-99822485D01*
X99576571Y-99822485D02*
X99576571Y-99489152D01*
X99576571Y-99489152D02*
X99624190Y-99298676D01*
X99624190Y-99298676D02*
X99719428Y-99203438D01*
X99719428Y-99203438D02*
X99814666Y-99155819D01*
X100671809Y-99155819D02*
X100671809Y-99965342D01*
X100671809Y-99965342D02*
X100719428Y-100060580D01*
X100719428Y-100060580D02*
X100767047Y-100108200D01*
X100767047Y-100108200D02*
X100862285Y-100155819D01*
X100862285Y-100155819D02*
X101052761Y-100155819D01*
X101052761Y-100155819D02*
X101147999Y-100108200D01*
X101147999Y-100108200D02*
X101195618Y-100060580D01*
X101195618Y-100060580D02*
X101243237Y-99965342D01*
X101243237Y-99965342D02*
X101243237Y-99155819D01*
X101576571Y-99155819D02*
X102147999Y-99155819D01*
X101862285Y-100155819D02*
X101862285Y-99155819D01*
X103148000Y-99155819D02*
X103814666Y-99155819D01*
X103814666Y-99155819D02*
X103148000Y-100155819D01*
X103148000Y-100155819D02*
X103814666Y-100155819D01*
X104386095Y-99155819D02*
X104576571Y-99155819D01*
X104576571Y-99155819D02*
X104671809Y-99203438D01*
X104671809Y-99203438D02*
X104767047Y-99298676D01*
X104767047Y-99298676D02*
X104814666Y-99489152D01*
X104814666Y-99489152D02*
X104814666Y-99822485D01*
X104814666Y-99822485D02*
X104767047Y-100012961D01*
X104767047Y-100012961D02*
X104671809Y-100108200D01*
X104671809Y-100108200D02*
X104576571Y-100155819D01*
X104576571Y-100155819D02*
X104386095Y-100155819D01*
X104386095Y-100155819D02*
X104290857Y-100108200D01*
X104290857Y-100108200D02*
X104195619Y-100012961D01*
X104195619Y-100012961D02*
X104148000Y-99822485D01*
X104148000Y-99822485D02*
X104148000Y-99489152D01*
X104148000Y-99489152D02*
X104195619Y-99298676D01*
X104195619Y-99298676D02*
X104290857Y-99203438D01*
X104290857Y-99203438D02*
X104386095Y-99155819D01*
X105243238Y-100155819D02*
X105243238Y-99155819D01*
X105243238Y-99155819D02*
X105814666Y-100155819D01*
X105814666Y-100155819D02*
X105814666Y-99155819D01*
X106290857Y-99632009D02*
X106624190Y-99632009D01*
X106767047Y-100155819D02*
X106290857Y-100155819D01*
X106290857Y-100155819D02*
X106290857Y-99155819D01*
X106290857Y-99155819D02*
X106767047Y-99155819D01*
X92981332Y-97155819D02*
X92981332Y-96155819D01*
X92981332Y-96155819D02*
X93552760Y-97155819D01*
X93552760Y-97155819D02*
X93552760Y-96155819D01*
X94171808Y-97155819D02*
X94076570Y-97108200D01*
X94076570Y-97108200D02*
X94028951Y-97060580D01*
X94028951Y-97060580D02*
X93981332Y-96965342D01*
X93981332Y-96965342D02*
X93981332Y-96679628D01*
X93981332Y-96679628D02*
X94028951Y-96584390D01*
X94028951Y-96584390D02*
X94076570Y-96536771D01*
X94076570Y-96536771D02*
X94171808Y-96489152D01*
X94171808Y-96489152D02*
X94314665Y-96489152D01*
X94314665Y-96489152D02*
X94409903Y-96536771D01*
X94409903Y-96536771D02*
X94457522Y-96584390D01*
X94457522Y-96584390D02*
X94505141Y-96679628D01*
X94505141Y-96679628D02*
X94505141Y-96965342D01*
X94505141Y-96965342D02*
X94457522Y-97060580D01*
X94457522Y-97060580D02*
X94409903Y-97108200D01*
X94409903Y-97108200D02*
X94314665Y-97155819D01*
X94314665Y-97155819D02*
X94171808Y-97155819D01*
X95695618Y-97155819D02*
X95695618Y-96489152D01*
X95695618Y-96584390D02*
X95743237Y-96536771D01*
X95743237Y-96536771D02*
X95838475Y-96489152D01*
X95838475Y-96489152D02*
X95981332Y-96489152D01*
X95981332Y-96489152D02*
X96076570Y-96536771D01*
X96076570Y-96536771D02*
X96124189Y-96632009D01*
X96124189Y-96632009D02*
X96124189Y-97155819D01*
X96124189Y-96632009D02*
X96171808Y-96536771D01*
X96171808Y-96536771D02*
X96267046Y-96489152D01*
X96267046Y-96489152D02*
X96409903Y-96489152D01*
X96409903Y-96489152D02*
X96505142Y-96536771D01*
X96505142Y-96536771D02*
X96552761Y-96632009D01*
X96552761Y-96632009D02*
X96552761Y-97155819D01*
X97409903Y-97108200D02*
X97314665Y-97155819D01*
X97314665Y-97155819D02*
X97124189Y-97155819D01*
X97124189Y-97155819D02*
X97028951Y-97108200D01*
X97028951Y-97108200D02*
X96981332Y-97012961D01*
X96981332Y-97012961D02*
X96981332Y-96632009D01*
X96981332Y-96632009D02*
X97028951Y-96536771D01*
X97028951Y-96536771D02*
X97124189Y-96489152D01*
X97124189Y-96489152D02*
X97314665Y-96489152D01*
X97314665Y-96489152D02*
X97409903Y-96536771D01*
X97409903Y-96536771D02*
X97457522Y-96632009D01*
X97457522Y-96632009D02*
X97457522Y-96727247D01*
X97457522Y-96727247D02*
X96981332Y-96822485D01*
X97743237Y-96489152D02*
X98124189Y-96489152D01*
X97886094Y-96155819D02*
X97886094Y-97012961D01*
X97886094Y-97012961D02*
X97933713Y-97108200D01*
X97933713Y-97108200D02*
X98028951Y-97155819D01*
X98028951Y-97155819D02*
X98124189Y-97155819D01*
X98886094Y-97155819D02*
X98886094Y-96632009D01*
X98886094Y-96632009D02*
X98838475Y-96536771D01*
X98838475Y-96536771D02*
X98743237Y-96489152D01*
X98743237Y-96489152D02*
X98552761Y-96489152D01*
X98552761Y-96489152D02*
X98457523Y-96536771D01*
X98886094Y-97108200D02*
X98790856Y-97155819D01*
X98790856Y-97155819D02*
X98552761Y-97155819D01*
X98552761Y-97155819D02*
X98457523Y-97108200D01*
X98457523Y-97108200D02*
X98409904Y-97012961D01*
X98409904Y-97012961D02*
X98409904Y-96917723D01*
X98409904Y-96917723D02*
X98457523Y-96822485D01*
X98457523Y-96822485D02*
X98552761Y-96774866D01*
X98552761Y-96774866D02*
X98790856Y-96774866D01*
X98790856Y-96774866D02*
X98886094Y-96727247D01*
X99505142Y-97155819D02*
X99409904Y-97108200D01*
X99409904Y-97108200D02*
X99362285Y-97012961D01*
X99362285Y-97012961D02*
X99362285Y-96155819D01*
X99933714Y-97108200D02*
X99933714Y-97155819D01*
X99933714Y-97155819D02*
X99886095Y-97251057D01*
X99886095Y-97251057D02*
X99838476Y-97298676D01*
X100981333Y-96489152D02*
X101362285Y-96489152D01*
X101124190Y-96155819D02*
X101124190Y-97012961D01*
X101124190Y-97012961D02*
X101171809Y-97108200D01*
X101171809Y-97108200D02*
X101267047Y-97155819D01*
X101267047Y-97155819D02*
X101362285Y-97155819D01*
X101695619Y-97155819D02*
X101695619Y-96489152D01*
X101695619Y-96679628D02*
X101743238Y-96584390D01*
X101743238Y-96584390D02*
X101790857Y-96536771D01*
X101790857Y-96536771D02*
X101886095Y-96489152D01*
X101886095Y-96489152D02*
X101981333Y-96489152D01*
X102743238Y-97155819D02*
X102743238Y-96632009D01*
X102743238Y-96632009D02*
X102695619Y-96536771D01*
X102695619Y-96536771D02*
X102600381Y-96489152D01*
X102600381Y-96489152D02*
X102409905Y-96489152D01*
X102409905Y-96489152D02*
X102314667Y-96536771D01*
X102743238Y-97108200D02*
X102648000Y-97155819D01*
X102648000Y-97155819D02*
X102409905Y-97155819D01*
X102409905Y-97155819D02*
X102314667Y-97108200D01*
X102314667Y-97108200D02*
X102267048Y-97012961D01*
X102267048Y-97012961D02*
X102267048Y-96917723D01*
X102267048Y-96917723D02*
X102314667Y-96822485D01*
X102314667Y-96822485D02*
X102409905Y-96774866D01*
X102409905Y-96774866D02*
X102648000Y-96774866D01*
X102648000Y-96774866D02*
X102743238Y-96727247D01*
X103648000Y-97108200D02*
X103552762Y-97155819D01*
X103552762Y-97155819D02*
X103362286Y-97155819D01*
X103362286Y-97155819D02*
X103267048Y-97108200D01*
X103267048Y-97108200D02*
X103219429Y-97060580D01*
X103219429Y-97060580D02*
X103171810Y-96965342D01*
X103171810Y-96965342D02*
X103171810Y-96679628D01*
X103171810Y-96679628D02*
X103219429Y-96584390D01*
X103219429Y-96584390D02*
X103267048Y-96536771D01*
X103267048Y-96536771D02*
X103362286Y-96489152D01*
X103362286Y-96489152D02*
X103552762Y-96489152D01*
X103552762Y-96489152D02*
X103648000Y-96536771D01*
X104457524Y-97108200D02*
X104362286Y-97155819D01*
X104362286Y-97155819D02*
X104171810Y-97155819D01*
X104171810Y-97155819D02*
X104076572Y-97108200D01*
X104076572Y-97108200D02*
X104028953Y-97012961D01*
X104028953Y-97012961D02*
X104028953Y-96632009D01*
X104028953Y-96632009D02*
X104076572Y-96536771D01*
X104076572Y-96536771D02*
X104171810Y-96489152D01*
X104171810Y-96489152D02*
X104362286Y-96489152D01*
X104362286Y-96489152D02*
X104457524Y-96536771D01*
X104457524Y-96536771D02*
X104505143Y-96632009D01*
X104505143Y-96632009D02*
X104505143Y-96727247D01*
X104505143Y-96727247D02*
X104028953Y-96822485D01*
X104886096Y-97108200D02*
X104981334Y-97155819D01*
X104981334Y-97155819D02*
X105171810Y-97155819D01*
X105171810Y-97155819D02*
X105267048Y-97108200D01*
X105267048Y-97108200D02*
X105314667Y-97012961D01*
X105314667Y-97012961D02*
X105314667Y-96965342D01*
X105314667Y-96965342D02*
X105267048Y-96870104D01*
X105267048Y-96870104D02*
X105171810Y-96822485D01*
X105171810Y-96822485D02*
X105028953Y-96822485D01*
X105028953Y-96822485D02*
X104933715Y-96774866D01*
X104933715Y-96774866D02*
X104886096Y-96679628D01*
X104886096Y-96679628D02*
X104886096Y-96632009D01*
X104886096Y-96632009D02*
X104933715Y-96536771D01*
X104933715Y-96536771D02*
X105028953Y-96489152D01*
X105028953Y-96489152D02*
X105171810Y-96489152D01*
X105171810Y-96489152D02*
X105267048Y-96536771D01*
X106648001Y-97155819D02*
X106552763Y-97108200D01*
X106552763Y-97108200D02*
X106505144Y-97060580D01*
X106505144Y-97060580D02*
X106457525Y-96965342D01*
X106457525Y-96965342D02*
X106457525Y-96679628D01*
X106457525Y-96679628D02*
X106505144Y-96584390D01*
X106505144Y-96584390D02*
X106552763Y-96536771D01*
X106552763Y-96536771D02*
X106648001Y-96489152D01*
X106648001Y-96489152D02*
X106790858Y-96489152D01*
X106790858Y-96489152D02*
X106886096Y-96536771D01*
X106886096Y-96536771D02*
X106933715Y-96584390D01*
X106933715Y-96584390D02*
X106981334Y-96679628D01*
X106981334Y-96679628D02*
X106981334Y-96965342D01*
X106981334Y-96965342D02*
X106933715Y-97060580D01*
X106933715Y-97060580D02*
X106886096Y-97108200D01*
X106886096Y-97108200D02*
X106790858Y-97155819D01*
X106790858Y-97155819D02*
X106648001Y-97155819D01*
X107409906Y-97155819D02*
X107409906Y-96489152D01*
X107409906Y-96679628D02*
X107457525Y-96584390D01*
X107457525Y-96584390D02*
X107505144Y-96536771D01*
X107505144Y-96536771D02*
X107600382Y-96489152D01*
X107600382Y-96489152D02*
X107695620Y-96489152D01*
D11*
%TO.C,U1*%
X111580000Y-85603000D02*
G75*
G02*
X111180000Y-85603000I-200000J0D01*
G01*
X111180000Y-85603000D02*
G75*
G02*
X111580000Y-85603000I200000J0D01*
G01*
%TD*%
M02*
