%TF.GenerationSoftware,KiCad,Pcbnew,9.0.3+dfsg-1*%
%TF.CreationDate,2026-02-23T09:57:27+02:00*%
%TF.ProjectId,desk_power_monitor_mini32_lora,6465736b-5f70-46f7-9765-725f6d6f6e69,rev?*%
%TF.SameCoordinates,Original*%
%TF.FileFunction,Copper,L2,Bot*%
%TF.FilePolarity,Positive*%
%FSLAX46Y46*%
G04 Gerber Fmt 4.6, Leading zero omitted, Abs format (unit mm)*
G04 Created by KiCad (PCBNEW 9.0.3+dfsg-1) date 2026-02-23 09:57:27*
%MOMM*%
%LPD*%
G01*
G04 APERTURE LIST*
%TA.AperFunction,Conductor*%
%ADD10C,0.200000*%
%TD*%
%TA.AperFunction,EtchedComponent*%
%ADD11C,1.000000*%
%TD*%
%TA.AperFunction,ComponentPad*%
%ADD12C,1.000000*%
%TD*%
%TA.AperFunction,ComponentPad*%
%ADD13R,1.700000X1.700000*%
%TD*%
%TA.AperFunction,ComponentPad*%
%ADD14C,1.700000*%
%TD*%
%TA.AperFunction,ViaPad*%
%ADD15C,0.600000*%
%TD*%
%TA.AperFunction,Conductor*%
%ADD16C,0.500000*%
%TD*%
G04 APERTURE END LIST*
%TO.N,GNDREF*%
D10*
X98044000Y-71501000D02*
X108204000Y-71501000D01*
X108204000Y-85852000D01*
X98044000Y-85852000D01*
X98044000Y-71501000D01*
%TA.AperFunction,Conductor*%
G36*
X98044000Y-71501000D02*
G01*
X108204000Y-71501000D01*
X108204000Y-85852000D01*
X98044000Y-85852000D01*
X98044000Y-71501000D01*
G37*
%TD.AperFunction*%
D11*
%TD*%
%TO.C,AE1*%
X93648000Y-98701000D02*
X92648000Y-97701000D01*
%TO.C,AE1*%
X93648000Y-101701000D02*
X93648000Y-98701000D01*
X94648000Y-102701000D02*
X93648000Y-101701000D01*
X95648000Y-98701000D02*
X94648000Y-97701000D01*
X95648000Y-101701000D02*
X95648000Y-98701000D01*
X96648000Y-102701000D02*
X95648000Y-101701000D01*
X97648000Y-98701000D02*
X96648000Y-97701000D01*
X97648000Y-101701000D02*
X97648000Y-98701000D01*
X98648000Y-102701000D02*
X97648000Y-101701000D01*
X99648000Y-98701000D02*
X98648000Y-97701000D01*
X99648000Y-101701000D02*
X99648000Y-98701000D01*
X100648000Y-102701000D02*
X99648000Y-101701000D01*
X101648000Y-98701000D02*
X100648000Y-97701000D01*
X101648000Y-101701000D02*
X101648000Y-98701000D01*
X102648000Y-102701000D02*
X101648000Y-101701000D01*
X103648000Y-98701000D02*
X102648000Y-97701000D01*
X103648000Y-101701000D02*
X103648000Y-98701000D01*
X104648000Y-102701000D02*
X103648000Y-101701000D01*
X105648000Y-98701000D02*
X104648000Y-97701000D01*
X105648000Y-101701000D02*
X105648000Y-98701000D01*
X106648000Y-102701000D02*
X105648000Y-101701000D01*
X107648000Y-98701000D02*
X106648000Y-97701000D01*
X107648000Y-101701000D02*
X107648000Y-98701000D01*
X108648000Y-102701000D02*
X107648000Y-101701000D01*
X109648000Y-98701000D02*
X108648000Y-97701000D01*
X109648000Y-101701000D02*
X109648000Y-98701000D01*
X110648000Y-102701000D02*
X109648000Y-101701000D01*
%TD*%
D12*
%TO.P,AE1,*%
%TO.N,*%
X110648000Y-102701000D03*
X108648000Y-102701000D03*
X108648000Y-97701000D03*
X106648000Y-102701000D03*
X106648000Y-97701000D03*
X104648000Y-102701000D03*
X104648000Y-97701000D03*
X102648000Y-102701000D03*
X102648000Y-97701000D03*
X100648000Y-102701000D03*
X100648000Y-97701000D03*
X98648000Y-102701000D03*
X98648000Y-97701000D03*
X96648000Y-102701000D03*
X96648000Y-97701000D03*
X94648000Y-102701000D03*
X94648000Y-97701000D03*
X92648000Y-102701000D03*
X92648000Y-97701000D03*
%TD*%
D13*
%TO.P,J1,1,GND*%
%TO.N,GNDREF*%
X88906000Y-72050000D03*
D14*
%TO.P,J1,2,RST*%
%TO.N,unconnected-(J1-RST-Pad2)*%
X91446000Y-72050000D03*
%TO.P,J1,3,NC*%
%TO.N,unconnected-(J1-NC-Pad3)*%
X88906000Y-74590000D03*
%TO.P,J1,4,SVP*%
%TO.N,unconnected-(J1-SVP-Pad4)*%
X91446000Y-74590000D03*
%TO.P,J1,5,SVN*%
%TO.N,unconnected-(J1-SVN-Pad5)*%
X88906000Y-77130000D03*
%TO.P,J1,6,IO26*%
%TO.N,Net-(J1-IO26)*%
X91446000Y-77130000D03*
%TO.P,J1,7,IO35*%
%TO.N,unconnected-(J1-IO35-Pad7)*%
X88906000Y-79670000D03*
%TO.P,J1,8,IO18*%
%TO.N,Net-(J1-IO18)*%
X91446000Y-79670000D03*
%TO.P,J1,9,IO33*%
%TO.N,unconnected-(J1-IO33-Pad9)*%
X88906000Y-82210000D03*
%TO.P,J1,10,IO19*%
%TO.N,Net-(J1-IO19)*%
X91446000Y-82210000D03*
%TO.P,J1,11,IO34*%
%TO.N,unconnected-(J1-IO34-Pad11)*%
X88906000Y-84750000D03*
%TO.P,J1,12,IO23*%
%TO.N,Net-(J1-IO23)*%
X91446000Y-84750000D03*
%TO.P,J1,13,TMS*%
%TO.N,unconnected-(J1-TMS-Pad13)*%
X88906000Y-87290000D03*
%TO.P,J1,14,IO5*%
%TO.N,Net-(J1-IO5)*%
X91446000Y-87290000D03*
%TO.P,J1,15,NC*%
%TO.N,unconnected-(J1-NC-Pad15)*%
X88906000Y-89830000D03*
%TO.P,J1,16,3V3*%
%TO.N,Net-(J1-3V3)*%
X91446000Y-89830000D03*
%TO.P,J1,17,SD2*%
%TO.N,unconnected-(J1-SD2-Pad17)*%
X88906000Y-92370000D03*
%TO.P,J1,18,TCK*%
%TO.N,unconnected-(J1-TCK-Pad18)*%
X91446000Y-92370000D03*
%TO.P,J1,19,CMD*%
%TO.N,unconnected-(J1-CMD-Pad19)*%
X88906000Y-94910000D03*
%TO.P,J1,20,SD3*%
%TO.N,unconnected-(J1-SD3-Pad20)*%
X91446000Y-94910000D03*
%TD*%
D13*
%TO.P,J2,1,TXD*%
%TO.N,unconnected-(J2-TXD-Pad1)*%
X114306000Y-72050000D03*
D14*
%TO.P,J2,2,GND*%
%TO.N,GNDREF*%
X116846000Y-72050000D03*
%TO.P,J2,3,RXD*%
%TO.N,unconnected-(J2-RXD-Pad3)*%
X114306000Y-74590000D03*
%TO.P,J2,4,IO27*%
%TO.N,Net-(J2-IO27)*%
X116846000Y-74590000D03*
%TO.P,J2,5,IO22*%
%TO.N,unconnected-(J2-IO22-Pad5)*%
X114306000Y-77130000D03*
%TO.P,J2,6,IO25*%
%TO.N,unconnected-(J2-IO25-Pad6)*%
X116846000Y-77130000D03*
%TO.P,J2,7,IO21*%
%TO.N,unconnected-(J2-IO21-Pad7)*%
X114306000Y-79670000D03*
%TO.P,J2,8,IO32*%
%TO.N,unconnected-(J2-IO32-Pad8)*%
X116846000Y-79670000D03*
%TO.P,J2,9,IO17*%
%TO.N,unconnected-(J2-IO17-Pad9)*%
X114306000Y-82210000D03*
%TO.P,J2,10,TDI*%
%TO.N,unconnected-(J2-TDI-Pad10)*%
X116846000Y-82210000D03*
%TO.P,J2,11,IO16*%
%TO.N,unconnected-(J2-IO16-Pad11)*%
X114306000Y-84750000D03*
%TO.P,J2,12,IO4*%
%TO.N,unconnected-(J2-IO4-Pad12)*%
X116846000Y-84750000D03*
%TO.P,J2,13,GND*%
%TO.N,GNDREF*%
X114306000Y-87290000D03*
%TO.P,J2,14,IO0*%
%TO.N,unconnected-(J2-IO0-Pad14)*%
X116846000Y-87290000D03*
%TO.P,J2,15,VCC*%
%TO.N,unconnected-(J2-VCC-Pad15)*%
X114306000Y-89830000D03*
%TO.P,J2,16,IO2*%
%TO.N,unconnected-(J2-IO2-Pad16)*%
X116846000Y-89830000D03*
%TO.P,J2,17,TD0*%
%TO.N,unconnected-(J2-TD0-Pad17)*%
X114306000Y-92370000D03*
%TO.P,J2,18,SD1*%
%TO.N,unconnected-(J2-SD1-Pad18)*%
X116846000Y-92370000D03*
%TO.P,J2,19,SD0*%
%TO.N,unconnected-(J2-SD0-Pad19)*%
X114306000Y-94910000D03*
%TO.P,J2,20,CLK*%
%TO.N,unconnected-(J2-CLK-Pad20)*%
X116846000Y-94910000D03*
%TD*%
D15*
%TO.N,GNDREF*%
X101727000Y-89535000D03*
X94234000Y-68580000D03*
X95631000Y-88519000D03*
%TD*%
D16*
%TO.N,GNDREF*%
X88906000Y-72050000D02*
X88906000Y-68828000D01*
X103124000Y-71247000D02*
X103124000Y-78676500D01*
X97536000Y-66802000D02*
X100838000Y-70104000D01*
X114173000Y-66929000D02*
X107442000Y-66929000D01*
X116846000Y-69602000D02*
X114173000Y-66929000D01*
X98933000Y-85217000D02*
X95631000Y-88519000D01*
X103124000Y-85217000D02*
X101727000Y-86614000D01*
D10*
X101727000Y-86614000D02*
X101629550Y-86711450D01*
D16*
X101727000Y-86614000D02*
X100711000Y-87630000D01*
X101219000Y-89535000D02*
X101727000Y-89535000D01*
D10*
X99949000Y-85217000D02*
X98933000Y-85217000D01*
X103124000Y-78676500D02*
X103124000Y-85217000D01*
D16*
X94234000Y-66802000D02*
X97536000Y-66802000D01*
X116846000Y-72050000D02*
X116846000Y-69602000D01*
X94234000Y-66802000D02*
X94234000Y-68580000D01*
X90932000Y-66802000D02*
X94234000Y-66802000D01*
D10*
X103124000Y-78676500D02*
X100838000Y-76390500D01*
D16*
X100711000Y-87630000D02*
X100711000Y-89027000D01*
D10*
X102362000Y-79629000D02*
X99949000Y-82042000D01*
D16*
X107442000Y-66929000D02*
X103124000Y-71247000D01*
D10*
X103124000Y-78676500D02*
X108013500Y-83566000D01*
D16*
X88906000Y-68828000D02*
X90932000Y-66802000D01*
D10*
X99949000Y-82042000D02*
X99949000Y-85217000D01*
D16*
X100838000Y-70104000D02*
X100838000Y-76390500D01*
D10*
X106645000Y-79629000D02*
X102362000Y-79629000D01*
D16*
X100711000Y-89027000D02*
X101219000Y-89535000D01*
%TD*%
M02*
