%TF.GenerationSoftware,KiCad,Pcbnew,9.0.3+dfsg-1*%
%TF.CreationDate,2026-04-08T09:28:38+02:00*%
%TF.ProjectId,desk_power_monitor_mini32_ac,6465736b-5f70-46f7-9765-725f6d6f6e69,rev?*%
%TF.SameCoordinates,Original*%
%TF.FileFunction,Legend,Top*%
%TF.FilePolarity,Positive*%
%FSLAX46Y46*%
G04 Gerber Fmt 4.6, Leading zero omitted, Abs format (unit mm)*
G04 Created by KiCad (PCBNEW 9.0.3+dfsg-1) date 2026-04-08 09:28:38*
%MOMM*%
%LPD*%
G01*
G04 APERTURE LIST*
G04 Aperture macros list*
%AMRoundRect*
0 Rectangle with rounded corners*
0 $1 Rounding radius*
0 $2 $3 $4 $5 $6 $7 $8 $9 X,Y pos of 4 corners*
0 Add a 4 corners polygon primitive as box body*
4,1,4,$2,$3,$4,$5,$6,$7,$8,$9,$2,$3,0*
0 Add four circle primitives for the rounded corners*
1,1,$1+$1,$2,$3*
1,1,$1+$1,$4,$5*
1,1,$1+$1,$6,$7*
1,1,$1+$1,$8,$9*
0 Add four rect primitives between the rounded corners*
20,1,$1+$1,$2,$3,$4,$5,0*
20,1,$1+$1,$4,$5,$6,$7,0*
20,1,$1+$1,$6,$7,$8,$9,0*
20,1,$1+$1,$8,$9,$2,$3,0*%
G04 Aperture macros list end*
%ADD10C,0.100000*%
%ADD11C,0.150000*%
%ADD12C,0.300000*%
%ADD13C,0.062500*%
%ADD14C,0.120000*%
%ADD15C,0.000000*%
%ADD16C,0.409210*%
%ADD17RoundRect,0.243750X0.243750X0.456250X-0.243750X0.456250X-0.243750X-0.456250X0.243750X-0.456250X0*%
%ADD18RoundRect,0.250000X0.450000X-0.262500X0.450000X0.262500X-0.450000X0.262500X-0.450000X-0.262500X0*%
%ADD19RoundRect,0.250000X-0.475000X0.250000X-0.475000X-0.250000X0.475000X-0.250000X0.475000X0.250000X0*%
%ADD20RoundRect,0.250000X-0.450000X0.262500X-0.450000X-0.262500X0.450000X-0.262500X0.450000X0.262500X0*%
%ADD21RoundRect,0.250000X0.475000X-0.250000X0.475000X0.250000X-0.475000X0.250000X-0.475000X-0.250000X0*%
%ADD22R,1.700000X1.700000*%
%ADD23C,1.700000*%
%ADD24RoundRect,0.150000X0.150000X-0.825000X0.150000X0.825000X-0.150000X0.825000X-0.150000X-0.825000X0*%
%ADD25RoundRect,0.250000X-1.750000X1.750000X-1.750000X-1.750000X1.750000X-1.750000X1.750000X1.750000X0*%
%ADD26RoundRect,0.250000X1.750000X-1.750000X1.750000X1.750000X-1.750000X1.750000X-1.750000X-1.750000X0*%
%ADD27RoundRect,0.250000X-0.262500X-0.450000X0.262500X-0.450000X0.262500X0.450000X-0.262500X0.450000X0*%
%ADD28RoundRect,0.250000X0.750000X-0.600000X0.750000X0.600000X-0.750000X0.600000X-0.750000X-0.600000X0*%
%ADD29O,2.000000X1.700000*%
G04 APERTURE END LIST*
D10*
X109093000Y-98679000D02*
X111887000Y-98679000D01*
X104521000Y-86430000D02*
X104775000Y-86233000D01*
X106807000Y-96647000D02*
X109093000Y-98679000D01*
X94361000Y-68961000D02*
X99568000Y-68961000D01*
X93472000Y-85979000D02*
X90170000Y-85979000D01*
X90170000Y-85979000D02*
X89789000Y-85598000D01*
X104775000Y-84836000D02*
X105029000Y-84582000D01*
X110998000Y-80518000D02*
X110998000Y-88900000D01*
X99568000Y-68961000D02*
X110998000Y-80518000D01*
X96647000Y-98298000D02*
X95123000Y-98916910D01*
X111887000Y-89789000D02*
X110998000Y-88900000D01*
X99989450Y-86430000D02*
X104521000Y-86430000D01*
X104267000Y-96647000D02*
X103886000Y-97028000D01*
X100330000Y-97028000D02*
X98933000Y-99568000D01*
X99568000Y-85979000D02*
X99989450Y-86430000D01*
X111887000Y-98679000D02*
X113538000Y-101473000D01*
X103886000Y-97028000D02*
X100330000Y-97028000D01*
X99568000Y-85979000D02*
X93472000Y-85979000D01*
X105029000Y-84582000D02*
X107569000Y-84582000D01*
X111887000Y-89789000D02*
X112517438Y-89789000D01*
X104775000Y-86233000D02*
X104775000Y-84836000D01*
X107569000Y-84582000D02*
X108331000Y-83820000D01*
D11*
X93749255Y-94068040D02*
X93749255Y-93318040D01*
X94106398Y-94068040D02*
X94106398Y-93318040D01*
X94106398Y-93318040D02*
X94534969Y-94068040D01*
X94534969Y-94068040D02*
X94534969Y-93318040D01*
X94892112Y-94068040D02*
X94892112Y-93318040D01*
X94892112Y-93318040D02*
X95177826Y-93318040D01*
X95177826Y-93318040D02*
X95249255Y-93353754D01*
X95249255Y-93353754D02*
X95284969Y-93389468D01*
X95284969Y-93389468D02*
X95320683Y-93460897D01*
X95320683Y-93460897D02*
X95320683Y-93568040D01*
X95320683Y-93568040D02*
X95284969Y-93639468D01*
X95284969Y-93639468D02*
X95249255Y-93675183D01*
X95249255Y-93675183D02*
X95177826Y-93710897D01*
X95177826Y-93710897D02*
X94892112Y-93710897D01*
X95642112Y-93318040D02*
X95642112Y-93925183D01*
X95642112Y-93925183D02*
X95677826Y-93996611D01*
X95677826Y-93996611D02*
X95713541Y-94032326D01*
X95713541Y-94032326D02*
X95784969Y-94068040D01*
X95784969Y-94068040D02*
X95927826Y-94068040D01*
X95927826Y-94068040D02*
X95999255Y-94032326D01*
X95999255Y-94032326D02*
X96034969Y-93996611D01*
X96034969Y-93996611D02*
X96070683Y-93925183D01*
X96070683Y-93925183D02*
X96070683Y-93318040D01*
X96320683Y-93318040D02*
X96749255Y-93318040D01*
X96534969Y-94068040D02*
X96534969Y-93318040D01*
X96999255Y-93996611D02*
X97034969Y-94032326D01*
X97034969Y-94032326D02*
X96999255Y-94068040D01*
X96999255Y-94068040D02*
X96963541Y-94032326D01*
X96963541Y-94032326D02*
X96999255Y-93996611D01*
X96999255Y-93996611D02*
X96999255Y-94068040D01*
X96999255Y-93603754D02*
X97034969Y-93639468D01*
X97034969Y-93639468D02*
X96999255Y-93675183D01*
X96999255Y-93675183D02*
X96963541Y-93639468D01*
X96963541Y-93639468D02*
X96999255Y-93603754D01*
X96999255Y-93603754D02*
X96999255Y-93675183D01*
X94142112Y-95275498D02*
X93713541Y-95275498D01*
X93927826Y-95275498D02*
X93927826Y-94525498D01*
X93927826Y-94525498D02*
X93856398Y-94632641D01*
X93856398Y-94632641D02*
X93784969Y-94704069D01*
X93784969Y-94704069D02*
X93713541Y-94739784D01*
X94606398Y-94525498D02*
X94677827Y-94525498D01*
X94677827Y-94525498D02*
X94749255Y-94561212D01*
X94749255Y-94561212D02*
X94784970Y-94596926D01*
X94784970Y-94596926D02*
X94820684Y-94668355D01*
X94820684Y-94668355D02*
X94856398Y-94811212D01*
X94856398Y-94811212D02*
X94856398Y-94989784D01*
X94856398Y-94989784D02*
X94820684Y-95132641D01*
X94820684Y-95132641D02*
X94784970Y-95204069D01*
X94784970Y-95204069D02*
X94749255Y-95239784D01*
X94749255Y-95239784D02*
X94677827Y-95275498D01*
X94677827Y-95275498D02*
X94606398Y-95275498D01*
X94606398Y-95275498D02*
X94534970Y-95239784D01*
X94534970Y-95239784D02*
X94499255Y-95204069D01*
X94499255Y-95204069D02*
X94463541Y-95132641D01*
X94463541Y-95132641D02*
X94427827Y-94989784D01*
X94427827Y-94989784D02*
X94427827Y-94811212D01*
X94427827Y-94811212D02*
X94463541Y-94668355D01*
X94463541Y-94668355D02*
X94499255Y-94596926D01*
X94499255Y-94596926D02*
X94534970Y-94561212D01*
X94534970Y-94561212D02*
X94606398Y-94525498D01*
X95320684Y-94525498D02*
X95392113Y-94525498D01*
X95392113Y-94525498D02*
X95463541Y-94561212D01*
X95463541Y-94561212D02*
X95499256Y-94596926D01*
X95499256Y-94596926D02*
X95534970Y-94668355D01*
X95534970Y-94668355D02*
X95570684Y-94811212D01*
X95570684Y-94811212D02*
X95570684Y-94989784D01*
X95570684Y-94989784D02*
X95534970Y-95132641D01*
X95534970Y-95132641D02*
X95499256Y-95204069D01*
X95499256Y-95204069D02*
X95463541Y-95239784D01*
X95463541Y-95239784D02*
X95392113Y-95275498D01*
X95392113Y-95275498D02*
X95320684Y-95275498D01*
X95320684Y-95275498D02*
X95249256Y-95239784D01*
X95249256Y-95239784D02*
X95213541Y-95204069D01*
X95213541Y-95204069D02*
X95177827Y-95132641D01*
X95177827Y-95132641D02*
X95142113Y-94989784D01*
X95142113Y-94989784D02*
X95142113Y-94811212D01*
X95142113Y-94811212D02*
X95177827Y-94668355D01*
X95177827Y-94668355D02*
X95213541Y-94596926D01*
X95213541Y-94596926D02*
X95249256Y-94561212D01*
X95249256Y-94561212D02*
X95320684Y-94525498D01*
X95892113Y-94989784D02*
X96463542Y-94989784D01*
X96784970Y-94596926D02*
X96820684Y-94561212D01*
X96820684Y-94561212D02*
X96892113Y-94525498D01*
X96892113Y-94525498D02*
X97070684Y-94525498D01*
X97070684Y-94525498D02*
X97142113Y-94561212D01*
X97142113Y-94561212D02*
X97177827Y-94596926D01*
X97177827Y-94596926D02*
X97213541Y-94668355D01*
X97213541Y-94668355D02*
X97213541Y-94739784D01*
X97213541Y-94739784D02*
X97177827Y-94846926D01*
X97177827Y-94846926D02*
X96749255Y-95275498D01*
X96749255Y-95275498D02*
X97213541Y-95275498D01*
X97856399Y-94775498D02*
X97856399Y-95275498D01*
X97677827Y-94489784D02*
X97499256Y-95025498D01*
X97499256Y-95025498D02*
X97963541Y-95025498D01*
X98392113Y-94525498D02*
X98463542Y-94525498D01*
X98463542Y-94525498D02*
X98534970Y-94561212D01*
X98534970Y-94561212D02*
X98570685Y-94596926D01*
X98570685Y-94596926D02*
X98606399Y-94668355D01*
X98606399Y-94668355D02*
X98642113Y-94811212D01*
X98642113Y-94811212D02*
X98642113Y-94989784D01*
X98642113Y-94989784D02*
X98606399Y-95132641D01*
X98606399Y-95132641D02*
X98570685Y-95204069D01*
X98570685Y-95204069D02*
X98534970Y-95239784D01*
X98534970Y-95239784D02*
X98463542Y-95275498D01*
X98463542Y-95275498D02*
X98392113Y-95275498D01*
X98392113Y-95275498D02*
X98320685Y-95239784D01*
X98320685Y-95239784D02*
X98284970Y-95204069D01*
X98284970Y-95204069D02*
X98249256Y-95132641D01*
X98249256Y-95132641D02*
X98213542Y-94989784D01*
X98213542Y-94989784D02*
X98213542Y-94811212D01*
X98213542Y-94811212D02*
X98249256Y-94668355D01*
X98249256Y-94668355D02*
X98284970Y-94596926D01*
X98284970Y-94596926D02*
X98320685Y-94561212D01*
X98320685Y-94561212D02*
X98392113Y-94525498D01*
X98856399Y-94525498D02*
X99106399Y-95275498D01*
X99106399Y-95275498D02*
X99356399Y-94525498D01*
X99927828Y-95275498D02*
X99927828Y-94882641D01*
X99927828Y-94882641D02*
X99892113Y-94811212D01*
X99892113Y-94811212D02*
X99820685Y-94775498D01*
X99820685Y-94775498D02*
X99677828Y-94775498D01*
X99677828Y-94775498D02*
X99606399Y-94811212D01*
X99927828Y-95239784D02*
X99856399Y-95275498D01*
X99856399Y-95275498D02*
X99677828Y-95275498D01*
X99677828Y-95275498D02*
X99606399Y-95239784D01*
X99606399Y-95239784D02*
X99570685Y-95168355D01*
X99570685Y-95168355D02*
X99570685Y-95096926D01*
X99570685Y-95096926D02*
X99606399Y-95025498D01*
X99606399Y-95025498D02*
X99677828Y-94989784D01*
X99677828Y-94989784D02*
X99856399Y-94989784D01*
X99856399Y-94989784D02*
X99927828Y-94954069D01*
X100606399Y-95239784D02*
X100534970Y-95275498D01*
X100534970Y-95275498D02*
X100392113Y-95275498D01*
X100392113Y-95275498D02*
X100320684Y-95239784D01*
X100320684Y-95239784D02*
X100284970Y-95204069D01*
X100284970Y-95204069D02*
X100249256Y-95132641D01*
X100249256Y-95132641D02*
X100249256Y-94918355D01*
X100249256Y-94918355D02*
X100284970Y-94846926D01*
X100284970Y-94846926D02*
X100320684Y-94811212D01*
X100320684Y-94811212D02*
X100392113Y-94775498D01*
X100392113Y-94775498D02*
X100534970Y-94775498D01*
X100534970Y-94775498D02*
X100606399Y-94811212D01*
X94106398Y-95732956D02*
X93749255Y-95732956D01*
X93749255Y-95732956D02*
X93713541Y-96090099D01*
X93713541Y-96090099D02*
X93749255Y-96054384D01*
X93749255Y-96054384D02*
X93820684Y-96018670D01*
X93820684Y-96018670D02*
X93999255Y-96018670D01*
X93999255Y-96018670D02*
X94070684Y-96054384D01*
X94070684Y-96054384D02*
X94106398Y-96090099D01*
X94106398Y-96090099D02*
X94142112Y-96161527D01*
X94142112Y-96161527D02*
X94142112Y-96340099D01*
X94142112Y-96340099D02*
X94106398Y-96411527D01*
X94106398Y-96411527D02*
X94070684Y-96447242D01*
X94070684Y-96447242D02*
X93999255Y-96482956D01*
X93999255Y-96482956D02*
X93820684Y-96482956D01*
X93820684Y-96482956D02*
X93749255Y-96447242D01*
X93749255Y-96447242D02*
X93713541Y-96411527D01*
X94606398Y-95732956D02*
X94677827Y-95732956D01*
X94677827Y-95732956D02*
X94749255Y-95768670D01*
X94749255Y-95768670D02*
X94784970Y-95804384D01*
X94784970Y-95804384D02*
X94820684Y-95875813D01*
X94820684Y-95875813D02*
X94856398Y-96018670D01*
X94856398Y-96018670D02*
X94856398Y-96197242D01*
X94856398Y-96197242D02*
X94820684Y-96340099D01*
X94820684Y-96340099D02*
X94784970Y-96411527D01*
X94784970Y-96411527D02*
X94749255Y-96447242D01*
X94749255Y-96447242D02*
X94677827Y-96482956D01*
X94677827Y-96482956D02*
X94606398Y-96482956D01*
X94606398Y-96482956D02*
X94534970Y-96447242D01*
X94534970Y-96447242D02*
X94499255Y-96411527D01*
X94499255Y-96411527D02*
X94463541Y-96340099D01*
X94463541Y-96340099D02*
X94427827Y-96197242D01*
X94427827Y-96197242D02*
X94427827Y-96018670D01*
X94427827Y-96018670D02*
X94463541Y-95875813D01*
X94463541Y-95875813D02*
X94499255Y-95804384D01*
X94499255Y-95804384D02*
X94534970Y-95768670D01*
X94534970Y-95768670D02*
X94606398Y-95732956D01*
X95177827Y-96197242D02*
X95749256Y-96197242D01*
X96427827Y-95732956D02*
X96284969Y-95732956D01*
X96284969Y-95732956D02*
X96213541Y-95768670D01*
X96213541Y-95768670D02*
X96177827Y-95804384D01*
X96177827Y-95804384D02*
X96106398Y-95911527D01*
X96106398Y-95911527D02*
X96070684Y-96054384D01*
X96070684Y-96054384D02*
X96070684Y-96340099D01*
X96070684Y-96340099D02*
X96106398Y-96411527D01*
X96106398Y-96411527D02*
X96142112Y-96447242D01*
X96142112Y-96447242D02*
X96213541Y-96482956D01*
X96213541Y-96482956D02*
X96356398Y-96482956D01*
X96356398Y-96482956D02*
X96427827Y-96447242D01*
X96427827Y-96447242D02*
X96463541Y-96411527D01*
X96463541Y-96411527D02*
X96499255Y-96340099D01*
X96499255Y-96340099D02*
X96499255Y-96161527D01*
X96499255Y-96161527D02*
X96463541Y-96090099D01*
X96463541Y-96090099D02*
X96427827Y-96054384D01*
X96427827Y-96054384D02*
X96356398Y-96018670D01*
X96356398Y-96018670D02*
X96213541Y-96018670D01*
X96213541Y-96018670D02*
X96142112Y-96054384D01*
X96142112Y-96054384D02*
X96106398Y-96090099D01*
X96106398Y-96090099D02*
X96070684Y-96161527D01*
X96963541Y-95732956D02*
X97034970Y-95732956D01*
X97034970Y-95732956D02*
X97106398Y-95768670D01*
X97106398Y-95768670D02*
X97142113Y-95804384D01*
X97142113Y-95804384D02*
X97177827Y-95875813D01*
X97177827Y-95875813D02*
X97213541Y-96018670D01*
X97213541Y-96018670D02*
X97213541Y-96197242D01*
X97213541Y-96197242D02*
X97177827Y-96340099D01*
X97177827Y-96340099D02*
X97142113Y-96411527D01*
X97142113Y-96411527D02*
X97106398Y-96447242D01*
X97106398Y-96447242D02*
X97034970Y-96482956D01*
X97034970Y-96482956D02*
X96963541Y-96482956D01*
X96963541Y-96482956D02*
X96892113Y-96447242D01*
X96892113Y-96447242D02*
X96856398Y-96411527D01*
X96856398Y-96411527D02*
X96820684Y-96340099D01*
X96820684Y-96340099D02*
X96784970Y-96197242D01*
X96784970Y-96197242D02*
X96784970Y-96018670D01*
X96784970Y-96018670D02*
X96820684Y-95875813D01*
X96820684Y-95875813D02*
X96856398Y-95804384D01*
X96856398Y-95804384D02*
X96892113Y-95768670D01*
X96892113Y-95768670D02*
X96963541Y-95732956D01*
X97534970Y-96482956D02*
X97534970Y-95732956D01*
X97534970Y-96090099D02*
X97963541Y-96090099D01*
X97963541Y-96482956D02*
X97963541Y-95732956D01*
X98249255Y-95982956D02*
X98642113Y-95982956D01*
X98642113Y-95982956D02*
X98249255Y-96482956D01*
X98249255Y-96482956D02*
X98642113Y-96482956D01*
X95237541Y-102429128D02*
X95594684Y-102429128D01*
X95166112Y-102643414D02*
X95416112Y-101893414D01*
X95416112Y-101893414D02*
X95666112Y-102643414D01*
X96344683Y-102571985D02*
X96308969Y-102607700D01*
X96308969Y-102607700D02*
X96201826Y-102643414D01*
X96201826Y-102643414D02*
X96130398Y-102643414D01*
X96130398Y-102643414D02*
X96023255Y-102607700D01*
X96023255Y-102607700D02*
X95951826Y-102536271D01*
X95951826Y-102536271D02*
X95916112Y-102464842D01*
X95916112Y-102464842D02*
X95880398Y-102321985D01*
X95880398Y-102321985D02*
X95880398Y-102214842D01*
X95880398Y-102214842D02*
X95916112Y-102071985D01*
X95916112Y-102071985D02*
X95951826Y-102000557D01*
X95951826Y-102000557D02*
X96023255Y-101929128D01*
X96023255Y-101929128D02*
X96130398Y-101893414D01*
X96130398Y-101893414D02*
X96201826Y-101893414D01*
X96201826Y-101893414D02*
X96308969Y-101929128D01*
X96308969Y-101929128D02*
X96344683Y-101964842D01*
D12*
X95296510Y-101400828D02*
X95296510Y-99900828D01*
X95296510Y-99900828D02*
X96153653Y-101400828D01*
X96153653Y-101400828D02*
X96153653Y-99900828D01*
D11*
X94130255Y-77370414D02*
X94130255Y-76620414D01*
X94130255Y-76620414D02*
X94558826Y-77370414D01*
X94558826Y-77370414D02*
X94558826Y-76620414D01*
X94915969Y-76977557D02*
X95165969Y-76977557D01*
X95273112Y-77370414D02*
X94915969Y-77370414D01*
X94915969Y-77370414D02*
X94915969Y-76620414D01*
X94915969Y-76620414D02*
X95273112Y-76620414D01*
X95487397Y-76620414D02*
X95915969Y-76620414D01*
X95701683Y-77370414D02*
X95701683Y-76620414D01*
X96594540Y-77370414D02*
X96344540Y-77013271D01*
X96165969Y-77370414D02*
X96165969Y-76620414D01*
X96165969Y-76620414D02*
X96451683Y-76620414D01*
X96451683Y-76620414D02*
X96523112Y-76656128D01*
X96523112Y-76656128D02*
X96558826Y-76691842D01*
X96558826Y-76691842D02*
X96594540Y-76763271D01*
X96594540Y-76763271D02*
X96594540Y-76870414D01*
X96594540Y-76870414D02*
X96558826Y-76941842D01*
X96558826Y-76941842D02*
X96523112Y-76977557D01*
X96523112Y-76977557D02*
X96451683Y-77013271D01*
X96451683Y-77013271D02*
X96165969Y-77013271D01*
X97058826Y-76620414D02*
X97201683Y-76620414D01*
X97201683Y-76620414D02*
X97273112Y-76656128D01*
X97273112Y-76656128D02*
X97344540Y-76727557D01*
X97344540Y-76727557D02*
X97380255Y-76870414D01*
X97380255Y-76870414D02*
X97380255Y-77120414D01*
X97380255Y-77120414D02*
X97344540Y-77263271D01*
X97344540Y-77263271D02*
X97273112Y-77334700D01*
X97273112Y-77334700D02*
X97201683Y-77370414D01*
X97201683Y-77370414D02*
X97058826Y-77370414D01*
X97058826Y-77370414D02*
X96987398Y-77334700D01*
X96987398Y-77334700D02*
X96915969Y-77263271D01*
X96915969Y-77263271D02*
X96880255Y-77120414D01*
X96880255Y-77120414D02*
X96880255Y-76870414D01*
X96880255Y-76870414D02*
X96915969Y-76727557D01*
X96915969Y-76727557D02*
X96987398Y-76656128D01*
X96987398Y-76656128D02*
X97058826Y-76620414D01*
X97701683Y-77370414D02*
X97701683Y-76620414D01*
X97701683Y-76620414D02*
X98130254Y-77370414D01*
X98130254Y-77370414D02*
X98130254Y-76620414D01*
X98487397Y-77298985D02*
X98523111Y-77334700D01*
X98523111Y-77334700D02*
X98487397Y-77370414D01*
X98487397Y-77370414D02*
X98451683Y-77334700D01*
X98451683Y-77334700D02*
X98487397Y-77298985D01*
X98487397Y-77298985D02*
X98487397Y-77370414D01*
X98844540Y-77370414D02*
X98844540Y-76620414D01*
X98844540Y-76620414D02*
X99023111Y-76620414D01*
X99023111Y-76620414D02*
X99130254Y-76656128D01*
X99130254Y-76656128D02*
X99201683Y-76727557D01*
X99201683Y-76727557D02*
X99237397Y-76798985D01*
X99237397Y-76798985D02*
X99273111Y-76941842D01*
X99273111Y-76941842D02*
X99273111Y-77048985D01*
X99273111Y-77048985D02*
X99237397Y-77191842D01*
X99237397Y-77191842D02*
X99201683Y-77263271D01*
X99201683Y-77263271D02*
X99130254Y-77334700D01*
X99130254Y-77334700D02*
X99023111Y-77370414D01*
X99023111Y-77370414D02*
X98844540Y-77370414D01*
X99594540Y-76977557D02*
X99844540Y-76977557D01*
X99951683Y-77370414D02*
X99594540Y-77370414D01*
X99594540Y-77370414D02*
X99594540Y-76620414D01*
X99594540Y-76620414D02*
X99951683Y-76620414D01*
X100165968Y-76620414D02*
X100415968Y-77370414D01*
X100415968Y-77370414D02*
X100665968Y-76620414D01*
X94221541Y-78680128D02*
X94578684Y-78680128D01*
X94150112Y-78894414D02*
X94400112Y-78144414D01*
X94400112Y-78144414D02*
X94650112Y-78894414D01*
X95328683Y-78822985D02*
X95292969Y-78858700D01*
X95292969Y-78858700D02*
X95185826Y-78894414D01*
X95185826Y-78894414D02*
X95114398Y-78894414D01*
X95114398Y-78894414D02*
X95007255Y-78858700D01*
X95007255Y-78858700D02*
X94935826Y-78787271D01*
X94935826Y-78787271D02*
X94900112Y-78715842D01*
X94900112Y-78715842D02*
X94864398Y-78572985D01*
X94864398Y-78572985D02*
X94864398Y-78465842D01*
X94864398Y-78465842D02*
X94900112Y-78322985D01*
X94900112Y-78322985D02*
X94935826Y-78251557D01*
X94935826Y-78251557D02*
X95007255Y-78180128D01*
X95007255Y-78180128D02*
X95114398Y-78144414D01*
X95114398Y-78144414D02*
X95185826Y-78144414D01*
X95185826Y-78144414D02*
X95292969Y-78180128D01*
X95292969Y-78180128D02*
X95328683Y-78215842D01*
X96114398Y-78144414D02*
X96364398Y-78894414D01*
X96364398Y-78894414D02*
X96614398Y-78144414D01*
X96828684Y-78215842D02*
X96864398Y-78180128D01*
X96864398Y-78180128D02*
X96935827Y-78144414D01*
X96935827Y-78144414D02*
X97114398Y-78144414D01*
X97114398Y-78144414D02*
X97185827Y-78180128D01*
X97185827Y-78180128D02*
X97221541Y-78215842D01*
X97221541Y-78215842D02*
X97257255Y-78287271D01*
X97257255Y-78287271D02*
X97257255Y-78358700D01*
X97257255Y-78358700D02*
X97221541Y-78465842D01*
X97221541Y-78465842D02*
X96792969Y-78894414D01*
X96792969Y-78894414D02*
X97257255Y-78894414D01*
X97578684Y-78822985D02*
X97614398Y-78858700D01*
X97614398Y-78858700D02*
X97578684Y-78894414D01*
X97578684Y-78894414D02*
X97542970Y-78858700D01*
X97542970Y-78858700D02*
X97578684Y-78822985D01*
X97578684Y-78822985D02*
X97578684Y-78894414D01*
X98078684Y-78144414D02*
X98150113Y-78144414D01*
X98150113Y-78144414D02*
X98221541Y-78180128D01*
X98221541Y-78180128D02*
X98257256Y-78215842D01*
X98257256Y-78215842D02*
X98292970Y-78287271D01*
X98292970Y-78287271D02*
X98328684Y-78430128D01*
X98328684Y-78430128D02*
X98328684Y-78608700D01*
X98328684Y-78608700D02*
X98292970Y-78751557D01*
X98292970Y-78751557D02*
X98257256Y-78822985D01*
X98257256Y-78822985D02*
X98221541Y-78858700D01*
X98221541Y-78858700D02*
X98150113Y-78894414D01*
X98150113Y-78894414D02*
X98078684Y-78894414D01*
X98078684Y-78894414D02*
X98007256Y-78858700D01*
X98007256Y-78858700D02*
X97971541Y-78822985D01*
X97971541Y-78822985D02*
X97935827Y-78751557D01*
X97935827Y-78751557D02*
X97900113Y-78608700D01*
X97900113Y-78608700D02*
X97900113Y-78430128D01*
X97900113Y-78430128D02*
X97935827Y-78287271D01*
X97935827Y-78287271D02*
X97971541Y-78215842D01*
X97971541Y-78215842D02*
X98007256Y-78180128D01*
X98007256Y-78180128D02*
X98078684Y-78144414D01*
X103517295Y-68131056D02*
X104088724Y-68131056D01*
X104838723Y-67702484D02*
X104767295Y-67666770D01*
X104767295Y-67666770D02*
X104660152Y-67666770D01*
X104660152Y-67666770D02*
X104553009Y-67702484D01*
X104553009Y-67702484D02*
X104481580Y-67773913D01*
X104481580Y-67773913D02*
X104445866Y-67845341D01*
X104445866Y-67845341D02*
X104410152Y-67988198D01*
X104410152Y-67988198D02*
X104410152Y-68095341D01*
X104410152Y-68095341D02*
X104445866Y-68238198D01*
X104445866Y-68238198D02*
X104481580Y-68309627D01*
X104481580Y-68309627D02*
X104553009Y-68381056D01*
X104553009Y-68381056D02*
X104660152Y-68416770D01*
X104660152Y-68416770D02*
X104731580Y-68416770D01*
X104731580Y-68416770D02*
X104838723Y-68381056D01*
X104838723Y-68381056D02*
X104874437Y-68345341D01*
X104874437Y-68345341D02*
X104874437Y-68095341D01*
X104874437Y-68095341D02*
X104731580Y-68095341D01*
X105195866Y-68416770D02*
X105195866Y-67666770D01*
X105195866Y-67666770D02*
X105624437Y-68416770D01*
X105624437Y-68416770D02*
X105624437Y-67666770D01*
X105981580Y-68416770D02*
X105981580Y-67666770D01*
X105981580Y-67666770D02*
X106160151Y-67666770D01*
X106160151Y-67666770D02*
X106267294Y-67702484D01*
X106267294Y-67702484D02*
X106338723Y-67773913D01*
X106338723Y-67773913D02*
X106374437Y-67845341D01*
X106374437Y-67845341D02*
X106410151Y-67988198D01*
X106410151Y-67988198D02*
X106410151Y-68095341D01*
X106410151Y-68095341D02*
X106374437Y-68238198D01*
X106374437Y-68238198D02*
X106338723Y-68309627D01*
X106338723Y-68309627D02*
X106267294Y-68381056D01*
X106267294Y-68381056D02*
X106160151Y-68416770D01*
X106160151Y-68416770D02*
X105981580Y-68416770D01*
X98285541Y-102429128D02*
X98642684Y-102429128D01*
X98214112Y-102643414D02*
X98464112Y-101893414D01*
X98464112Y-101893414D02*
X98714112Y-102643414D01*
X99392683Y-102571985D02*
X99356969Y-102607700D01*
X99356969Y-102607700D02*
X99249826Y-102643414D01*
X99249826Y-102643414D02*
X99178398Y-102643414D01*
X99178398Y-102643414D02*
X99071255Y-102607700D01*
X99071255Y-102607700D02*
X98999826Y-102536271D01*
X98999826Y-102536271D02*
X98964112Y-102464842D01*
X98964112Y-102464842D02*
X98928398Y-102321985D01*
X98928398Y-102321985D02*
X98928398Y-102214842D01*
X98928398Y-102214842D02*
X98964112Y-102071985D01*
X98964112Y-102071985D02*
X98999826Y-102000557D01*
X98999826Y-102000557D02*
X99071255Y-101929128D01*
X99071255Y-101929128D02*
X99178398Y-101893414D01*
X99178398Y-101893414D02*
X99249826Y-101893414D01*
X99249826Y-101893414D02*
X99356969Y-101929128D01*
X99356969Y-101929128D02*
X99392683Y-101964842D01*
D12*
X99058796Y-101400828D02*
X98344510Y-101400828D01*
X98344510Y-101400828D02*
X98344510Y-99900828D01*
D11*
X110533112Y-90463414D02*
X110783112Y-91213414D01*
X110783112Y-91213414D02*
X111033112Y-90463414D01*
X111283112Y-91213414D02*
X111283112Y-90463414D01*
X111640255Y-91213414D02*
X111640255Y-90463414D01*
X111640255Y-90463414D02*
X112068826Y-91213414D01*
X112068826Y-91213414D02*
X112068826Y-90463414D01*
X94431029Y-68208058D02*
X95002458Y-68208058D01*
X94716743Y-68493772D02*
X94716743Y-67922343D01*
X95716743Y-67743772D02*
X95359600Y-67743772D01*
X95359600Y-67743772D02*
X95323886Y-68100915D01*
X95323886Y-68100915D02*
X95359600Y-68065200D01*
X95359600Y-68065200D02*
X95431029Y-68029486D01*
X95431029Y-68029486D02*
X95609600Y-68029486D01*
X95609600Y-68029486D02*
X95681029Y-68065200D01*
X95681029Y-68065200D02*
X95716743Y-68100915D01*
X95716743Y-68100915D02*
X95752457Y-68172343D01*
X95752457Y-68172343D02*
X95752457Y-68350915D01*
X95752457Y-68350915D02*
X95716743Y-68422343D01*
X95716743Y-68422343D02*
X95681029Y-68458058D01*
X95681029Y-68458058D02*
X95609600Y-68493772D01*
X95609600Y-68493772D02*
X95431029Y-68493772D01*
X95431029Y-68493772D02*
X95359600Y-68458058D01*
X95359600Y-68458058D02*
X95323886Y-68422343D01*
X95966743Y-67743772D02*
X96216743Y-68493772D01*
X96216743Y-68493772D02*
X96466743Y-67743772D01*
X94558817Y-84192784D02*
X94523103Y-84228499D01*
X94523103Y-84228499D02*
X94415960Y-84264213D01*
X94415960Y-84264213D02*
X94344532Y-84264213D01*
X94344532Y-84264213D02*
X94237389Y-84228499D01*
X94237389Y-84228499D02*
X94165960Y-84157070D01*
X94165960Y-84157070D02*
X94130246Y-84085641D01*
X94130246Y-84085641D02*
X94094532Y-83942784D01*
X94094532Y-83942784D02*
X94094532Y-83835641D01*
X94094532Y-83835641D02*
X94130246Y-83692784D01*
X94130246Y-83692784D02*
X94165960Y-83621356D01*
X94165960Y-83621356D02*
X94237389Y-83549927D01*
X94237389Y-83549927D02*
X94344532Y-83514213D01*
X94344532Y-83514213D02*
X94415960Y-83514213D01*
X94415960Y-83514213D02*
X94523103Y-83549927D01*
X94523103Y-83549927D02*
X94558817Y-83585641D01*
X94880246Y-83514213D02*
X94880246Y-84121356D01*
X94880246Y-84121356D02*
X94915960Y-84192784D01*
X94915960Y-84192784D02*
X94951675Y-84228499D01*
X94951675Y-84228499D02*
X95023103Y-84264213D01*
X95023103Y-84264213D02*
X95165960Y-84264213D01*
X95165960Y-84264213D02*
X95237389Y-84228499D01*
X95237389Y-84228499D02*
X95273103Y-84192784D01*
X95273103Y-84192784D02*
X95308817Y-84121356D01*
X95308817Y-84121356D02*
X95308817Y-83514213D01*
X96094531Y-84264213D02*
X95844531Y-83907070D01*
X95665960Y-84264213D02*
X95665960Y-83514213D01*
X95665960Y-83514213D02*
X95951674Y-83514213D01*
X95951674Y-83514213D02*
X96023103Y-83549927D01*
X96023103Y-83549927D02*
X96058817Y-83585641D01*
X96058817Y-83585641D02*
X96094531Y-83657070D01*
X96094531Y-83657070D02*
X96094531Y-83764213D01*
X96094531Y-83764213D02*
X96058817Y-83835641D01*
X96058817Y-83835641D02*
X96023103Y-83871356D01*
X96023103Y-83871356D02*
X95951674Y-83907070D01*
X95951674Y-83907070D02*
X95665960Y-83907070D01*
X96844531Y-84264213D02*
X96594531Y-83907070D01*
X96415960Y-84264213D02*
X96415960Y-83514213D01*
X96415960Y-83514213D02*
X96701674Y-83514213D01*
X96701674Y-83514213D02*
X96773103Y-83549927D01*
X96773103Y-83549927D02*
X96808817Y-83585641D01*
X96808817Y-83585641D02*
X96844531Y-83657070D01*
X96844531Y-83657070D02*
X96844531Y-83764213D01*
X96844531Y-83764213D02*
X96808817Y-83835641D01*
X96808817Y-83835641D02*
X96773103Y-83871356D01*
X96773103Y-83871356D02*
X96701674Y-83907070D01*
X96701674Y-83907070D02*
X96415960Y-83907070D01*
X97165960Y-83871356D02*
X97415960Y-83871356D01*
X97523103Y-84264213D02*
X97165960Y-84264213D01*
X97165960Y-84264213D02*
X97165960Y-83514213D01*
X97165960Y-83514213D02*
X97523103Y-83514213D01*
X97844531Y-84264213D02*
X97844531Y-83514213D01*
X97844531Y-83514213D02*
X98273102Y-84264213D01*
X98273102Y-84264213D02*
X98273102Y-83514213D01*
X98523102Y-83514213D02*
X98951674Y-83514213D01*
X98737388Y-84264213D02*
X98737388Y-83514213D01*
X94058817Y-84721671D02*
X94523103Y-84721671D01*
X94523103Y-84721671D02*
X94273103Y-85007385D01*
X94273103Y-85007385D02*
X94380246Y-85007385D01*
X94380246Y-85007385D02*
X94451675Y-85043099D01*
X94451675Y-85043099D02*
X94487389Y-85078814D01*
X94487389Y-85078814D02*
X94523103Y-85150242D01*
X94523103Y-85150242D02*
X94523103Y-85328814D01*
X94523103Y-85328814D02*
X94487389Y-85400242D01*
X94487389Y-85400242D02*
X94451675Y-85435957D01*
X94451675Y-85435957D02*
X94380246Y-85471671D01*
X94380246Y-85471671D02*
X94165960Y-85471671D01*
X94165960Y-85471671D02*
X94094532Y-85435957D01*
X94094532Y-85435957D02*
X94058817Y-85400242D01*
X94737389Y-84721671D02*
X94987389Y-85471671D01*
X94987389Y-85471671D02*
X95237389Y-84721671D01*
X95415960Y-84721671D02*
X95880246Y-84721671D01*
X95880246Y-84721671D02*
X95630246Y-85007385D01*
X95630246Y-85007385D02*
X95737389Y-85007385D01*
X95737389Y-85007385D02*
X95808818Y-85043099D01*
X95808818Y-85043099D02*
X95844532Y-85078814D01*
X95844532Y-85078814D02*
X95880246Y-85150242D01*
X95880246Y-85150242D02*
X95880246Y-85328814D01*
X95880246Y-85328814D02*
X95844532Y-85400242D01*
X95844532Y-85400242D02*
X95808818Y-85435957D01*
X95808818Y-85435957D02*
X95737389Y-85471671D01*
X95737389Y-85471671D02*
X95523103Y-85471671D01*
X95523103Y-85471671D02*
X95451675Y-85435957D01*
X95451675Y-85435957D02*
X95415960Y-85400242D01*
D12*
X112647796Y-101527828D02*
X111933510Y-101527828D01*
X111933510Y-101527828D02*
X111933510Y-100027828D01*
D11*
X112267398Y-102770414D02*
X111910255Y-102770414D01*
X111910255Y-102770414D02*
X111910255Y-102020414D01*
X112660255Y-102020414D02*
X112803112Y-102020414D01*
X112803112Y-102020414D02*
X112874541Y-102056128D01*
X112874541Y-102056128D02*
X112945969Y-102127557D01*
X112945969Y-102127557D02*
X112981684Y-102270414D01*
X112981684Y-102270414D02*
X112981684Y-102520414D01*
X112981684Y-102520414D02*
X112945969Y-102663271D01*
X112945969Y-102663271D02*
X112874541Y-102734700D01*
X112874541Y-102734700D02*
X112803112Y-102770414D01*
X112803112Y-102770414D02*
X112660255Y-102770414D01*
X112660255Y-102770414D02*
X112588827Y-102734700D01*
X112588827Y-102734700D02*
X112517398Y-102663271D01*
X112517398Y-102663271D02*
X112481684Y-102520414D01*
X112481684Y-102520414D02*
X112481684Y-102270414D01*
X112481684Y-102270414D02*
X112517398Y-102127557D01*
X112517398Y-102127557D02*
X112588827Y-102056128D01*
X112588827Y-102056128D02*
X112660255Y-102020414D01*
X113267398Y-102556128D02*
X113624541Y-102556128D01*
X113195969Y-102770414D02*
X113445969Y-102020414D01*
X113445969Y-102020414D02*
X113695969Y-102770414D01*
X113945969Y-102770414D02*
X113945969Y-102020414D01*
X113945969Y-102020414D02*
X114124540Y-102020414D01*
X114124540Y-102020414D02*
X114231683Y-102056128D01*
X114231683Y-102056128D02*
X114303112Y-102127557D01*
X114303112Y-102127557D02*
X114338826Y-102198985D01*
X114338826Y-102198985D02*
X114374540Y-102341842D01*
X114374540Y-102341842D02*
X114374540Y-102448985D01*
X114374540Y-102448985D02*
X114338826Y-102591842D01*
X114338826Y-102591842D02*
X114303112Y-102663271D01*
X114303112Y-102663271D02*
X114231683Y-102734700D01*
X114231683Y-102734700D02*
X114124540Y-102770414D01*
X114124540Y-102770414D02*
X113945969Y-102770414D01*
X94050035Y-87289779D02*
X94050035Y-86539779D01*
X94550035Y-86539779D02*
X94692892Y-86539779D01*
X94692892Y-86539779D02*
X94764321Y-86575493D01*
X94764321Y-86575493D02*
X94835749Y-86646922D01*
X94835749Y-86646922D02*
X94871464Y-86789779D01*
X94871464Y-86789779D02*
X94871464Y-87039779D01*
X94871464Y-87039779D02*
X94835749Y-87182636D01*
X94835749Y-87182636D02*
X94764321Y-87254065D01*
X94764321Y-87254065D02*
X94692892Y-87289779D01*
X94692892Y-87289779D02*
X94550035Y-87289779D01*
X94550035Y-87289779D02*
X94478607Y-87254065D01*
X94478607Y-87254065D02*
X94407178Y-87182636D01*
X94407178Y-87182636D02*
X94371464Y-87039779D01*
X94371464Y-87039779D02*
X94371464Y-86789779D01*
X94371464Y-86789779D02*
X94407178Y-86646922D01*
X94407178Y-86646922D02*
X94478607Y-86575493D01*
X94478607Y-86575493D02*
X94550035Y-86539779D01*
X95121463Y-86539779D02*
X95585749Y-86539779D01*
X95585749Y-86539779D02*
X95335749Y-86825493D01*
X95335749Y-86825493D02*
X95442892Y-86825493D01*
X95442892Y-86825493D02*
X95514321Y-86861207D01*
X95514321Y-86861207D02*
X95550035Y-86896922D01*
X95550035Y-86896922D02*
X95585749Y-86968350D01*
X95585749Y-86968350D02*
X95585749Y-87146922D01*
X95585749Y-87146922D02*
X95550035Y-87218350D01*
X95550035Y-87218350D02*
X95514321Y-87254065D01*
X95514321Y-87254065D02*
X95442892Y-87289779D01*
X95442892Y-87289779D02*
X95228606Y-87289779D01*
X95228606Y-87289779D02*
X95157178Y-87254065D01*
X95157178Y-87254065D02*
X95121463Y-87218350D01*
X96228607Y-86789779D02*
X96228607Y-87289779D01*
X96050035Y-86504065D02*
X95871464Y-87039779D01*
X95871464Y-87039779D02*
X96335749Y-87039779D01*
D13*
X101992952Y-82143059D02*
X101992952Y-81643059D01*
X101992952Y-81643059D02*
X102112000Y-81643059D01*
X102112000Y-81643059D02*
X102183428Y-81666869D01*
X102183428Y-81666869D02*
X102231047Y-81714488D01*
X102231047Y-81714488D02*
X102254857Y-81762107D01*
X102254857Y-81762107D02*
X102278666Y-81857345D01*
X102278666Y-81857345D02*
X102278666Y-81928773D01*
X102278666Y-81928773D02*
X102254857Y-82024011D01*
X102254857Y-82024011D02*
X102231047Y-82071630D01*
X102231047Y-82071630D02*
X102183428Y-82119250D01*
X102183428Y-82119250D02*
X102112000Y-82143059D01*
X102112000Y-82143059D02*
X101992952Y-82143059D01*
X102754857Y-82143059D02*
X102469143Y-82143059D01*
X102612000Y-82143059D02*
X102612000Y-81643059D01*
X102612000Y-81643059D02*
X102564381Y-81714488D01*
X102564381Y-81714488D02*
X102516762Y-81762107D01*
X102516762Y-81762107D02*
X102469143Y-81785916D01*
X105961666Y-88747059D02*
X105795000Y-88508964D01*
X105675952Y-88747059D02*
X105675952Y-88247059D01*
X105675952Y-88247059D02*
X105866428Y-88247059D01*
X105866428Y-88247059D02*
X105914047Y-88270869D01*
X105914047Y-88270869D02*
X105937857Y-88294678D01*
X105937857Y-88294678D02*
X105961666Y-88342297D01*
X105961666Y-88342297D02*
X105961666Y-88413726D01*
X105961666Y-88413726D02*
X105937857Y-88461345D01*
X105937857Y-88461345D02*
X105914047Y-88485154D01*
X105914047Y-88485154D02*
X105866428Y-88508964D01*
X105866428Y-88508964D02*
X105675952Y-88508964D01*
X106437857Y-88747059D02*
X106152143Y-88747059D01*
X106295000Y-88747059D02*
X106295000Y-88247059D01*
X106295000Y-88247059D02*
X106247381Y-88318488D01*
X106247381Y-88318488D02*
X106199762Y-88366107D01*
X106199762Y-88366107D02*
X106152143Y-88389916D01*
X103294666Y-88699440D02*
X103270857Y-88723250D01*
X103270857Y-88723250D02*
X103199428Y-88747059D01*
X103199428Y-88747059D02*
X103151809Y-88747059D01*
X103151809Y-88747059D02*
X103080381Y-88723250D01*
X103080381Y-88723250D02*
X103032762Y-88675630D01*
X103032762Y-88675630D02*
X103008952Y-88628011D01*
X103008952Y-88628011D02*
X102985143Y-88532773D01*
X102985143Y-88532773D02*
X102985143Y-88461345D01*
X102985143Y-88461345D02*
X103008952Y-88366107D01*
X103008952Y-88366107D02*
X103032762Y-88318488D01*
X103032762Y-88318488D02*
X103080381Y-88270869D01*
X103080381Y-88270869D02*
X103151809Y-88247059D01*
X103151809Y-88247059D02*
X103199428Y-88247059D01*
X103199428Y-88247059D02*
X103270857Y-88270869D01*
X103270857Y-88270869D02*
X103294666Y-88294678D01*
X103770857Y-88747059D02*
X103485143Y-88747059D01*
X103628000Y-88747059D02*
X103628000Y-88247059D01*
X103628000Y-88247059D02*
X103580381Y-88318488D01*
X103580381Y-88318488D02*
X103532762Y-88366107D01*
X103532762Y-88366107D02*
X103485143Y-88389916D01*
X101135666Y-88747059D02*
X100969000Y-88508964D01*
X100849952Y-88747059D02*
X100849952Y-88247059D01*
X100849952Y-88247059D02*
X101040428Y-88247059D01*
X101040428Y-88247059D02*
X101088047Y-88270869D01*
X101088047Y-88270869D02*
X101111857Y-88294678D01*
X101111857Y-88294678D02*
X101135666Y-88342297D01*
X101135666Y-88342297D02*
X101135666Y-88413726D01*
X101135666Y-88413726D02*
X101111857Y-88461345D01*
X101111857Y-88461345D02*
X101088047Y-88485154D01*
X101088047Y-88485154D02*
X101040428Y-88508964D01*
X101040428Y-88508964D02*
X100849952Y-88508964D01*
X101302333Y-88247059D02*
X101611857Y-88247059D01*
X101611857Y-88247059D02*
X101445190Y-88437535D01*
X101445190Y-88437535D02*
X101516619Y-88437535D01*
X101516619Y-88437535D02*
X101564238Y-88461345D01*
X101564238Y-88461345D02*
X101588047Y-88485154D01*
X101588047Y-88485154D02*
X101611857Y-88532773D01*
X101611857Y-88532773D02*
X101611857Y-88651821D01*
X101611857Y-88651821D02*
X101588047Y-88699440D01*
X101588047Y-88699440D02*
X101564238Y-88723250D01*
X101564238Y-88723250D02*
X101516619Y-88747059D01*
X101516619Y-88747059D02*
X101373762Y-88747059D01*
X101373762Y-88747059D02*
X101326143Y-88723250D01*
X101326143Y-88723250D02*
X101302333Y-88699440D01*
X108501666Y-88699440D02*
X108477857Y-88723250D01*
X108477857Y-88723250D02*
X108406428Y-88747059D01*
X108406428Y-88747059D02*
X108358809Y-88747059D01*
X108358809Y-88747059D02*
X108287381Y-88723250D01*
X108287381Y-88723250D02*
X108239762Y-88675630D01*
X108239762Y-88675630D02*
X108215952Y-88628011D01*
X108215952Y-88628011D02*
X108192143Y-88532773D01*
X108192143Y-88532773D02*
X108192143Y-88461345D01*
X108192143Y-88461345D02*
X108215952Y-88366107D01*
X108215952Y-88366107D02*
X108239762Y-88318488D01*
X108239762Y-88318488D02*
X108287381Y-88270869D01*
X108287381Y-88270869D02*
X108358809Y-88247059D01*
X108358809Y-88247059D02*
X108406428Y-88247059D01*
X108406428Y-88247059D02*
X108477857Y-88270869D01*
X108477857Y-88270869D02*
X108501666Y-88294678D01*
X108692143Y-88294678D02*
X108715952Y-88270869D01*
X108715952Y-88270869D02*
X108763571Y-88247059D01*
X108763571Y-88247059D02*
X108882619Y-88247059D01*
X108882619Y-88247059D02*
X108930238Y-88270869D01*
X108930238Y-88270869D02*
X108954047Y-88294678D01*
X108954047Y-88294678D02*
X108977857Y-88342297D01*
X108977857Y-88342297D02*
X108977857Y-88389916D01*
X108977857Y-88389916D02*
X108954047Y-88461345D01*
X108954047Y-88461345D02*
X108668333Y-88747059D01*
X108668333Y-88747059D02*
X108977857Y-88747059D01*
X90014333Y-96629059D02*
X90014333Y-96986202D01*
X90014333Y-96986202D02*
X89990524Y-97057630D01*
X89990524Y-97057630D02*
X89942905Y-97105250D01*
X89942905Y-97105250D02*
X89871476Y-97129059D01*
X89871476Y-97129059D02*
X89823857Y-97129059D01*
X90514333Y-97129059D02*
X90228619Y-97129059D01*
X90371476Y-97129059D02*
X90371476Y-96629059D01*
X90371476Y-96629059D02*
X90323857Y-96700488D01*
X90323857Y-96700488D02*
X90276238Y-96748107D01*
X90276238Y-96748107D02*
X90228619Y-96771916D01*
X114895333Y-96756059D02*
X114895333Y-97113202D01*
X114895333Y-97113202D02*
X114871524Y-97184630D01*
X114871524Y-97184630D02*
X114823905Y-97232250D01*
X114823905Y-97232250D02*
X114752476Y-97256059D01*
X114752476Y-97256059D02*
X114704857Y-97256059D01*
X115109619Y-96803678D02*
X115133428Y-96779869D01*
X115133428Y-96779869D02*
X115181047Y-96756059D01*
X115181047Y-96756059D02*
X115300095Y-96756059D01*
X115300095Y-96756059D02*
X115347714Y-96779869D01*
X115347714Y-96779869D02*
X115371523Y-96803678D01*
X115371523Y-96803678D02*
X115395333Y-96851297D01*
X115395333Y-96851297D02*
X115395333Y-96898916D01*
X115395333Y-96898916D02*
X115371523Y-96970345D01*
X115371523Y-96970345D02*
X115085809Y-97256059D01*
X115085809Y-97256059D02*
X115395333Y-97256059D01*
D11*
X108674819Y-95503904D02*
X109484342Y-95503904D01*
X109484342Y-95503904D02*
X109579580Y-95456285D01*
X109579580Y-95456285D02*
X109627200Y-95408666D01*
X109627200Y-95408666D02*
X109674819Y-95313428D01*
X109674819Y-95313428D02*
X109674819Y-95122952D01*
X109674819Y-95122952D02*
X109627200Y-95027714D01*
X109627200Y-95027714D02*
X109579580Y-94980095D01*
X109579580Y-94980095D02*
X109484342Y-94932476D01*
X109484342Y-94932476D02*
X108674819Y-94932476D01*
X108770057Y-94503904D02*
X108722438Y-94456285D01*
X108722438Y-94456285D02*
X108674819Y-94361047D01*
X108674819Y-94361047D02*
X108674819Y-94122952D01*
X108674819Y-94122952D02*
X108722438Y-94027714D01*
X108722438Y-94027714D02*
X108770057Y-93980095D01*
X108770057Y-93980095D02*
X108865295Y-93932476D01*
X108865295Y-93932476D02*
X108960533Y-93932476D01*
X108960533Y-93932476D02*
X109103390Y-93980095D01*
X109103390Y-93980095D02*
X109674819Y-94551523D01*
X109674819Y-94551523D02*
X109674819Y-93932476D01*
D13*
X105825707Y-102687677D02*
X105825707Y-103044820D01*
X105825707Y-103044820D02*
X105801898Y-103116248D01*
X105801898Y-103116248D02*
X105754279Y-103163868D01*
X105754279Y-103163868D02*
X105682850Y-103187677D01*
X105682850Y-103187677D02*
X105635231Y-103187677D01*
X106016183Y-102687677D02*
X106325707Y-102687677D01*
X106325707Y-102687677D02*
X106159040Y-102878153D01*
X106159040Y-102878153D02*
X106230469Y-102878153D01*
X106230469Y-102878153D02*
X106278088Y-102901963D01*
X106278088Y-102901963D02*
X106301897Y-102925772D01*
X106301897Y-102925772D02*
X106325707Y-102973391D01*
X106325707Y-102973391D02*
X106325707Y-103092439D01*
X106325707Y-103092439D02*
X106301897Y-103140058D01*
X106301897Y-103140058D02*
X106278088Y-103163868D01*
X106278088Y-103163868D02*
X106230469Y-103187677D01*
X106230469Y-103187677D02*
X106087612Y-103187677D01*
X106087612Y-103187677D02*
X106039993Y-103163868D01*
X106039993Y-103163868D02*
X106016183Y-103140058D01*
X104572415Y-102703150D02*
X104572415Y-103060293D01*
X104572415Y-103060293D02*
X104548606Y-103131721D01*
X104548606Y-103131721D02*
X104500987Y-103179341D01*
X104500987Y-103179341D02*
X104429558Y-103203150D01*
X104429558Y-103203150D02*
X104381939Y-103203150D01*
X105024796Y-102869817D02*
X105024796Y-103203150D01*
X104905748Y-102679341D02*
X104786701Y-103036483D01*
X104786701Y-103036483D02*
X105096224Y-103036483D01*
X91146333Y-98280059D02*
X91146333Y-98637202D01*
X91146333Y-98637202D02*
X91122524Y-98708630D01*
X91122524Y-98708630D02*
X91074905Y-98756250D01*
X91074905Y-98756250D02*
X91003476Y-98780059D01*
X91003476Y-98780059D02*
X90955857Y-98780059D01*
X91622523Y-98280059D02*
X91384428Y-98280059D01*
X91384428Y-98280059D02*
X91360619Y-98518154D01*
X91360619Y-98518154D02*
X91384428Y-98494345D01*
X91384428Y-98494345D02*
X91432047Y-98470535D01*
X91432047Y-98470535D02*
X91551095Y-98470535D01*
X91551095Y-98470535D02*
X91598714Y-98494345D01*
X91598714Y-98494345D02*
X91622523Y-98518154D01*
X91622523Y-98518154D02*
X91646333Y-98565773D01*
X91646333Y-98565773D02*
X91646333Y-98684821D01*
X91646333Y-98684821D02*
X91622523Y-98732440D01*
X91622523Y-98732440D02*
X91598714Y-98756250D01*
X91598714Y-98756250D02*
X91551095Y-98780059D01*
X91551095Y-98780059D02*
X91432047Y-98780059D01*
X91432047Y-98780059D02*
X91384428Y-98756250D01*
X91384428Y-98756250D02*
X91360619Y-98732440D01*
X105707666Y-82143059D02*
X105541000Y-81904964D01*
X105421952Y-82143059D02*
X105421952Y-81643059D01*
X105421952Y-81643059D02*
X105612428Y-81643059D01*
X105612428Y-81643059D02*
X105660047Y-81666869D01*
X105660047Y-81666869D02*
X105683857Y-81690678D01*
X105683857Y-81690678D02*
X105707666Y-81738297D01*
X105707666Y-81738297D02*
X105707666Y-81809726D01*
X105707666Y-81809726D02*
X105683857Y-81857345D01*
X105683857Y-81857345D02*
X105660047Y-81881154D01*
X105660047Y-81881154D02*
X105612428Y-81904964D01*
X105612428Y-81904964D02*
X105421952Y-81904964D01*
X105898143Y-81690678D02*
X105921952Y-81666869D01*
X105921952Y-81666869D02*
X105969571Y-81643059D01*
X105969571Y-81643059D02*
X106088619Y-81643059D01*
X106088619Y-81643059D02*
X106136238Y-81666869D01*
X106136238Y-81666869D02*
X106160047Y-81690678D01*
X106160047Y-81690678D02*
X106183857Y-81738297D01*
X106183857Y-81738297D02*
X106183857Y-81785916D01*
X106183857Y-81785916D02*
X106160047Y-81857345D01*
X106160047Y-81857345D02*
X105874333Y-82143059D01*
X105874333Y-82143059D02*
X106183857Y-82143059D01*
D14*
%TO.C,D1*%
X101211500Y-84342000D02*
X103896500Y-84342000D01*
X103896500Y-82422000D02*
X101211500Y-82422000D01*
X103896500Y-84342000D02*
X103896500Y-82422000D01*
%TO.C,R1*%
X105286500Y-86657064D02*
X105286500Y-86202936D01*
X106756500Y-86657064D02*
X106756500Y-86202936D01*
%TO.C,C1*%
X102746500Y-86168748D02*
X102746500Y-86691252D01*
X104216500Y-86168748D02*
X104216500Y-86691252D01*
%TO.C,R3*%
X100460500Y-86202936D02*
X100460500Y-86657064D01*
X101930500Y-86202936D02*
X101930500Y-86657064D01*
%TO.C,C2*%
X107850000Y-86687252D02*
X107850000Y-86164748D01*
X109320000Y-86687252D02*
X109320000Y-86164748D01*
%TO.C,J1*%
X87526000Y-70670000D02*
X88906000Y-70670000D01*
X87526000Y-72050000D02*
X87526000Y-70670000D01*
X87526000Y-73320000D02*
X87526000Y-96290000D01*
X87526000Y-73320000D02*
X90176000Y-73320000D01*
X87526000Y-96290000D02*
X92826000Y-96290000D01*
X90176000Y-70670000D02*
X92826000Y-70670000D01*
X90176000Y-73320000D02*
X90176000Y-70670000D01*
X92826000Y-70670000D02*
X92826000Y-96290000D01*
D15*
%TO.C,G\u002A\u002A\u002A*%
G36*
X95330062Y-71983239D02*
G01*
X95352750Y-71994131D01*
X95387100Y-72012742D01*
X95433745Y-72039451D01*
X95493317Y-72074631D01*
X95566448Y-72118659D01*
X95653771Y-72171910D01*
X95755918Y-72234761D01*
X95873522Y-72307587D01*
X95945554Y-72352361D01*
X96044150Y-72413772D01*
X96138151Y-72472429D01*
X96226200Y-72527477D01*
X96306938Y-72578064D01*
X96379007Y-72623333D01*
X96441048Y-72662431D01*
X96491703Y-72694504D01*
X96529613Y-72718696D01*
X96553419Y-72734155D01*
X96561519Y-72739760D01*
X96565633Y-72744464D01*
X96569033Y-72751999D01*
X96571785Y-72764115D01*
X96573958Y-72782563D01*
X96575618Y-72809092D01*
X96576834Y-72845454D01*
X96577673Y-72893399D01*
X96578202Y-72954676D01*
X96578490Y-73031036D01*
X96578603Y-73124231D01*
X96578615Y-73182760D01*
X96578615Y-73611031D01*
X96539208Y-73639577D01*
X96519115Y-73653764D01*
X96485987Y-73676733D01*
X96442971Y-73706323D01*
X96393214Y-73740368D01*
X96339864Y-73776705D01*
X96329514Y-73783735D01*
X96278951Y-73818285D01*
X96234364Y-73849180D01*
X96198118Y-73874742D01*
X96172582Y-73893298D01*
X96160121Y-73903170D01*
X96159282Y-73904230D01*
X96167202Y-73910598D01*
X96189371Y-73925756D01*
X96223446Y-73948173D01*
X96267085Y-73976318D01*
X96317947Y-74008659D01*
X96346025Y-74026346D01*
X96401364Y-74061244D01*
X96452274Y-74093625D01*
X96496018Y-74121728D01*
X96529858Y-74143789D01*
X96551058Y-74158045D01*
X96555664Y-74161382D01*
X96572737Y-74185151D01*
X96579223Y-74216586D01*
X96574674Y-74247589D01*
X96561519Y-74267802D01*
X96549732Y-74276577D01*
X96523701Y-74294997D01*
X96485346Y-74321734D01*
X96436590Y-74355458D01*
X96379353Y-74394841D01*
X96315557Y-74438554D01*
X96247122Y-74485269D01*
X96246461Y-74485719D01*
X96177214Y-74532948D01*
X96111897Y-74577592D01*
X96052557Y-74618243D01*
X96001244Y-74653494D01*
X95960005Y-74681939D01*
X95930887Y-74702170D01*
X95916157Y-74712620D01*
X95883815Y-74736513D01*
X96155213Y-74901641D01*
X96220987Y-74941522D01*
X96281477Y-74977937D01*
X96334656Y-75009683D01*
X96378494Y-75035561D01*
X96410964Y-75054371D01*
X96430037Y-75064912D01*
X96434228Y-75066769D01*
X96436425Y-75057461D01*
X96438373Y-75031382D01*
X96439977Y-74991299D01*
X96441140Y-74939978D01*
X96441765Y-74880186D01*
X96441846Y-74848475D01*
X96442015Y-74772146D01*
X96442937Y-74713129D01*
X96445234Y-74669200D01*
X96449528Y-74638134D01*
X96456441Y-74617705D01*
X96466597Y-74605688D01*
X96480616Y-74599859D01*
X96499122Y-74597991D01*
X96511928Y-74597846D01*
X96529655Y-74598144D01*
X96543924Y-74600315D01*
X96555110Y-74606270D01*
X96563589Y-74617921D01*
X96569736Y-74637182D01*
X96573926Y-74665964D01*
X96576533Y-74706179D01*
X96577934Y-74759740D01*
X96578502Y-74828559D01*
X96578614Y-74914549D01*
X96578615Y-74937788D01*
X96578615Y-75241999D01*
X96527327Y-75279511D01*
X96510774Y-75291300D01*
X96479584Y-75313192D01*
X96435196Y-75344189D01*
X96379050Y-75383289D01*
X96312584Y-75429494D01*
X96237238Y-75481803D01*
X96154450Y-75539215D01*
X96065661Y-75600732D01*
X95972310Y-75665352D01*
X95908248Y-75709666D01*
X95785084Y-75794600D01*
X95675587Y-75869612D01*
X95580053Y-75934508D01*
X95498773Y-75989092D01*
X95432044Y-76033170D01*
X95380157Y-76066546D01*
X95343408Y-76089026D01*
X95322089Y-76100415D01*
X95317210Y-76101889D01*
X95304814Y-76096350D01*
X95277208Y-76080273D01*
X95235256Y-76054222D01*
X95179826Y-76018762D01*
X95111782Y-75974459D01*
X95031991Y-75921878D01*
X94941319Y-75861583D01*
X94840630Y-75794141D01*
X94730792Y-75720115D01*
X94689634Y-75692273D01*
X94591582Y-75625799D01*
X94497849Y-75562098D01*
X94409756Y-75502076D01*
X94328624Y-75446640D01*
X94255772Y-75396697D01*
X94192521Y-75353154D01*
X94140192Y-75316918D01*
X94100105Y-75288896D01*
X94073581Y-75269995D01*
X94061961Y-75261142D01*
X94038615Y-75239209D01*
X94038615Y-75212503D01*
X94264658Y-75212503D01*
X94270493Y-75220283D01*
X94283469Y-75232295D01*
X94304626Y-75249289D01*
X94335004Y-75272015D01*
X94375645Y-75301224D01*
X94427588Y-75337667D01*
X94491874Y-75382093D01*
X94569543Y-75435253D01*
X94661637Y-75497898D01*
X94743616Y-75553465D01*
X94831371Y-75612807D01*
X94914349Y-75668781D01*
X94991136Y-75720441D01*
X95060315Y-75766841D01*
X95120473Y-75807037D01*
X95170194Y-75840083D01*
X95208064Y-75865034D01*
X95232668Y-75880944D01*
X95242590Y-75886869D01*
X95242673Y-75886886D01*
X95244533Y-75877650D01*
X95246219Y-75851293D01*
X95247669Y-75810229D01*
X95248821Y-75756874D01*
X95249612Y-75693645D01*
X95249981Y-75622957D01*
X95250000Y-75602403D01*
X95250070Y-75514894D01*
X95250562Y-75444955D01*
X95251894Y-75390617D01*
X95254487Y-75349910D01*
X95258761Y-75320867D01*
X95265135Y-75301518D01*
X95274028Y-75289895D01*
X95285862Y-75284029D01*
X95301055Y-75281951D01*
X95318384Y-75281692D01*
X95336862Y-75282027D01*
X95351652Y-75284346D01*
X95363186Y-75290613D01*
X95371898Y-75302797D01*
X95378220Y-75322864D01*
X95382585Y-75352782D01*
X95385426Y-75394517D01*
X95387174Y-75450036D01*
X95388264Y-75521307D01*
X95389061Y-75602966D01*
X95391653Y-75888842D01*
X95875230Y-75554653D01*
X95962044Y-75494631D01*
X96044119Y-75437833D01*
X96120039Y-75385244D01*
X96188383Y-75337849D01*
X96247733Y-75296633D01*
X96296671Y-75262582D01*
X96333778Y-75236680D01*
X96357635Y-75219913D01*
X96366816Y-75213273D01*
X96360371Y-75207070D01*
X96339404Y-75192177D01*
X96306137Y-75169973D01*
X96262791Y-75141836D01*
X96211588Y-75109146D01*
X96154749Y-75073283D01*
X96094497Y-75035625D01*
X96033053Y-74997552D01*
X95972638Y-74960442D01*
X95915475Y-74925676D01*
X95863785Y-74894631D01*
X95819789Y-74868688D01*
X95785710Y-74849226D01*
X95763768Y-74837623D01*
X95757561Y-74835059D01*
X95745633Y-74839273D01*
X95720046Y-74853222D01*
X95683156Y-74875453D01*
X95637322Y-74904512D01*
X95584900Y-74938945D01*
X95541158Y-74968461D01*
X95484825Y-75006341D01*
X95432853Y-75040222D01*
X95387693Y-75068592D01*
X95351794Y-75089938D01*
X95327606Y-75102749D01*
X95318581Y-75105846D01*
X95304867Y-75100541D01*
X95277534Y-75085625D01*
X95239034Y-75062597D01*
X95191820Y-75032956D01*
X95138347Y-74998201D01*
X95094716Y-74969077D01*
X95038712Y-74931557D01*
X94987758Y-74897969D01*
X94944169Y-74869794D01*
X94910260Y-74848513D01*
X94888344Y-74835607D01*
X94881040Y-74832307D01*
X94870637Y-74837239D01*
X94845939Y-74851105D01*
X94809235Y-74872508D01*
X94762813Y-74900051D01*
X94708961Y-74932338D01*
X94649970Y-74967972D01*
X94588128Y-75005558D01*
X94525724Y-75043698D01*
X94465046Y-75080996D01*
X94408384Y-75116056D01*
X94358026Y-75147481D01*
X94316262Y-75173875D01*
X94285380Y-75193841D01*
X94267670Y-75205983D01*
X94264923Y-75208203D01*
X94264658Y-75212503D01*
X94038615Y-75212503D01*
X94038615Y-74925115D01*
X94038615Y-74611021D01*
X94061225Y-74589779D01*
X94092378Y-74571537D01*
X94124620Y-74572256D01*
X94154769Y-74591831D01*
X94155777Y-74592888D01*
X94163032Y-74601222D01*
X94168626Y-74610533D01*
X94172839Y-74623399D01*
X94175947Y-74642398D01*
X94178230Y-74670108D01*
X94179965Y-74709106D01*
X94181430Y-74761972D01*
X94182904Y-74831282D01*
X94183223Y-74847262D01*
X94184813Y-74911761D01*
X94186818Y-74969039D01*
X94189096Y-75016447D01*
X94191504Y-75051333D01*
X94193902Y-75071046D01*
X94195378Y-75074470D01*
X94207091Y-75068136D01*
X94232498Y-75053147D01*
X94269223Y-75030976D01*
X94314894Y-75003098D01*
X94367137Y-74970988D01*
X94423580Y-74936122D01*
X94481847Y-74899973D01*
X94539567Y-74864017D01*
X94594366Y-74829728D01*
X94643869Y-74798582D01*
X94685705Y-74772053D01*
X94717499Y-74751615D01*
X94736878Y-74738745D01*
X94741849Y-74734897D01*
X94733988Y-74728490D01*
X94711626Y-74712404D01*
X94676499Y-74687836D01*
X94630340Y-74655979D01*
X94574883Y-74618030D01*
X94511863Y-74575182D01*
X94443012Y-74528631D01*
X94422496Y-74514807D01*
X94333557Y-74454859D01*
X94259504Y-74404713D01*
X94198979Y-74363317D01*
X94150623Y-74329619D01*
X94113076Y-74302568D01*
X94084979Y-74281111D01*
X94064972Y-74264195D01*
X94051698Y-74250770D01*
X94043795Y-74239783D01*
X94039906Y-74230181D01*
X94038672Y-74220913D01*
X94038633Y-74218668D01*
X94253845Y-74218668D01*
X94261647Y-74225752D01*
X94284132Y-74242467D01*
X94319655Y-74267711D01*
X94366571Y-74300385D01*
X94423236Y-74339386D01*
X94488005Y-74383615D01*
X94559233Y-74431969D01*
X94635277Y-74483349D01*
X94714490Y-74536652D01*
X94795229Y-74590778D01*
X94875850Y-74644626D01*
X94954706Y-74697095D01*
X95030155Y-74747084D01*
X95100551Y-74793491D01*
X95164249Y-74835216D01*
X95219606Y-74871158D01*
X95264976Y-74900216D01*
X95298715Y-74921288D01*
X95319178Y-74933273D01*
X95324798Y-74935649D01*
X95334789Y-74929450D01*
X95359501Y-74913144D01*
X95397538Y-74887676D01*
X95447508Y-74853990D01*
X95508017Y-74813028D01*
X95577672Y-74765735D01*
X95655079Y-74713056D01*
X95738844Y-74655932D01*
X95827573Y-74595309D01*
X95850763Y-74579447D01*
X95940258Y-74518109D01*
X96024847Y-74459926D01*
X96103168Y-74405847D01*
X96173862Y-74356820D01*
X96235570Y-74313796D01*
X96286931Y-74277723D01*
X96326585Y-74249549D01*
X96353172Y-74230225D01*
X96365333Y-74220698D01*
X96365966Y-74219934D01*
X96358627Y-74211981D01*
X96337454Y-74195971D01*
X96305432Y-74173786D01*
X96265547Y-74147308D01*
X96220786Y-74118418D01*
X96174134Y-74089000D01*
X96128579Y-74060935D01*
X96087106Y-74036105D01*
X96052702Y-74016393D01*
X96028353Y-74003680D01*
X96017044Y-73999850D01*
X96016884Y-73999920D01*
X96006946Y-74006480D01*
X95982626Y-74022882D01*
X95945668Y-74047939D01*
X95897817Y-74080465D01*
X95840819Y-74119273D01*
X95776419Y-74163176D01*
X95706362Y-74210988D01*
X95673687Y-74233303D01*
X95600698Y-74282820D01*
X95532322Y-74328545D01*
X95470346Y-74369333D01*
X95416555Y-74404036D01*
X95372736Y-74431508D01*
X95340674Y-74450602D01*
X95322155Y-74460172D01*
X95318911Y-74461077D01*
X95306382Y-74455740D01*
X95279586Y-74440509D01*
X95240362Y-74416551D01*
X95190546Y-74385036D01*
X95131976Y-74347131D01*
X95066492Y-74304005D01*
X94995930Y-74256826D01*
X94969272Y-74238827D01*
X94897248Y-74190199D01*
X94829673Y-74144830D01*
X94768389Y-74103937D01*
X94715237Y-74068737D01*
X94672058Y-74040448D01*
X94640692Y-74020285D01*
X94622981Y-74009467D01*
X94620320Y-74008102D01*
X94610341Y-74006891D01*
X94595246Y-74010666D01*
X94572874Y-74020519D01*
X94541063Y-74037543D01*
X94497650Y-74062829D01*
X94440472Y-74097469D01*
X94426905Y-74105794D01*
X94375198Y-74137870D01*
X94329642Y-74166705D01*
X94292702Y-74190690D01*
X94266842Y-74208217D01*
X94254529Y-74217678D01*
X94253845Y-74218668D01*
X94038633Y-74218668D01*
X94038615Y-74217661D01*
X94040216Y-74204096D01*
X94046187Y-74190514D01*
X94058281Y-74175523D01*
X94078252Y-74157729D01*
X94107852Y-74135738D01*
X94148834Y-74108156D01*
X94202952Y-74073590D01*
X94271958Y-74030646D01*
X94280403Y-74025430D01*
X94334360Y-73991907D01*
X94382238Y-73961738D01*
X94421693Y-73936434D01*
X94450381Y-73917508D01*
X94465959Y-73906472D01*
X94468100Y-73904353D01*
X94460240Y-73897710D01*
X94438417Y-73881860D01*
X94404938Y-73858410D01*
X94362111Y-73828969D01*
X94312246Y-73795144D01*
X94285603Y-73777230D01*
X94230652Y-73740116D01*
X94179336Y-73704949D01*
X94134539Y-73673748D01*
X94099148Y-73648528D01*
X94076047Y-73631308D01*
X94071041Y-73627238D01*
X94038615Y-73599360D01*
X94038615Y-73182123D01*
X94038615Y-72926184D01*
X94184873Y-72926184D01*
X94187456Y-73231614D01*
X94190038Y-73537043D01*
X94712692Y-73891148D01*
X94803208Y-73952405D01*
X94888978Y-74010319D01*
X94968632Y-74063973D01*
X95040799Y-74112449D01*
X95104110Y-74154831D01*
X95157193Y-74190203D01*
X95198678Y-74217647D01*
X95227196Y-74236246D01*
X95241374Y-74245084D01*
X95242673Y-74245703D01*
X95244498Y-74236445D01*
X95246157Y-74210018D01*
X95247592Y-74168792D01*
X95248743Y-74115136D01*
X95249552Y-74051420D01*
X95249961Y-73980012D01*
X95249999Y-73950520D01*
X95386769Y-73950520D01*
X95387030Y-74024292D01*
X95387769Y-74091183D01*
X95388921Y-74148855D01*
X95390419Y-74194974D01*
X95392198Y-74227202D01*
X95394190Y-74243203D01*
X95395069Y-74244525D01*
X95404368Y-74238579D01*
X95428408Y-74222515D01*
X95465817Y-74197269D01*
X95515222Y-74163773D01*
X95575252Y-74122960D01*
X95644532Y-74075764D01*
X95721692Y-74023118D01*
X95805359Y-73965956D01*
X95894159Y-73905212D01*
X95922608Y-73885736D01*
X96441846Y-73530203D01*
X96441846Y-73232595D01*
X96441760Y-73148071D01*
X96441434Y-73081142D01*
X96440767Y-73029868D01*
X96439659Y-72992305D01*
X96438008Y-72966511D01*
X96435713Y-72950545D01*
X96432673Y-72942464D01*
X96428786Y-72940326D01*
X96426657Y-72940815D01*
X96416224Y-72947178D01*
X96391381Y-72963454D01*
X96353819Y-72988490D01*
X96305231Y-73021131D01*
X96247308Y-73060222D01*
X96181742Y-73104612D01*
X96110224Y-73153144D01*
X96034447Y-73204666D01*
X95956102Y-73258023D01*
X95876881Y-73312062D01*
X95798476Y-73365629D01*
X95722578Y-73417569D01*
X95650879Y-73466729D01*
X95585071Y-73511954D01*
X95526846Y-73552092D01*
X95477896Y-73585987D01*
X95439912Y-73612486D01*
X95414585Y-73630436D01*
X95403865Y-73638452D01*
X95399002Y-73644058D01*
X95395153Y-73652926D01*
X95392200Y-73667187D01*
X95390027Y-73688968D01*
X95388517Y-73720400D01*
X95387553Y-73763611D01*
X95387020Y-73820729D01*
X95386799Y-73893885D01*
X95386769Y-73950520D01*
X95249999Y-73950520D01*
X95250000Y-73949706D01*
X95249919Y-73865217D01*
X95249600Y-73798135D01*
X95248925Y-73746328D01*
X95247776Y-73707665D01*
X95246037Y-73680014D01*
X95243591Y-73661244D01*
X95240321Y-73649224D01*
X95236109Y-73641821D01*
X95232903Y-73638556D01*
X95221579Y-73630288D01*
X95195686Y-73612238D01*
X95156867Y-73585527D01*
X95106769Y-73551278D01*
X95047035Y-73510610D01*
X94979309Y-73464646D01*
X94905235Y-73414506D01*
X94826458Y-73361313D01*
X94820153Y-73357062D01*
X94736571Y-73300675D01*
X94653834Y-73244809D01*
X94574187Y-73190982D01*
X94499876Y-73140715D01*
X94433145Y-73095526D01*
X94376240Y-73056935D01*
X94331406Y-73026461D01*
X94304687Y-73008227D01*
X94184873Y-72926184D01*
X94038615Y-72926184D01*
X94038615Y-72790929D01*
X94258181Y-72790929D01*
X94265028Y-72797801D01*
X94286559Y-72814324D01*
X94321141Y-72839399D01*
X94367144Y-72871926D01*
X94422935Y-72910807D01*
X94486883Y-72954941D01*
X94557355Y-73003231D01*
X94632721Y-73054576D01*
X94711348Y-73107878D01*
X94791605Y-73162037D01*
X94871861Y-73215954D01*
X94950482Y-73268530D01*
X95025838Y-73318666D01*
X95096297Y-73365263D01*
X95160227Y-73407221D01*
X95215996Y-73443441D01*
X95261973Y-73472825D01*
X95296526Y-73494272D01*
X95318023Y-73506684D01*
X95324710Y-73509375D01*
X95334678Y-73503186D01*
X95359374Y-73486888D01*
X95397411Y-73461421D01*
X95447403Y-73427722D01*
X95507963Y-73386733D01*
X95577704Y-73339390D01*
X95655240Y-73286635D01*
X95739183Y-73229405D01*
X95828147Y-73168640D01*
X95855283Y-73150084D01*
X95960178Y-73078272D01*
X96049982Y-73016619D01*
X96125785Y-72964327D01*
X96188672Y-72920600D01*
X96239733Y-72884640D01*
X96280054Y-72855650D01*
X96310724Y-72832834D01*
X96332830Y-72815393D01*
X96347459Y-72802531D01*
X96355700Y-72793450D01*
X96358640Y-72787354D01*
X96357367Y-72783445D01*
X96356530Y-72782725D01*
X96345345Y-72775411D01*
X96319052Y-72758703D01*
X96279129Y-72733528D01*
X96227057Y-72700815D01*
X96164316Y-72661489D01*
X96092387Y-72616480D01*
X96012748Y-72566715D01*
X95926882Y-72513121D01*
X95836266Y-72456627D01*
X95828814Y-72451983D01*
X95318359Y-72133939D01*
X94790728Y-72458457D01*
X94698503Y-72515255D01*
X94611250Y-72569139D01*
X94530388Y-72619221D01*
X94457335Y-72664617D01*
X94393510Y-72704440D01*
X94340332Y-72737806D01*
X94299218Y-72763829D01*
X94271588Y-72781623D01*
X94258859Y-72790303D01*
X94258181Y-72790929D01*
X94038615Y-72790929D01*
X94038615Y-72764886D01*
X94065480Y-72740186D01*
X94078107Y-72731078D01*
X94106007Y-72712657D01*
X94147786Y-72685798D01*
X94202047Y-72651378D01*
X94267392Y-72610272D01*
X94342426Y-72563357D01*
X94425753Y-72511510D01*
X94515975Y-72455606D01*
X94611697Y-72396520D01*
X94691234Y-72347589D01*
X94818601Y-72269520D01*
X94930065Y-72201577D01*
X95026218Y-72143412D01*
X95107652Y-72094679D01*
X95174959Y-72055030D01*
X95228730Y-72024117D01*
X95269558Y-72001595D01*
X95298034Y-71987115D01*
X95314750Y-71980330D01*
X95318404Y-71979692D01*
X95330062Y-71983239D01*
G37*
D14*
%TO.C,J2*%
X112926000Y-70670000D02*
X114306000Y-70670000D01*
X112926000Y-72050000D02*
X112926000Y-70670000D01*
X112926000Y-73320000D02*
X112926000Y-96290000D01*
X112926000Y-73320000D02*
X115576000Y-73320000D01*
X112926000Y-96290000D02*
X118226000Y-96290000D01*
X115576000Y-70670000D02*
X118226000Y-70670000D01*
X115576000Y-73320000D02*
X115576000Y-70670000D01*
X118226000Y-70670000D02*
X118226000Y-96290000D01*
%TO.C,U2*%
X102977000Y-92964000D02*
X102977000Y-91014000D01*
X102977000Y-92964000D02*
X102977000Y-94914000D01*
X108097000Y-92964000D02*
X108097000Y-91014000D01*
X108097000Y-92964000D02*
X108097000Y-94914000D01*
X103072000Y-95664000D02*
X102742000Y-95904000D01*
X102742000Y-95424000D01*
X103072000Y-95664000D01*
G36*
X103072000Y-95664000D02*
G01*
X102742000Y-95904000D01*
X102742000Y-95424000D01*
X103072000Y-95664000D01*
G37*
%TO.C,R2*%
X105667436Y-82709000D02*
X106121564Y-82709000D01*
X105667436Y-84179000D02*
X106121564Y-84179000D01*
%TD*%
%LPC*%
D16*
X108916605Y-83185000D02*
G75*
G02*
X108507395Y-83185000I-204605J0D01*
G01*
X108507395Y-83185000D02*
G75*
G02*
X108916605Y-83185000I204605J0D01*
G01*
D17*
%TO.C,D1*%
X103149000Y-83382000D03*
X101274000Y-83382000D03*
%TD*%
D18*
%TO.C,R1*%
X106021500Y-87342500D03*
X106021500Y-85517500D03*
%TD*%
D19*
%TO.C,C1*%
X103481500Y-85480000D03*
X103481500Y-87380000D03*
%TD*%
D20*
%TO.C,R3*%
X101195500Y-85517500D03*
X101195500Y-87342500D03*
%TD*%
D21*
%TO.C,C2*%
X108585000Y-87376000D03*
X108585000Y-85476000D03*
%TD*%
D22*
%TO.C,J1*%
X88906000Y-72050000D03*
D23*
X91446000Y-72050000D03*
X88906000Y-74590000D03*
X91446000Y-74590000D03*
X88906000Y-77130000D03*
X91446000Y-77130000D03*
X88906000Y-79670000D03*
X91446000Y-79670000D03*
X88906000Y-82210000D03*
X91446000Y-82210000D03*
X88906000Y-84750000D03*
X91446000Y-84750000D03*
X88906000Y-87290000D03*
X91446000Y-87290000D03*
X88906000Y-89830000D03*
X91446000Y-89830000D03*
X88906000Y-92370000D03*
X91446000Y-92370000D03*
X88906000Y-94910000D03*
X91446000Y-94910000D03*
%TD*%
D22*
%TO.C,J2*%
X114306000Y-72050000D03*
D23*
X116846000Y-72050000D03*
X114306000Y-74590000D03*
X116846000Y-74590000D03*
X114306000Y-77130000D03*
X116846000Y-77130000D03*
X114306000Y-79670000D03*
X116846000Y-79670000D03*
X114306000Y-82210000D03*
X116846000Y-82210000D03*
X114306000Y-84750000D03*
X116846000Y-84750000D03*
X114306000Y-87290000D03*
X116846000Y-87290000D03*
X114306000Y-89830000D03*
X116846000Y-89830000D03*
X114306000Y-92370000D03*
X116846000Y-92370000D03*
X114306000Y-94910000D03*
X116846000Y-94910000D03*
%TD*%
D24*
%TO.C,U2*%
X103632000Y-95439000D03*
X104902000Y-95439000D03*
X106172000Y-95439000D03*
X107442000Y-95439000D03*
X107442000Y-90489000D03*
X106172000Y-90489000D03*
X104902000Y-90489000D03*
X103632000Y-90489000D03*
%TD*%
D25*
%TO.C,J3*%
X109093000Y-101092000D03*
%TD*%
D26*
%TO.C,J4*%
X101727000Y-101092000D03*
%TD*%
%TO.C,J5*%
X92837000Y-100965000D03*
%TD*%
D27*
%TO.C,R2*%
X104982000Y-83444000D03*
X106807000Y-83444000D03*
%TD*%
D28*
%TO.C,PS1*%
X102950000Y-98168000D03*
D29*
X97950000Y-98168000D03*
X107950000Y-69088000D03*
X92950000Y-69088000D03*
%TD*%
%LPD*%
M02*
