M48
; DRILL file {KiCad 9.0.3+dfsg-1} date 2026-04-08T09:28:39+0200
; FORMAT={-:-/ absolute / metric / decimal}
; #@! TF.CreationDate,2026-04-08T09:28:39+02:00
; #@! TF.GenerationSoftware,Kicad,Pcbnew,9.0.3+dfsg-1
; #@! TF.FileFunction,MixedPlating,1,2
FMAT,2
METRIC
; #@! TA.AperFunction,Plated,PTH,ComponentDrill
T1C1.000
; #@! TA.AperFunction,Plated,PTH,ComponentDrill
T2C3.000
%
G90
G05
T1
X88.906Y-72.05
X88.906Y-74.59
X88.906Y-77.13
X88.906Y-79.67
X88.906Y-82.21
X88.906Y-84.75
X88.906Y-87.29
X88.906Y-89.83
X88.906Y-92.37
X88.906Y-94.91
X91.446Y-72.05
X91.446Y-74.59
X91.446Y-77.13
X91.446Y-79.67
X91.446Y-82.21
X91.446Y-84.75
X91.446Y-87.29
X91.446Y-89.83
X91.446Y-92.37
X91.446Y-94.91
X92.95Y-69.088
X97.95Y-98.168
X102.95Y-98.168
X107.95Y-69.088
X114.306Y-72.05
X114.306Y-74.59
X114.306Y-77.13
X114.306Y-79.67
X114.306Y-82.21
X114.306Y-84.75
X114.306Y-87.29
X114.306Y-89.83
X114.306Y-92.37
X114.306Y-94.91
X116.846Y-72.05
X116.846Y-74.59
X116.846Y-77.13
X116.846Y-79.67
X116.846Y-82.21
X116.846Y-84.75
X116.846Y-87.29
X116.846Y-89.83
X116.846Y-92.37
X116.846Y-94.91
T2
X92.837Y-100.965
X101.727Y-101.092
X109.093Y-101.092
M30
