%TF.GenerationSoftware,KiCad,Pcbnew,9.0.3+dfsg-1*%
%TF.CreationDate,2026-04-08T09:28:38+02:00*%
%TF.ProjectId,desk_power_monitor_mini32_ac,6465736b-5f70-46f7-9765-725f6d6f6e69,rev?*%
%TF.SameCoordinates,Original*%
%TF.FileFunction,Copper,L1,Top*%
%TF.FilePolarity,Positive*%
%FSLAX46Y46*%
G04 Gerber Fmt 4.6, Leading zero omitted, Abs format (unit mm)*
G04 Created by KiCad (PCBNEW 9.0.3+dfsg-1) date 2026-04-08 09:28:38*
%MOMM*%
%LPD*%
G01*
G04 APERTURE LIST*
G04 Aperture macros list*
%AMRoundRect*
0 Rectangle with rounded corners*
0 $1 Rounding radius*
0 $2 $3 $4 $5 $6 $7 $8 $9 X,Y pos of 4 corners*
0 Add a 4 corners polygon primitive as box body*
4,1,4,$2,$3,$4,$5,$6,$7,$8,$9,$2,$3,0*
0 Add four circle primitives for the rounded corners*
1,1,$1+$1,$2,$3*
1,1,$1+$1,$4,$5*
1,1,$1+$1,$6,$7*
1,1,$1+$1,$8,$9*
0 Add four rect primitives between the rounded corners*
20,1,$1+$1,$2,$3,$4,$5,0*
20,1,$1+$1,$4,$5,$6,$7,0*
20,1,$1+$1,$6,$7,$8,$9,0*
20,1,$1+$1,$8,$9,$2,$3,0*%
G04 Aperture macros list end*
%TA.AperFunction,Conductor*%
%ADD10C,0.200000*%
%TD*%
%TA.AperFunction,Conductor*%
%ADD11C,0.667961*%
%TD*%
%TA.AperFunction,SMDPad,CuDef*%
%ADD12RoundRect,0.243750X0.243750X0.456250X-0.243750X0.456250X-0.243750X-0.456250X0.243750X-0.456250X0*%
%TD*%
%TA.AperFunction,SMDPad,CuDef*%
%ADD13RoundRect,0.250000X0.450000X-0.262500X0.450000X0.262500X-0.450000X0.262500X-0.450000X-0.262500X0*%
%TD*%
%TA.AperFunction,SMDPad,CuDef*%
%ADD14RoundRect,0.250000X-0.475000X0.250000X-0.475000X-0.250000X0.475000X-0.250000X0.475000X0.250000X0*%
%TD*%
%TA.AperFunction,SMDPad,CuDef*%
%ADD15RoundRect,0.250000X-0.450000X0.262500X-0.450000X-0.262500X0.450000X-0.262500X0.450000X0.262500X0*%
%TD*%
%TA.AperFunction,SMDPad,CuDef*%
%ADD16RoundRect,0.250000X0.475000X-0.250000X0.475000X0.250000X-0.475000X0.250000X-0.475000X-0.250000X0*%
%TD*%
%TA.AperFunction,ComponentPad*%
%ADD17R,1.700000X1.700000*%
%TD*%
%TA.AperFunction,ComponentPad*%
%ADD18C,1.700000*%
%TD*%
%TA.AperFunction,SMDPad,CuDef*%
%ADD19RoundRect,0.150000X0.150000X-0.825000X0.150000X0.825000X-0.150000X0.825000X-0.150000X-0.825000X0*%
%TD*%
%TA.AperFunction,ComponentPad*%
%ADD20RoundRect,0.250000X-1.750000X1.750000X-1.750000X-1.750000X1.750000X-1.750000X1.750000X1.750000X0*%
%TD*%
%TA.AperFunction,ComponentPad*%
%ADD21RoundRect,0.250000X1.750000X-1.750000X1.750000X1.750000X-1.750000X1.750000X-1.750000X-1.750000X0*%
%TD*%
%TA.AperFunction,SMDPad,CuDef*%
%ADD22RoundRect,0.250000X-0.262500X-0.450000X0.262500X-0.450000X0.262500X0.450000X-0.262500X0.450000X0*%
%TD*%
%TA.AperFunction,ComponentPad*%
%ADD23RoundRect,0.250000X0.750000X-0.600000X0.750000X0.600000X-0.750000X0.600000X-0.750000X-0.600000X0*%
%TD*%
%TA.AperFunction,ComponentPad*%
%ADD24O,2.000000X1.700000*%
%TD*%
%TA.AperFunction,Conductor*%
%ADD25C,0.400000*%
%TD*%
%TA.AperFunction,Conductor*%
%ADD26C,0.500000*%
%TD*%
%TA.AperFunction,Conductor*%
%ADD27C,0.300000*%
%TD*%
G04 APERTURE END LIST*
D10*
%TO.N,/LIVE*%
X105029000Y-96323384D02*
X103560895Y-99260176D01*
X99848618Y-99260176D01*
X100838000Y-97536000D01*
X103424467Y-96301843D01*
X103424467Y-94571362D01*
X105090324Y-94557001D01*
X105029000Y-96323384D01*
%TA.AperFunction,Conductor*%
G36*
X105029000Y-96323384D02*
G01*
X103560895Y-99260176D01*
X99848618Y-99260176D01*
X100838000Y-97536000D01*
X103424467Y-96301843D01*
X103424467Y-94571362D01*
X105090324Y-94557001D01*
X105029000Y-96323384D01*
G37*
%TD.AperFunction*%
%TO.N,/CURRENT*%
D11*
X109045980Y-83185000D02*
G75*
G02*
X108378020Y-83185000I-333980J0D01*
G01*
X108378020Y-83185000D02*
G75*
G02*
X109045980Y-83185000I333980J0D01*
G01*
D10*
%TO.N,/LOAD*%
X107569000Y-96266000D02*
X110871000Y-99314000D01*
X107442000Y-99314000D01*
X107315000Y-99314000D01*
X106045000Y-96266000D01*
X106045000Y-94615000D01*
X107569000Y-94615000D01*
X107569000Y-96266000D01*
%TA.AperFunction,Conductor*%
G36*
X107569000Y-96266000D02*
G01*
X110871000Y-99314000D01*
X107442000Y-99314000D01*
X107315000Y-99314000D01*
X106045000Y-96266000D01*
X106045000Y-94615000D01*
X107569000Y-94615000D01*
X107569000Y-96266000D01*
G37*
%TD.AperFunction*%
%TO.N,/NEUTRAL*%
X98933000Y-99187000D02*
X96393000Y-99187000D01*
X94615000Y-101346000D01*
X94615000Y-99314000D01*
X91059000Y-99187000D01*
X95758000Y-97155000D01*
X98933000Y-97155000D01*
X98933000Y-99187000D01*
%TA.AperFunction,Conductor*%
G36*
X98933000Y-99187000D02*
G01*
X96393000Y-99187000D01*
X94615000Y-101346000D01*
X94615000Y-99314000D01*
X91059000Y-99187000D01*
X95758000Y-97155000D01*
X98933000Y-97155000D01*
X98933000Y-99187000D01*
G37*
%TD.AperFunction*%
%TD*%
D12*
%TO.P,D1,1,K*%
%TO.N,GNDREF*%
X103149000Y-83382000D03*
%TO.P,D1,2,A*%
%TO.N,Net-(D1-A)*%
X101274000Y-83382000D03*
%TD*%
D13*
%TO.P,R1,1*%
%TO.N,Net-(U2-VIOUT)*%
X106021500Y-87342500D03*
%TO.P,R1,2*%
%TO.N,/CURRENT*%
X106021500Y-85517500D03*
%TD*%
D14*
%TO.P,C1,1*%
%TO.N,GNDREF*%
X103481500Y-85480000D03*
%TO.P,C1,2*%
%TO.N,/5V*%
X103481500Y-87380000D03*
%TD*%
D15*
%TO.P,R3,1*%
%TO.N,Net-(D1-A)*%
X101195500Y-85517500D03*
%TO.P,R3,2*%
%TO.N,/5V*%
X101195500Y-87342500D03*
%TD*%
D16*
%TO.P,C2,1*%
%TO.N,Net-(U2-FILTER)*%
X108585000Y-87376000D03*
%TO.P,C2,2*%
%TO.N,GNDREF*%
X108585000Y-85476000D03*
%TD*%
D17*
%TO.P,J1,1,GND*%
%TO.N,GNDREF*%
X88906000Y-72050000D03*
D18*
%TO.P,J1,2,RST*%
%TO.N,unconnected-(J1-RST-Pad2)*%
X91446000Y-72050000D03*
%TO.P,J1,3,NC*%
%TO.N,unconnected-(J1-NC-Pad3)*%
X88906000Y-74590000D03*
%TO.P,J1,4,SVP*%
%TO.N,unconnected-(J1-SVP-Pad4)*%
X91446000Y-74590000D03*
%TO.P,J1,5,SVN*%
%TO.N,unconnected-(J1-SVN-Pad5)*%
X88906000Y-77130000D03*
%TO.P,J1,6,IO26*%
%TO.N,unconnected-(J1-IO26-Pad6)*%
X91446000Y-77130000D03*
%TO.P,J1,7,IO35*%
%TO.N,unconnected-(J1-IO35-Pad7)*%
X88906000Y-79670000D03*
%TO.P,J1,8,IO18*%
%TO.N,unconnected-(J1-IO18-Pad8)*%
X91446000Y-79670000D03*
%TO.P,J1,9,IO33*%
%TO.N,unconnected-(J1-IO33-Pad9)*%
X88906000Y-82210000D03*
%TO.P,J1,10,IO19*%
%TO.N,unconnected-(J1-IO19-Pad10)*%
X91446000Y-82210000D03*
%TO.P,J1,11,IO34*%
%TO.N,/CURRENT*%
X88906000Y-84750000D03*
%TO.P,J1,12,IO23*%
%TO.N,unconnected-(J1-IO23-Pad12)*%
X91446000Y-84750000D03*
%TO.P,J1,13,TMS*%
%TO.N,unconnected-(J1-TMS-Pad13)*%
X88906000Y-87290000D03*
%TO.P,J1,14,IO5*%
%TO.N,unconnected-(J1-IO5-Pad14)*%
X91446000Y-87290000D03*
%TO.P,J1,15,NC*%
%TO.N,unconnected-(J1-NC-Pad15)*%
X88906000Y-89830000D03*
%TO.P,J1,16,3V3*%
%TO.N,unconnected-(J1-3V3-Pad16)*%
X91446000Y-89830000D03*
%TO.P,J1,17,SD2*%
%TO.N,unconnected-(J1-SD2-Pad17)*%
X88906000Y-92370000D03*
%TO.P,J1,18,TCK*%
%TO.N,unconnected-(J1-TCK-Pad18)*%
X91446000Y-92370000D03*
%TO.P,J1,19,CMD*%
%TO.N,unconnected-(J1-CMD-Pad19)*%
X88906000Y-94910000D03*
%TO.P,J1,20,SD3*%
%TO.N,unconnected-(J1-SD3-Pad20)*%
X91446000Y-94910000D03*
%TD*%
D17*
%TO.P,J2,1,TXD*%
%TO.N,unconnected-(J2-TXD-Pad1)*%
X114306000Y-72050000D03*
D18*
%TO.P,J2,2,GND*%
%TO.N,GNDREF*%
X116846000Y-72050000D03*
%TO.P,J2,3,RXD*%
%TO.N,unconnected-(J2-RXD-Pad3)*%
X114306000Y-74590000D03*
%TO.P,J2,4,IO27*%
%TO.N,unconnected-(J2-IO27-Pad4)*%
X116846000Y-74590000D03*
%TO.P,J2,5,IO22*%
%TO.N,unconnected-(J2-IO22-Pad5)*%
X114306000Y-77130000D03*
%TO.P,J2,6,IO25*%
%TO.N,unconnected-(J2-IO25-Pad6)*%
X116846000Y-77130000D03*
%TO.P,J2,7,IO21*%
%TO.N,unconnected-(J2-IO21-Pad7)*%
X114306000Y-79670000D03*
%TO.P,J2,8,IO32*%
%TO.N,unconnected-(J2-IO32-Pad8)*%
X116846000Y-79670000D03*
%TO.P,J2,9,IO17*%
%TO.N,unconnected-(J2-IO17-Pad9)*%
X114306000Y-82210000D03*
%TO.P,J2,10,TDI*%
%TO.N,unconnected-(J2-TDI-Pad10)*%
X116846000Y-82210000D03*
%TO.P,J2,11,IO16*%
%TO.N,unconnected-(J2-IO16-Pad11)*%
X114306000Y-84750000D03*
%TO.P,J2,12,IO4*%
%TO.N,unconnected-(J2-IO4-Pad12)*%
X116846000Y-84750000D03*
%TO.P,J2,13,GND*%
%TO.N,GNDREF*%
X114306000Y-87290000D03*
%TO.P,J2,14,IO0*%
%TO.N,unconnected-(J2-IO0-Pad14)*%
X116846000Y-87290000D03*
%TO.P,J2,15,VCC*%
%TO.N,/5V*%
X114306000Y-89830000D03*
%TO.P,J2,16,IO2*%
%TO.N,unconnected-(J2-IO2-Pad16)*%
X116846000Y-89830000D03*
%TO.P,J2,17,TD0*%
%TO.N,unconnected-(J2-TD0-Pad17)*%
X114306000Y-92370000D03*
%TO.P,J2,18,SD1*%
%TO.N,unconnected-(J2-SD1-Pad18)*%
X116846000Y-92370000D03*
%TO.P,J2,19,SD0*%
%TO.N,unconnected-(J2-SD0-Pad19)*%
X114306000Y-94910000D03*
%TO.P,J2,20,CLK*%
%TO.N,unconnected-(J2-CLK-Pad20)*%
X116846000Y-94910000D03*
%TD*%
D19*
%TO.P,U2,1,IP+*%
%TO.N,/LIVE*%
X103632000Y-95439000D03*
%TO.P,U2,2,IP+*%
X104902000Y-95439000D03*
%TO.P,U2,3,IP-*%
%TO.N,/LOAD*%
X106172000Y-95439000D03*
%TO.P,U2,4,IP-*%
X107442000Y-95439000D03*
%TO.P,U2,5,GND*%
%TO.N,GNDREF*%
X107442000Y-90489000D03*
%TO.P,U2,6,FILTER*%
%TO.N,Net-(U2-FILTER)*%
X106172000Y-90489000D03*
%TO.P,U2,7,VIOUT*%
%TO.N,Net-(U2-VIOUT)*%
X104902000Y-90489000D03*
%TO.P,U2,8,5V*%
%TO.N,/5V*%
X103632000Y-90489000D03*
%TD*%
D20*
%TO.P,J3,1,Pin_1*%
%TO.N,/LOAD*%
X109093000Y-101092000D03*
%TD*%
D21*
%TO.P,J4,1,Pin_1*%
%TO.N,/LIVE*%
X101727000Y-101092000D03*
%TD*%
%TO.P,J5,1,Pin_1*%
%TO.N,/NEUTRAL*%
X92837000Y-100965000D03*
%TD*%
D22*
%TO.P,R2,1*%
%TO.N,GNDREF*%
X104982000Y-83444000D03*
%TO.P,R2,2*%
%TO.N,/CURRENT*%
X106807000Y-83444000D03*
%TD*%
D23*
%TO.P,PS1,1,AC/L*%
%TO.N,/LIVE*%
X102950000Y-98168000D03*
D24*
%TO.P,PS1,2,AC/N*%
%TO.N,/NEUTRAL*%
X97950000Y-98168000D03*
%TO.P,PS1,3,-Vout*%
%TO.N,GNDREF*%
X107950000Y-69088000D03*
%TO.P,PS1,4,+Vout*%
%TO.N,/5V*%
X92950000Y-69088000D03*
%TD*%
D25*
%TO.N,Net-(U2-FILTER)*%
X106172000Y-89154000D02*
X106680000Y-88646000D01*
X108585000Y-88011000D02*
X108585000Y-87376000D01*
X106680000Y-88646000D02*
X107950000Y-88646000D01*
X107950000Y-88646000D02*
X108585000Y-88011000D01*
X106172000Y-90489000D02*
X106172000Y-89154000D01*
D26*
%TO.N,GNDREF*%
X103378000Y-67056000D02*
X105410000Y-69088000D01*
D10*
X103481500Y-83714500D02*
X103149000Y-83382000D01*
D25*
X109982000Y-81915000D02*
X106426000Y-78359000D01*
D26*
X90424000Y-67056000D02*
X103378000Y-67056000D01*
D25*
X98610117Y-70543117D02*
X106426000Y-78359000D01*
D26*
X106694000Y-69088000D02*
X115570000Y-69088000D01*
D25*
X104775000Y-76708000D02*
X104982000Y-76915000D01*
X107696000Y-69088000D02*
X106694000Y-69088000D01*
X104982000Y-76915000D02*
X104982000Y-83444000D01*
X88906000Y-71114000D02*
X89476883Y-70543117D01*
X88906000Y-72050000D02*
X88906000Y-71114000D01*
X108520000Y-90489000D02*
X109982000Y-89027000D01*
D26*
X112014000Y-86614000D02*
X112014000Y-73406000D01*
X115570000Y-69088000D02*
X116846000Y-70364000D01*
X112014000Y-73406000D02*
X107696000Y-69088000D01*
D25*
X108585000Y-85471000D02*
X109982000Y-84074000D01*
D26*
X112690000Y-87290000D02*
X112014000Y-86614000D01*
D25*
X109982000Y-84074000D02*
X109982000Y-85471000D01*
D26*
X105410000Y-69088000D02*
X106694000Y-69088000D01*
X104920000Y-83382000D02*
X104982000Y-83444000D01*
X114306000Y-87290000D02*
X112690000Y-87290000D01*
X103149000Y-83382000D02*
X104920000Y-83382000D01*
X88906000Y-72050000D02*
X88906000Y-68574000D01*
X103481500Y-85480000D02*
X103481500Y-83714500D01*
X116846000Y-70364000D02*
X116846000Y-72050000D01*
X88906000Y-68574000D02*
X90424000Y-67056000D01*
D25*
X107442000Y-90489000D02*
X108520000Y-90489000D01*
X108585000Y-85476000D02*
X108585000Y-85471000D01*
X109982000Y-89027000D02*
X109982000Y-81915000D01*
X89476883Y-70543117D02*
X98610117Y-70543117D01*
%TO.N,Net-(U2-VIOUT)*%
X104902000Y-90489000D02*
X104902000Y-88462000D01*
X104902000Y-88462000D02*
X106021500Y-87342500D01*
D26*
%TO.N,Net-(D1-A)*%
X101274000Y-84781000D02*
X101274000Y-83382000D01*
X101195500Y-85517500D02*
X101195500Y-84859500D01*
X101195500Y-84859500D02*
X101274000Y-84781000D01*
D10*
%TO.N,/5V*%
X103444000Y-87342500D02*
X103481500Y-87380000D01*
D27*
X101195500Y-91670500D02*
X101981000Y-92456000D01*
X109220000Y-92456000D02*
X111846000Y-89830000D01*
D10*
X114265000Y-89789000D02*
X114306000Y-89830000D01*
D27*
X101727000Y-92202000D02*
X101981000Y-92456000D01*
D26*
X110998000Y-88982000D02*
X110998000Y-80518000D01*
D27*
X103632000Y-90489000D02*
X102551000Y-90489000D01*
X102551000Y-90489000D02*
X101727000Y-91313000D01*
D26*
X99568000Y-69088000D02*
X92950000Y-69088000D01*
X110998000Y-80518000D02*
X99568000Y-69088000D01*
D27*
X101195500Y-87342500D02*
X101195500Y-91670500D01*
D26*
X111846000Y-89830000D02*
X114306000Y-89830000D01*
D27*
X101981000Y-92456000D02*
X109220000Y-92456000D01*
X101727000Y-91313000D02*
X101727000Y-92202000D01*
D26*
X111846000Y-89830000D02*
X110998000Y-88982000D01*
D10*
X103632000Y-87530500D02*
X103481500Y-87380000D01*
D27*
X103632000Y-90489000D02*
X103632000Y-87530500D01*
D10*
%TO.N,/NEUTRAL*%
X92837000Y-100965000D02*
X93897000Y-100965000D01*
%TO.N,/CURRENT*%
X106021500Y-85517500D02*
X105097704Y-86441296D01*
D25*
X106426000Y-84582000D02*
X107315000Y-84582000D01*
D10*
X90135000Y-85979000D02*
X88906000Y-84750000D01*
D25*
X106426000Y-84582000D02*
X106807000Y-84201000D01*
D10*
X99504500Y-85979000D02*
X90135000Y-85979000D01*
D25*
X106807000Y-84201000D02*
X106807000Y-83444000D01*
D10*
X99966796Y-86441296D02*
X99504500Y-85979000D01*
D25*
X106021500Y-85517500D02*
X106021500Y-84986500D01*
X106021500Y-84986500D02*
X106426000Y-84582000D01*
D10*
X105097704Y-86441296D02*
X99966796Y-86441296D01*
D25*
X107315000Y-84582000D02*
X108712000Y-83185000D01*
%TD*%
M02*
