%TF.GenerationSoftware,KiCad,Pcbnew,9.0.3+dfsg-1*%
%TF.CreationDate,2026-04-08T09:28:38+02:00*%
%TF.ProjectId,desk_power_monitor_mini32_ac,6465736b-5f70-46f7-9765-725f6d6f6e69,rev?*%
%TF.SameCoordinates,Original*%
%TF.FileFunction,Soldermask,Top*%
%TF.FilePolarity,Negative*%
%FSLAX46Y46*%
G04 Gerber Fmt 4.6, Leading zero omitted, Abs format (unit mm)*
G04 Created by KiCad (PCBNEW 9.0.3+dfsg-1) date 2026-04-08 09:28:38*
%MOMM*%
%LPD*%
G01*
G04 APERTURE LIST*
G04 Aperture macros list*
%AMRoundRect*
0 Rectangle with rounded corners*
0 $1 Rounding radius*
0 $2 $3 $4 $5 $6 $7 $8 $9 X,Y pos of 4 corners*
0 Add a 4 corners polygon primitive as box body*
4,1,4,$2,$3,$4,$5,$6,$7,$8,$9,$2,$3,0*
0 Add four circle primitives for the rounded corners*
1,1,$1+$1,$2,$3*
1,1,$1+$1,$4,$5*
1,1,$1+$1,$6,$7*
1,1,$1+$1,$8,$9*
0 Add four rect primitives between the rounded corners*
20,1,$1+$1,$2,$3,$4,$5,0*
20,1,$1+$1,$4,$5,$6,$7,0*
20,1,$1+$1,$6,$7,$8,$9,0*
20,1,$1+$1,$8,$9,$2,$3,0*%
G04 Aperture macros list end*
%ADD10C,0.409210*%
%ADD11RoundRect,0.243750X0.243750X0.456250X-0.243750X0.456250X-0.243750X-0.456250X0.243750X-0.456250X0*%
%ADD12RoundRect,0.250000X0.450000X-0.262500X0.450000X0.262500X-0.450000X0.262500X-0.450000X-0.262500X0*%
%ADD13RoundRect,0.250000X-0.475000X0.250000X-0.475000X-0.250000X0.475000X-0.250000X0.475000X0.250000X0*%
%ADD14RoundRect,0.250000X-0.450000X0.262500X-0.450000X-0.262500X0.450000X-0.262500X0.450000X0.262500X0*%
%ADD15RoundRect,0.250000X0.475000X-0.250000X0.475000X0.250000X-0.475000X0.250000X-0.475000X-0.250000X0*%
%ADD16R,1.700000X1.700000*%
%ADD17C,1.700000*%
%ADD18RoundRect,0.150000X0.150000X-0.825000X0.150000X0.825000X-0.150000X0.825000X-0.150000X-0.825000X0*%
%ADD19RoundRect,0.250000X-1.750000X1.750000X-1.750000X-1.750000X1.750000X-1.750000X1.750000X1.750000X0*%
%ADD20RoundRect,0.250000X1.750000X-1.750000X1.750000X1.750000X-1.750000X1.750000X-1.750000X-1.750000X0*%
%ADD21RoundRect,0.250000X-0.262500X-0.450000X0.262500X-0.450000X0.262500X0.450000X-0.262500X0.450000X0*%
%ADD22RoundRect,0.250000X0.750000X-0.600000X0.750000X0.600000X-0.750000X0.600000X-0.750000X-0.600000X0*%
%ADD23O,2.000000X1.700000*%
G04 APERTURE END LIST*
D10*
X108916605Y-83185000D02*
G75*
G02*
X108507395Y-83185000I-204605J0D01*
G01*
X108507395Y-83185000D02*
G75*
G02*
X108916605Y-83185000I204605J0D01*
G01*
D11*
%TO.C,D1*%
X103149000Y-83382000D03*
X101274000Y-83382000D03*
%TD*%
D12*
%TO.C,R1*%
X106021500Y-87342500D03*
X106021500Y-85517500D03*
%TD*%
D13*
%TO.C,C1*%
X103481500Y-85480000D03*
X103481500Y-87380000D03*
%TD*%
D14*
%TO.C,R3*%
X101195500Y-85517500D03*
X101195500Y-87342500D03*
%TD*%
D15*
%TO.C,C2*%
X108585000Y-87376000D03*
X108585000Y-85476000D03*
%TD*%
D16*
%TO.C,J1*%
X88906000Y-72050000D03*
D17*
X91446000Y-72050000D03*
X88906000Y-74590000D03*
X91446000Y-74590000D03*
X88906000Y-77130000D03*
X91446000Y-77130000D03*
X88906000Y-79670000D03*
X91446000Y-79670000D03*
X88906000Y-82210000D03*
X91446000Y-82210000D03*
X88906000Y-84750000D03*
X91446000Y-84750000D03*
X88906000Y-87290000D03*
X91446000Y-87290000D03*
X88906000Y-89830000D03*
X91446000Y-89830000D03*
X88906000Y-92370000D03*
X91446000Y-92370000D03*
X88906000Y-94910000D03*
X91446000Y-94910000D03*
%TD*%
D16*
%TO.C,J2*%
X114306000Y-72050000D03*
D17*
X116846000Y-72050000D03*
X114306000Y-74590000D03*
X116846000Y-74590000D03*
X114306000Y-77130000D03*
X116846000Y-77130000D03*
X114306000Y-79670000D03*
X116846000Y-79670000D03*
X114306000Y-82210000D03*
X116846000Y-82210000D03*
X114306000Y-84750000D03*
X116846000Y-84750000D03*
X114306000Y-87290000D03*
X116846000Y-87290000D03*
X114306000Y-89830000D03*
X116846000Y-89830000D03*
X114306000Y-92370000D03*
X116846000Y-92370000D03*
X114306000Y-94910000D03*
X116846000Y-94910000D03*
%TD*%
D18*
%TO.C,U2*%
X103632000Y-95439000D03*
X104902000Y-95439000D03*
X106172000Y-95439000D03*
X107442000Y-95439000D03*
X107442000Y-90489000D03*
X106172000Y-90489000D03*
X104902000Y-90489000D03*
X103632000Y-90489000D03*
%TD*%
D19*
%TO.C,J3*%
X109093000Y-101092000D03*
%TD*%
D20*
%TO.C,J4*%
X101727000Y-101092000D03*
%TD*%
%TO.C,J5*%
X92837000Y-100965000D03*
%TD*%
D21*
%TO.C,R2*%
X104982000Y-83444000D03*
X106807000Y-83444000D03*
%TD*%
D22*
%TO.C,PS1*%
X102950000Y-98168000D03*
D23*
X97950000Y-98168000D03*
X107950000Y-69088000D03*
X92950000Y-69088000D03*
%TD*%
M02*
